<?xml version="1.0" encoding="UTF-8" standalone="no"?>
<!DOCTYPE svg PUBLIC "-//W3C//DTD SVG 1.1//EN"
 "http://www.w3.org/Graphics/SVG/1.1/DTD/svg11.dtd">
<!-- Generated by graphviz version 2.40.1 (20161225.0304)
 -->
<!-- Title: %3 Pages: 1 -->
<svg width="1131pt" height="870pt"
 viewBox="0.00 0.00 1131.00 870.00" xmlns="http://www.w3.org/2000/svg" xmlns:xlink="http://www.w3.org/1999/xlink">
<g id="graph0" class="graph" transform="scale(1 1) rotate(0) translate(4 866)">
<title>%3</title>
<polygon fill="#ffffff" stroke="transparent" points="-4,4 -4,-866 1127,-866 1127,4 -4,4"/>
<!-- customer -->
<g id="node1" class="node">
<title>customer</title>
<polygon fill="none" stroke="#000000" points="8,-324 8,-343 218,-343 218,-324 8,-324"/>
<text text-anchor="start" x="91" y="-332.6" font-family="Verdana" font-weight="bold" font-size="8.00" fill="#000000">customer</text>
<polygon fill="none" stroke="#000000" points="8,-299 8,-324 218,-324 218,-299 8,-299"/>
<text text-anchor="start" x="13" y="-308.8" font-family="Verdana" font-size="14.00" fill="#000000">date_created</text>
<text text-anchor="start" x="108" y="-308.8" font-family="Verdana" font-size="14.00" fill="#000000"> [DATETIME]</text>
<polygon fill="none" stroke="#000000" points="8,-274 8,-299 218,-299 218,-274 8,-274"/>
<text text-anchor="start" x="13" y="-283.8" font-family="Verdana" font-size="14.00" fill="#000000">date_modified</text>
<text text-anchor="start" x="116" y="-283.8" font-family="Verdana" font-size="14.00" fill="#000000"> [DATETIME]</text>
<polygon fill="none" stroke="#000000" points="8,-249 8,-274 218,-274 218,-249 8,-249"/>
<text text-anchor="start" x="13" y="-258.8" font-family="Verdana" text-decoration="underline" font-size="14.00" fill="#000000">id</text>
<text text-anchor="start" x="26" y="-258.8" font-family="Verdana" font-size="14.00" fill="#000000"> [VARCHAR]</text>
<polygon fill="none" stroke="#000000" points="8,-224 8,-249 218,-249 218,-224 8,-224"/>
<text text-anchor="start" x="13" y="-233.8" font-family="Verdana" font-size="14.00" fill="#000000">description</text>
<text text-anchor="start" x="92" y="-233.8" font-family="Verdana" font-size="14.00" fill="#000000"> [VARCHAR(200)]</text>
<polygon fill="none" stroke="#000000" points="8,-199 8,-224 218,-224 218,-199 8,-199"/>
<text text-anchor="start" x="13" y="-208.8" font-family="Verdana" font-size="14.00" fill="#000000">name</text>
<text text-anchor="start" x="55" y="-208.8" font-family="Verdana" font-size="14.00" fill="#000000"> [VARCHAR(64)]</text>
</g>
<!-- order -->
<g id="node8" class="node">
<title>order</title>
<polygon fill="none" stroke="#000000" points="307,-349 307,-368 517,-368 517,-349 307,-349"/>
<text text-anchor="start" x="399.5" y="-357.6" font-family="Verdana" font-weight="bold" font-size="8.00" fill="#000000">order</text>
<polygon fill="none" stroke="#000000" points="307,-324 307,-349 517,-349 517,-324 307,-324"/>
<text text-anchor="start" x="312" y="-333.8" font-family="Verdana" font-size="14.00" fill="#000000">date_created</text>
<text text-anchor="start" x="407" y="-333.8" font-family="Verdana" font-size="14.00" fill="#000000"> [DATETIME]</text>
<polygon fill="none" stroke="#000000" points="307,-299 307,-324 517,-324 517,-299 307,-299"/>
<text text-anchor="start" x="312" y="-308.8" font-family="Verdana" font-size="14.00" fill="#000000">date_modified</text>
<text text-anchor="start" x="415" y="-308.8" font-family="Verdana" font-size="14.00" fill="#000000"> [DATETIME]</text>
<polygon fill="none" stroke="#000000" points="307,-274 307,-299 517,-299 517,-274 307,-274"/>
<text text-anchor="start" x="312" y="-283.8" font-family="Verdana" text-decoration="underline" font-size="14.00" fill="#000000">id</text>
<text text-anchor="start" x="325" y="-283.8" font-family="Verdana" font-size="14.00" fill="#000000"> [VARCHAR]</text>
<polygon fill="none" stroke="#000000" points="307,-249 307,-274 517,-274 517,-249 307,-249"/>
<text text-anchor="start" x="312" y="-258.8" font-family="Verdana" font-size="14.00" fill="#000000">description</text>
<text text-anchor="start" x="391" y="-258.8" font-family="Verdana" font-size="14.00" fill="#000000"> [VARCHAR(200)]</text>
<polygon fill="none" stroke="#000000" points="307,-224 307,-249 517,-249 517,-224 307,-224"/>
<text text-anchor="start" x="312" y="-233.8" font-family="Verdana" font-size="14.00" fill="#000000">name</text>
<text text-anchor="start" x="354" y="-233.8" font-family="Verdana" font-size="14.00" fill="#000000"> [VARCHAR(64)]</text>
<polygon fill="none" stroke="#000000" points="307,-199 307,-224 517,-224 517,-199 307,-199"/>
<text text-anchor="start" x="312" y="-208.8" font-family="Verdana" font-size="14.00" fill="#000000">customer_id</text>
<text text-anchor="start" x="400" y="-208.8" font-family="Verdana" font-size="14.00" fill="#000000"> [VARCHAR]</text>
<polygon fill="none" stroke="#000000" points="307,-174 307,-199 517,-199 517,-174 307,-174"/>
<text text-anchor="start" x="312" y="-183.8" font-family="Verdana" font-size="14.00" fill="#000000">amount</text>
<text text-anchor="start" x="368" y="-183.8" font-family="Verdana" font-size="14.00" fill="#000000"> [FLOAT]</text>
</g>
<!-- customer&#45;&#45;order -->
<g id="edge10" class="edge">
<title>customer&#45;&#45;order</title>
<path fill="none" stroke="#7f7f7f" stroke-dasharray="5,2" d="M226.0391,-271C249.853,-271 274.9813,-271 298.8011,-271"/>
<text text-anchor="start" x="267.8011" y="-259.8" font-family="Times,serif" font-size="14.00" fill="#000000">{0,1}</text>
<text text-anchor="start" x="226.0391" y="-259.8" font-family="Times,serif" font-size="14.00" fill="#000000">0..N</text>
</g>
<!-- task -->
<g id="node2" class="node">
<title>task</title>
<polygon fill="none" stroke="#000000" points="606,-647 606,-666 816,-666 816,-647 606,-647"/>
<text text-anchor="start" x="701" y="-655.6" font-family="Verdana" font-weight="bold" font-size="8.00" fill="#000000">task</text>
<polygon fill="none" stroke="#000000" points="606,-622 606,-647 816,-647 816,-622 606,-622"/>
<text text-anchor="start" x="611" y="-631.8" font-family="Verdana" font-size="14.00" fill="#000000">date_created</text>
<text text-anchor="start" x="706" y="-631.8" font-family="Verdana" font-size="14.00" fill="#000000"> [DATETIME]</text>
<polygon fill="none" stroke="#000000" points="606,-597 606,-622 816,-622 816,-597 606,-597"/>
<text text-anchor="start" x="611" y="-606.8" font-family="Verdana" font-size="14.00" fill="#000000">date_modified</text>
<text text-anchor="start" x="714" y="-606.8" font-family="Verdana" font-size="14.00" fill="#000000"> [DATETIME]</text>
<polygon fill="none" stroke="#000000" points="606,-572 606,-597 816,-597 816,-572 606,-572"/>
<text text-anchor="start" x="611" y="-581.8" font-family="Verdana" font-size="14.00" fill="#000000">description</text>
<text text-anchor="start" x="690" y="-581.8" font-family="Verdana" font-size="14.00" fill="#000000"> [VARCHAR(200)]</text>
<polygon fill="none" stroke="#000000" points="606,-547 606,-572 816,-572 816,-547 606,-547"/>
<text text-anchor="start" x="611" y="-556.8" font-family="Verdana" font-size="14.00" fill="#000000">name</text>
<text text-anchor="start" x="653" y="-556.8" font-family="Verdana" font-size="14.00" fill="#000000"> [VARCHAR(64)]</text>
<polygon fill="none" stroke="#000000" points="606,-522 606,-547 816,-547 816,-522 606,-522"/>
<text text-anchor="start" x="611" y="-531.8" font-family="Verdana" text-decoration="underline" font-size="14.00" fill="#000000">id</text>
<text text-anchor="start" x="624" y="-531.8" font-family="Verdana" font-size="14.00" fill="#000000"> [VARCHAR]</text>
<polygon fill="none" stroke="#000000" points="606,-497 606,-522 816,-522 816,-497 606,-497"/>
<text text-anchor="start" x="611" y="-506.8" font-family="Verdana" font-size="14.00" fill="#000000">content</text>
<text text-anchor="start" x="666" y="-506.8" font-family="Verdana" font-size="14.00" fill="#000000"> [VARCHAR(1024)]</text>
<polygon fill="none" stroke="#000000" points="606,-472 606,-497 816,-497 816,-472 606,-472"/>
<text text-anchor="start" x="611" y="-481.8" font-family="Verdana" font-size="14.00" fill="#000000">department</text>
<text text-anchor="start" x="696" y="-481.8" font-family="Verdana" font-size="14.00" fill="#000000"> [VARCHAR(16)]</text>
<polygon fill="none" stroke="#000000" points="606,-447 606,-472 816,-472 816,-447 606,-447"/>
<text text-anchor="start" x="611" y="-456.8" font-family="Verdana" font-size="14.00" fill="#000000">created_by</text>
<text text-anchor="start" x="691" y="-456.8" font-family="Verdana" font-size="14.00" fill="#000000"> [VARCHAR(64)]</text>
<polygon fill="none" stroke="#000000" points="606,-422 606,-447 816,-447 816,-422 606,-422"/>
<text text-anchor="start" x="611" y="-431.8" font-family="Verdana" font-size="14.00" fill="#000000">status</text>
<text text-anchor="start" x="655" y="-431.8" font-family="Verdana" font-size="14.00" fill="#000000"> [VARCHAR(16)]</text>
<polygon fill="none" stroke="#000000" points="606,-397 606,-422 816,-422 816,-397 606,-397"/>
<text text-anchor="start" x="611" y="-406.8" font-family="Verdana" font-size="14.00" fill="#000000">priority</text>
<text text-anchor="start" x="663" y="-406.8" font-family="Verdana" font-size="14.00" fill="#000000"> [VARCHAR(16)]</text>
<polygon fill="none" stroke="#000000" points="606,-372 606,-397 816,-397 816,-372 606,-372"/>
<text text-anchor="start" x="611" y="-381.8" font-family="Verdana" font-size="14.00" fill="#000000">planned_time</text>
<text text-anchor="start" x="709" y="-381.8" font-family="Verdana" font-size="14.00" fill="#000000"> [FLOAT]</text>
<polygon fill="none" stroke="#000000" points="606,-347 606,-372 816,-372 816,-347 606,-347"/>
<text text-anchor="start" x="611" y="-356.8" font-family="Verdana" font-size="14.00" fill="#000000">project_id</text>
<text text-anchor="start" x="681" y="-356.8" font-family="Verdana" font-size="14.00" fill="#000000"> [VARCHAR]</text>
<polygon fill="none" stroke="#000000" points="606,-322 606,-347 816,-347 816,-322 606,-322"/>
<text text-anchor="start" x="611" y="-331.8" font-family="Verdana" font-size="14.00" fill="#000000">order_id</text>
<text text-anchor="start" x="671" y="-331.8" font-family="Verdana" font-size="14.00" fill="#000000"> [VARCHAR]</text>
<polygon fill="none" stroke="#000000" points="606,-297 606,-322 816,-322 816,-297 606,-297"/>
<text text-anchor="start" x="611" y="-306.8" font-family="Verdana" font-size="14.00" fill="#000000">milestone_id</text>
<text text-anchor="start" x="702" y="-306.8" font-family="Verdana" font-size="14.00" fill="#000000"> [VARCHAR]</text>
<polygon fill="none" stroke="#000000" points="606,-272 606,-297 816,-297 816,-272 606,-272"/>
<text text-anchor="start" x="611" y="-281.8" font-family="Verdana" font-size="14.00" fill="#000000">assignee_id</text>
<text text-anchor="start" x="696" y="-281.8" font-family="Verdana" font-size="14.00" fill="#000000"> [VARCHAR]</text>
<polygon fill="none" stroke="#000000" points="606,-247 606,-272 816,-272 816,-247 606,-247"/>
<text text-anchor="start" x="611" y="-256.8" font-family="Verdana" font-size="14.00" fill="#000000">parent_id</text>
<text text-anchor="start" x="679" y="-256.8" font-family="Verdana" font-size="14.00" fill="#000000"> [VARCHAR]</text>
</g>
<!-- task&#45;&#45;task -->
<g id="edge2" class="edge">
<title>task&#45;&#45;task</title>
<path fill="none" stroke="#7f7f7f" stroke-dasharray="5,2" d="M692.7772,-670.7092C697.2656,-681.885 703.3398,-688.5 711,-688.5 718.6602,-688.5 724.7344,-681.885 729.2228,-670.7092"/>
<text text-anchor="start" x="698.2228" y="-674.5092" font-family="Times,serif" font-size="14.00" fill="#000000">{0,1}</text>
<text text-anchor="start" x="667.7772" y="-674.5092" font-family="Times,serif" font-size="14.00" fill="#000000">0..N</text>
</g>
<!-- followings -->
<g id="node3" class="node">
<title>followings</title>
<polygon fill="none" stroke="#000000" points="938,-753 938,-772 1083,-772 1083,-753 938,-753"/>
<text text-anchor="start" x="985.5" y="-761.6" font-family="Verdana" font-weight="bold" font-size="8.00" fill="#000000">followings</text>
<polygon fill="none" stroke="#000000" points="938,-728 938,-753 1083,-753 1083,-728 938,-728"/>
<text text-anchor="start" x="943" y="-737.8" font-family="Verdana" text-decoration="underline" font-size="14.00" fill="#000000">user_id</text>
<text text-anchor="start" x="995" y="-737.8" font-family="Verdana" font-size="14.00" fill="#000000"> [VARCHAR]</text>
<polygon fill="none" stroke="#000000" points="938,-703 938,-728 1083,-728 1083,-703 938,-703"/>
<text text-anchor="start" x="943" y="-712.8" font-family="Verdana" text-decoration="underline" font-size="14.00" fill="#000000">task_id</text>
<text text-anchor="start" x="994" y="-712.8" font-family="Verdana" font-size="14.00" fill="#000000"> [VARCHAR]</text>
</g>
<!-- task&#45;&#45;followings -->
<g id="edge7" class="edge">
<title>task&#45;&#45;followings</title>
<path fill="none" stroke="#7f7f7f" stroke-dasharray="5,2" d="M824.0038,-584.2703C847.3663,-608.5564 872.3787,-633.1833 897,-655 914.4896,-670.4974 934.7526,-686.0436 953.2496,-699.4227"/>
<text text-anchor="start" x="922.2496" y="-688.2227" font-family="Times,serif" font-size="14.00" fill="#000000">{0,1}</text>
<text text-anchor="start" x="824.0038" y="-573.0703" font-family="Times,serif" font-size="14.00" fill="#000000">0..N</text>
</g>
<!-- work_time -->
<g id="node4" class="node">
<title>work_time</title>
<polygon fill="none" stroke="#000000" points="905,-623 905,-642 1115,-642 1115,-623 905,-623"/>
<text text-anchor="start" x="986" y="-631.6" font-family="Verdana" font-weight="bold" font-size="8.00" fill="#000000">work_time</text>
<polygon fill="none" stroke="#000000" points="905,-598 905,-623 1115,-623 1115,-598 905,-598"/>
<text text-anchor="start" x="910" y="-607.8" font-family="Verdana" font-size="14.00" fill="#000000">date_created</text>
<text text-anchor="start" x="1005" y="-607.8" font-family="Verdana" font-size="14.00" fill="#000000"> [DATETIME]</text>
<polygon fill="none" stroke="#000000" points="905,-573 905,-598 1115,-598 1115,-573 905,-573"/>
<text text-anchor="start" x="910" y="-582.8" font-family="Verdana" font-size="14.00" fill="#000000">date_modified</text>
<text text-anchor="start" x="1013" y="-582.8" font-family="Verdana" font-size="14.00" fill="#000000"> [DATETIME]</text>
<polygon fill="none" stroke="#000000" points="905,-548 905,-573 1115,-573 1115,-548 905,-548"/>
<text text-anchor="start" x="910" y="-557.8" font-family="Verdana" text-decoration="underline" font-size="14.00" fill="#000000">id</text>
<text text-anchor="start" x="923" y="-557.8" font-family="Verdana" font-size="14.00" fill="#000000"> [VARCHAR]</text>
<polygon fill="none" stroke="#000000" points="905,-523 905,-548 1115,-548 1115,-523 905,-523"/>
<text text-anchor="start" x="910" y="-532.8" font-family="Verdana" font-size="14.00" fill="#000000">description</text>
<text text-anchor="start" x="989" y="-532.8" font-family="Verdana" font-size="14.00" fill="#000000"> [VARCHAR(200)]</text>
<polygon fill="none" stroke="#000000" points="905,-498 905,-523 1115,-523 1115,-498 905,-498"/>
<text text-anchor="start" x="910" y="-507.8" font-family="Verdana" font-size="14.00" fill="#000000">task_id</text>
<text text-anchor="start" x="961" y="-507.8" font-family="Verdana" font-size="14.00" fill="#000000"> [VARCHAR]</text>
<polygon fill="none" stroke="#000000" points="905,-473 905,-498 1115,-498 1115,-473 905,-473"/>
<text text-anchor="start" x="910" y="-482.8" font-family="Verdana" font-size="14.00" fill="#000000">user_id</text>
<text text-anchor="start" x="962" y="-482.8" font-family="Verdana" font-size="14.00" fill="#000000"> [VARCHAR]</text>
<polygon fill="none" stroke="#000000" points="905,-448 905,-473 1115,-473 1115,-448 905,-448"/>
<text text-anchor="start" x="910" y="-457.8" font-family="Verdana" font-size="14.00" fill="#000000">duration</text>
<text text-anchor="start" x="971" y="-457.8" font-family="Verdana" font-size="14.00" fill="#000000"> [FLOAT]</text>
</g>
<!-- task&#45;&#45;work_time -->
<g id="edge8" class="edge">
<title>task&#45;&#45;work_time</title>
<path fill="none" stroke="#7f7f7f" stroke-dasharray="5,2" d="M824.0391,-490.269C847.853,-497.2778 872.9813,-504.6734 896.8011,-511.6839"/>
<text text-anchor="start" x="865.8011" y="-500.4839" font-family="Times,serif" font-size="14.00" fill="#000000">{0,1}</text>
<text text-anchor="start" x="824.0391" y="-479.069" font-family="Times,serif" font-size="14.00" fill="#000000">0..N</text>
</g>
<!-- project -->
<g id="node5" class="node">
<title>project</title>
<polygon fill="none" stroke="#000000" points="307,-129 307,-148 517,-148 517,-129 307,-129"/>
<text text-anchor="start" x="395" y="-137.6" font-family="Verdana" font-weight="bold" font-size="8.00" fill="#000000">project</text>
<polygon fill="none" stroke="#000000" points="307,-104 307,-129 517,-129 517,-104 307,-104"/>
<text text-anchor="start" x="312" y="-113.8" font-family="Verdana" font-size="14.00" fill="#000000">date_created</text>
<text text-anchor="start" x="407" y="-113.8" font-family="Verdana" font-size="14.00" fill="#000000"> [DATETIME]</text>
<polygon fill="none" stroke="#000000" points="307,-79 307,-104 517,-104 517,-79 307,-79"/>
<text text-anchor="start" x="312" y="-88.8" font-family="Verdana" font-size="14.00" fill="#000000">date_modified</text>
<text text-anchor="start" x="415" y="-88.8" font-family="Verdana" font-size="14.00" fill="#000000"> [DATETIME]</text>
<polygon fill="none" stroke="#000000" points="307,-54 307,-79 517,-79 517,-54 307,-54"/>
<text text-anchor="start" x="312" y="-63.8" font-family="Verdana" text-decoration="underline" font-size="14.00" fill="#000000">id</text>
<text text-anchor="start" x="325" y="-63.8" font-family="Verdana" font-size="14.00" fill="#000000"> [VARCHAR]</text>
<polygon fill="none" stroke="#000000" points="307,-29 307,-54 517,-54 517,-29 307,-29"/>
<text text-anchor="start" x="312" y="-38.8" font-family="Verdana" font-size="14.00" fill="#000000">description</text>
<text text-anchor="start" x="391" y="-38.8" font-family="Verdana" font-size="14.00" fill="#000000"> [VARCHAR(200)]</text>
<polygon fill="none" stroke="#000000" points="307,-4 307,-29 517,-29 517,-4 307,-4"/>
<text text-anchor="start" x="312" y="-13.8" font-family="Verdana" font-size="14.00" fill="#000000">name</text>
<text text-anchor="start" x="354" y="-13.8" font-family="Verdana" font-size="14.00" fill="#000000"> [VARCHAR(64)]</text>
</g>
<!-- project&#45;&#45;task -->
<g id="edge1" class="edge">
<title>project&#45;&#45;task</title>
<path fill="none" stroke="#7f7f7f" stroke-dasharray="5,2" d="M516.4537,-152.1569C519.4009,-155.0678 522.2585,-158.0183 525,-161 551.085,-189.3704 575.6734,-221.8786 597.9028,-254.7261"/>
<text text-anchor="start" x="566.9028" y="-243.5261" font-family="Times,serif" font-size="14.00" fill="#000000">{0,1}</text>
<text text-anchor="start" x="491.4537" y="-155.9569" font-family="Times,serif" font-size="14.00" fill="#000000">0..N</text>
</g>
<!-- user -->
<g id="node6" class="node">
<title>user</title>
<polygon fill="none" stroke="#000000" points="307,-839 307,-858 517,-858 517,-839 307,-839"/>
<text text-anchor="start" x="401.5" y="-847.6" font-family="Verdana" font-weight="bold" font-size="8.00" fill="#000000">user</text>
<polygon fill="none" stroke="#000000" points="307,-814 307,-839 517,-839 517,-814 307,-814"/>
<text text-anchor="start" x="312" y="-823.8" font-family="Verdana" font-size="14.00" fill="#000000">date_created</text>
<text text-anchor="start" x="407" y="-823.8" font-family="Verdana" font-size="14.00" fill="#000000"> [DATETIME]</text>
<polygon fill="none" stroke="#000000" points="307,-789 307,-814 517,-814 517,-789 307,-789"/>
<text text-anchor="start" x="312" y="-798.8" font-family="Verdana" font-size="14.00" fill="#000000">date_modified</text>
<text text-anchor="start" x="415" y="-798.8" font-family="Verdana" font-size="14.00" fill="#000000"> [DATETIME]</text>
<polygon fill="none" stroke="#000000" points="307,-764 307,-789 517,-789 517,-764 307,-764"/>
<text text-anchor="start" x="312" y="-773.8" font-family="Verdana" text-decoration="underline" font-size="14.00" fill="#000000">id</text>
<text text-anchor="start" x="325" y="-773.8" font-family="Verdana" font-size="14.00" fill="#000000"> [VARCHAR]</text>
<polygon fill="none" stroke="#000000" points="307,-739 307,-764 517,-764 517,-739 307,-739"/>
<text text-anchor="start" x="312" y="-748.8" font-family="Verdana" font-size="14.00" fill="#000000">description</text>
<text text-anchor="start" x="391" y="-748.8" font-family="Verdana" font-size="14.00" fill="#000000"> [VARCHAR(200)]</text>
<polygon fill="none" stroke="#000000" points="307,-714 307,-739 517,-739 517,-714 307,-714"/>
<text text-anchor="start" x="312" y="-723.8" font-family="Verdana" font-size="14.00" fill="#000000">name</text>
<text text-anchor="start" x="354" y="-723.8" font-family="Verdana" font-size="14.00" fill="#000000"> [VARCHAR(64)]</text>
<polygon fill="none" stroke="#000000" points="307,-689 307,-714 517,-714 517,-689 307,-689"/>
<text text-anchor="start" x="312" y="-698.8" font-family="Verdana" font-size="14.00" fill="#000000">email</text>
<text text-anchor="start" x="352" y="-698.8" font-family="Verdana" font-size="14.00" fill="#000000"> [VARCHAR(32)]</text>
<polygon fill="none" stroke="#000000" points="307,-664 307,-689 517,-689 517,-664 307,-664"/>
<text text-anchor="start" x="312" y="-673.8" font-family="Verdana" font-size="14.00" fill="#000000">password</text>
<text text-anchor="start" x="382" y="-673.8" font-family="Verdana" font-size="14.00" fill="#000000"> [VARCHAR(128)]</text>
<polygon fill="none" stroke="#000000" points="307,-639 307,-664 517,-664 517,-639 307,-639"/>
<text text-anchor="start" x="312" y="-648.8" font-family="Verdana" font-size="14.00" fill="#000000">role</text>
<text text-anchor="start" x="340" y="-648.8" font-family="Verdana" font-size="14.00" fill="#000000"> [VARCHAR(32)]</text>
<polygon fill="none" stroke="#000000" points="307,-614 307,-639 517,-639 517,-614 307,-614"/>
<text text-anchor="start" x="312" y="-623.8" font-family="Verdana" font-size="14.00" fill="#000000">cost_per_hour</text>
<text text-anchor="start" x="414" y="-623.8" font-family="Verdana" font-size="14.00" fill="#000000"> [FLOAT]</text>
</g>
<!-- user&#45;&#45;task -->
<g id="edge4" class="edge">
<title>user&#45;&#45;task</title>
<path fill="none" stroke="#7f7f7f" stroke-dasharray="5,2" d="M525.0391,-630.5221C548.853,-608.3011 573.9813,-584.8535 597.8011,-562.6271"/>
<text text-anchor="start" x="566.8011" y="-551.4271" font-family="Times,serif" font-size="14.00" fill="#000000">{0,1}</text>
<text text-anchor="start" x="525.0391" y="-619.3221" font-family="Times,serif" font-size="14.00" fill="#000000">0..N</text>
</g>
<!-- user&#45;&#45;followings -->
<g id="edge6" class="edge">
<title>user&#45;&#45;followings</title>
<path fill="none" stroke="#7f7f7f" stroke-dasharray="5,2" d="M525.1823,-736.3785C643.1866,-736.7732 825.1661,-737.3818 929.3577,-737.7303"/>
<text text-anchor="start" x="898.3577" y="-726.5303" font-family="Times,serif" font-size="14.00" fill="#000000">{0,1}</text>
<text text-anchor="start" x="525.1823" y="-740.1785" font-family="Times,serif" font-size="14.00" fill="#000000">0..N</text>
</g>
<!-- user&#45;&#45;work_time -->
<g id="edge9" class="edge">
<title>user&#45;&#45;work_time</title>
<path fill="none" stroke="#7f7f7f" stroke-dasharray="5,2" d="M525.3015,-732.9881C628.2503,-728.9099 771.7671,-719.4807 824,-698 854.163,-685.5955 883.2126,-666.5463 909.0272,-646.0531"/>
<text text-anchor="start" x="878.0272" y="-649.8531" font-family="Times,serif" font-size="14.00" fill="#000000">{0,1}</text>
<text text-anchor="start" x="525.3015" y="-721.7881" font-family="Times,serif" font-size="14.00" fill="#000000">0..N</text>
</g>
<!-- milestone -->
<g id="node7" class="node">
<title>milestone</title>
<polygon fill="none" stroke="#000000" points="312,-569 312,-588 513,-588 513,-569 312,-569"/>
<text text-anchor="start" x="389.5" y="-577.6" font-family="Verdana" font-weight="bold" font-size="8.00" fill="#000000">milestone</text>
<polygon fill="none" stroke="#000000" points="312,-544 312,-569 513,-569 513,-544 312,-544"/>
<text text-anchor="start" x="317" y="-553.8" font-family="Verdana" font-size="14.00" fill="#000000">date_created</text>
<text text-anchor="start" x="412" y="-553.8" font-family="Verdana" font-size="14.00" fill="#000000"> [DATETIME]</text>
<polygon fill="none" stroke="#000000" points="312,-519 312,-544 513,-544 513,-519 312,-519"/>
<text text-anchor="start" x="317" y="-528.8" font-family="Verdana" font-size="14.00" fill="#000000">date_modified</text>
<text text-anchor="start" x="420" y="-528.8" font-family="Verdana" font-size="14.00" fill="#000000"> [DATETIME]</text>
<polygon fill="none" stroke="#000000" points="312,-494 312,-519 513,-519 513,-494 312,-494"/>
<text text-anchor="start" x="317" y="-503.8" font-family="Verdana" text-decoration="underline" font-size="14.00" fill="#000000">id</text>
<text text-anchor="start" x="330" y="-503.8" font-family="Verdana" font-size="14.00" fill="#000000"> [VARCHAR]</text>
<polygon fill="none" stroke="#000000" points="312,-469 312,-494 513,-494 513,-469 312,-469"/>
<text text-anchor="start" x="317" y="-478.8" font-family="Verdana" font-size="14.00" fill="#000000">description</text>
<text text-anchor="start" x="396" y="-478.8" font-family="Verdana" font-size="14.00" fill="#000000"> [TEXT(200)]</text>
<polygon fill="none" stroke="#000000" points="312,-444 312,-469 513,-469 513,-444 312,-444"/>
<text text-anchor="start" x="317" y="-453.8" font-family="Verdana" font-size="14.00" fill="#000000">name</text>
<text text-anchor="start" x="359" y="-453.8" font-family="Verdana" font-size="14.00" fill="#000000"> [TEXT(64)]</text>
<polygon fill="none" stroke="#000000" points="312,-419 312,-444 513,-444 513,-419 312,-419"/>
<text text-anchor="start" x="317" y="-428.8" font-family="Verdana" font-size="14.00" fill="#000000">due_date</text>
<text text-anchor="start" x="384" y="-428.8" font-family="Verdana" font-size="14.00" fill="#000000"> [DATETIME]</text>
<polygon fill="none" stroke="#000000" points="312,-394 312,-419 513,-419 513,-394 312,-394"/>
<text text-anchor="start" x="317" y="-403.8" font-family="Verdana" font-size="14.00" fill="#000000">start_date</text>
<text text-anchor="start" x="390" y="-403.8" font-family="Verdana" font-size="14.00" fill="#000000"> [DATETIME]</text>
</g>
<!-- milestone&#45;&#45;task -->
<g id="edge5" class="edge">
<title>milestone&#45;&#45;task</title>
<path fill="none" stroke="#7f7f7f" stroke-dasharray="5,2" d="M520.7917,-478.629C545.838,-475.781 572.5345,-472.7452 597.7644,-469.8763"/>
<text text-anchor="start" x="566.7644" y="-458.6763" font-family="Times,serif" font-size="14.00" fill="#000000">{0,1}</text>
<text text-anchor="start" x="520.7917" y="-467.429" font-family="Times,serif" font-size="14.00" fill="#000000">0..N</text>
</g>
<!-- order&#45;&#45;task -->
<g id="edge3" class="edge">
<title>order&#45;&#45;task</title>
<path fill="none" stroke="#7f7f7f" stroke-dasharray="5,2" d="M525.0391,-341.3186C548.853,-356.1326 573.9813,-371.7643 597.8011,-386.5819"/>
<text text-anchor="start" x="566.8011" y="-375.3819" font-family="Times,serif" font-size="14.00" fill="#000000">{0,1}</text>
<text text-anchor="start" x="525.0391" y="-330.1186" font-family="Times,serif" font-size="14.00" fill="#000000">0..N</text>
</g>
</g>
</svg>
