<?xml version="1.0" encoding="UTF-8" standalone="no"?>
<!DOCTYPE svg PUBLIC "-//W3C//DTD SVG 1.1//EN"
 "http://www.w3.org/Graphics/SVG/1.1/DTD/svg11.dtd">
<!-- Generated by graphviz version 2.40.1 (20161225.0304)
 -->
<!-- Title: %3 Pages: 1 -->
<svg width="800pt" height="743pt"
 viewBox="0.00 0.00 800.00 743.00" xmlns="http://www.w3.org/2000/svg" xmlns:xlink="http://www.w3.org/1999/xlink">
<g id="graph0" class="graph" transform="scale(1 1) rotate(0) translate(4 739)">
<title>%3</title>
<polygon fill="#ffffff" stroke="transparent" points="-4,4 -4,-739 796,-739 796,4 -4,4"/>
<!-- customer -->
<g id="node1" class="node">
<title>customer</title>
<polygon fill="none" stroke="#000000" points="8.5,-553.5 8.5,-581.5 137.5,-581.5 137.5,-553.5 8.5,-553.5"/>
<text text-anchor="start" x="31.5" y="-564.7" font-family="Verdana" font-weight="bold" font-size="16.00" fill="#000000">customer</text>
<polygon fill="none" stroke="#000000" points="8.5,-534.5 8.5,-553.5 137.5,-553.5 137.5,-534.5 8.5,-534.5"/>
<text text-anchor="start" x="13.5" y="-543.1" font-family="Verdana" font-size="8.00" fill="#000000">date_created</text>
<text text-anchor="start" x="69.5" y="-543.1" font-family="Verdana" font-size="8.00" fill="#000000"> [DATETIME]</text>
<polygon fill="none" stroke="#000000" points="8.5,-515.5 8.5,-534.5 137.5,-534.5 137.5,-515.5 8.5,-515.5"/>
<text text-anchor="start" x="13.5" y="-524.1" font-family="Verdana" font-size="8.00" fill="#000000">date_modified</text>
<text text-anchor="start" x="74.5" y="-524.1" font-family="Verdana" font-size="8.00" fill="#000000"> [DATETIME]</text>
<polygon fill="none" stroke="#000000" points="8.5,-496.5 8.5,-515.5 137.5,-515.5 137.5,-496.5 8.5,-496.5"/>
<text text-anchor="start" x="13.5" y="-505.1" font-family="Verdana" text-decoration="underline" font-size="8.00" fill="#000000">id</text>
<text text-anchor="start" x="21.5" y="-505.1" font-family="Verdana" font-size="8.00" fill="#000000"> [VARCHAR]</text>
<polygon fill="none" stroke="#000000" points="8.5,-477.5 8.5,-496.5 137.5,-496.5 137.5,-477.5 8.5,-477.5"/>
<text text-anchor="start" x="13.5" y="-486.1" font-family="Verdana" font-size="8.00" fill="#000000">description</text>
<text text-anchor="start" x="60.5" y="-486.1" font-family="Verdana" font-size="8.00" fill="#000000"> [VARCHAR(200)]</text>
<polygon fill="none" stroke="#000000" points="8.5,-458.5 8.5,-477.5 137.5,-477.5 137.5,-458.5 8.5,-458.5"/>
<text text-anchor="start" x="13.5" y="-467.1" font-family="Verdana" font-size="8.00" fill="#000000">name</text>
<text text-anchor="start" x="38.5" y="-467.1" font-family="Verdana" font-size="8.00" fill="#000000"> [VARCHAR(64)]</text>
</g>
<!-- order -->
<g id="node9" class="node">
<title>order</title>
<polygon fill="none" stroke="#000000" points="226.5,-572.5 226.5,-600.5 355.5,-600.5 355.5,-572.5 226.5,-572.5"/>
<text text-anchor="start" x="267" y="-583.7" font-family="Verdana" font-weight="bold" font-size="16.00" fill="#000000">order</text>
<polygon fill="none" stroke="#000000" points="226.5,-553.5 226.5,-572.5 355.5,-572.5 355.5,-553.5 226.5,-553.5"/>
<text text-anchor="start" x="231.5" y="-562.1" font-family="Verdana" font-size="8.00" fill="#000000">date_created</text>
<text text-anchor="start" x="287.5" y="-562.1" font-family="Verdana" font-size="8.00" fill="#000000"> [DATETIME]</text>
<polygon fill="none" stroke="#000000" points="226.5,-534.5 226.5,-553.5 355.5,-553.5 355.5,-534.5 226.5,-534.5"/>
<text text-anchor="start" x="231.5" y="-543.1" font-family="Verdana" font-size="8.00" fill="#000000">date_modified</text>
<text text-anchor="start" x="292.5" y="-543.1" font-family="Verdana" font-size="8.00" fill="#000000"> [DATETIME]</text>
<polygon fill="none" stroke="#000000" points="226.5,-515.5 226.5,-534.5 355.5,-534.5 355.5,-515.5 226.5,-515.5"/>
<text text-anchor="start" x="231.5" y="-524.1" font-family="Verdana" text-decoration="underline" font-size="8.00" fill="#000000">id</text>
<text text-anchor="start" x="239.5" y="-524.1" font-family="Verdana" font-size="8.00" fill="#000000"> [VARCHAR]</text>
<polygon fill="none" stroke="#000000" points="226.5,-496.5 226.5,-515.5 355.5,-515.5 355.5,-496.5 226.5,-496.5"/>
<text text-anchor="start" x="231.5" y="-505.1" font-family="Verdana" font-size="8.00" fill="#000000">description</text>
<text text-anchor="start" x="278.5" y="-505.1" font-family="Verdana" font-size="8.00" fill="#000000"> [VARCHAR(200)]</text>
<polygon fill="none" stroke="#000000" points="226.5,-477.5 226.5,-496.5 355.5,-496.5 355.5,-477.5 226.5,-477.5"/>
<text text-anchor="start" x="231.5" y="-486.1" font-family="Verdana" font-size="8.00" fill="#000000">name</text>
<text text-anchor="start" x="256.5" y="-486.1" font-family="Verdana" font-size="8.00" fill="#000000"> [VARCHAR(64)]</text>
<polygon fill="none" stroke="#000000" points="226.5,-458.5 226.5,-477.5 355.5,-477.5 355.5,-458.5 226.5,-458.5"/>
<text text-anchor="start" x="231.5" y="-467.1" font-family="Verdana" font-size="8.00" fill="#000000">customer_id</text>
<text text-anchor="start" x="283.5" y="-467.1" font-family="Verdana" font-size="8.00" fill="#000000"> [VARCHAR]</text>
<polygon fill="none" stroke="#000000" points="226.5,-439.5 226.5,-458.5 355.5,-458.5 355.5,-439.5 226.5,-439.5"/>
<text text-anchor="start" x="231.5" y="-448.1" font-family="Verdana" font-size="8.00" fill="#000000">amount</text>
<text text-anchor="start" x="264.5" y="-448.1" font-family="Verdana" font-size="8.00" fill="#000000"> [FLOAT]</text>
</g>
<!-- customer&#45;&#45;order -->
<g id="edge12" class="edge">
<title>customer&#45;&#45;order</title>
<path fill="none" stroke="#7f7f7f" stroke-dasharray="5,2" d="M145.0908,-520.5C168.5004,-520.5 194.4413,-520.5 217.8547,-520.5"/>
<text text-anchor="start" x="192.8547" y="-514.1" font-family="Verdana" font-size="8.00" fill="#000000">{0,1}</text>
<text text-anchor="start" x="145.0908" y="-514.1" font-family="Verdana" font-size="8.00" fill="#000000">0..N</text>
</g>
<!-- task -->
<g id="node2" class="node">
<title>task</title>
<polygon fill="none" stroke="#000000" points="444,-485.5 444,-513.5 566,-513.5 566,-485.5 444,-485.5"/>
<text text-anchor="start" x="485.5" y="-496.7" font-family="Verdana" font-weight="bold" font-size="16.00" fill="#000000">task</text>
<polygon fill="none" stroke="#000000" points="444,-466.5 444,-485.5 566,-485.5 566,-466.5 444,-466.5"/>
<text text-anchor="start" x="449" y="-475.1" font-family="Verdana" font-size="8.00" fill="#000000">date_created</text>
<text text-anchor="start" x="505" y="-475.1" font-family="Verdana" font-size="8.00" fill="#000000"> [DATETIME]</text>
<polygon fill="none" stroke="#000000" points="444,-447.5 444,-466.5 566,-466.5 566,-447.5 444,-447.5"/>
<text text-anchor="start" x="449" y="-456.1" font-family="Verdana" font-size="8.00" fill="#000000">date_modified</text>
<text text-anchor="start" x="510" y="-456.1" font-family="Verdana" font-size="8.00" fill="#000000"> [DATETIME]</text>
<polygon fill="none" stroke="#000000" points="444,-428.5 444,-447.5 566,-447.5 566,-428.5 444,-428.5"/>
<text text-anchor="start" x="449" y="-437.1" font-family="Verdana" font-size="8.00" fill="#000000">description</text>
<text text-anchor="start" x="496" y="-437.1" font-family="Verdana" font-size="8.00" fill="#000000"> [NUMERIC]</text>
<polygon fill="none" stroke="#000000" points="444,-409.5 444,-428.5 566,-428.5 566,-409.5 444,-409.5"/>
<text text-anchor="start" x="449" y="-418.1" font-family="Verdana" font-size="8.00" fill="#000000">name</text>
<text text-anchor="start" x="474" y="-418.1" font-family="Verdana" font-size="8.00" fill="#000000"> [TEXT(64)]</text>
<polygon fill="none" stroke="#000000" points="444,-390.5 444,-409.5 566,-409.5 566,-390.5 444,-390.5"/>
<text text-anchor="start" x="449" y="-399.1" font-family="Verdana" text-decoration="underline" font-size="8.00" fill="#000000">id</text>
<text text-anchor="start" x="457" y="-399.1" font-family="Verdana" font-size="8.00" fill="#000000"> [VARCHAR]</text>
<polygon fill="none" stroke="#000000" points="444,-371.5 444,-390.5 566,-390.5 566,-371.5 444,-371.5"/>
<text text-anchor="start" x="449" y="-380.1" font-family="Verdana" font-size="8.00" fill="#000000">content</text>
<text text-anchor="start" x="481" y="-380.1" font-family="Verdana" font-size="8.00" fill="#000000"> [TEXT(1024)]</text>
<polygon fill="none" stroke="#000000" points="444,-352.5 444,-371.5 566,-371.5 566,-352.5 444,-352.5"/>
<text text-anchor="start" x="449" y="-361.1" font-family="Verdana" font-size="8.00" fill="#000000">department</text>
<text text-anchor="start" x="499" y="-361.1" font-family="Verdana" font-size="8.00" fill="#000000"> [TEXT(16)]</text>
<polygon fill="none" stroke="#000000" points="444,-333.5 444,-352.5 566,-352.5 566,-333.5 444,-333.5"/>
<text text-anchor="start" x="449" y="-342.1" font-family="Verdana" font-size="8.00" fill="#000000">created_by</text>
<text text-anchor="start" x="497" y="-342.1" font-family="Verdana" font-size="8.00" fill="#000000"> [TEXT(64)]</text>
<polygon fill="none" stroke="#000000" points="444,-314.5 444,-333.5 566,-333.5 566,-314.5 444,-314.5"/>
<text text-anchor="start" x="449" y="-323.1" font-family="Verdana" font-size="8.00" fill="#000000">status</text>
<text text-anchor="start" x="475" y="-323.1" font-family="Verdana" font-size="8.00" fill="#000000"> [TEXT(16)]</text>
<polygon fill="none" stroke="#000000" points="444,-295.5 444,-314.5 566,-314.5 566,-295.5 444,-295.5"/>
<text text-anchor="start" x="449" y="-304.1" font-family="Verdana" font-size="8.00" fill="#000000">priority</text>
<text text-anchor="start" x="480" y="-304.1" font-family="Verdana" font-size="8.00" fill="#000000"> [TEXT(16)]</text>
<polygon fill="none" stroke="#000000" points="444,-276.5 444,-295.5 566,-295.5 566,-276.5 444,-276.5"/>
<text text-anchor="start" x="449" y="-285.1" font-family="Verdana" font-size="8.00" fill="#000000">planned_time</text>
<text text-anchor="start" x="507" y="-285.1" font-family="Verdana" font-size="8.00" fill="#000000"> [FLOAT]</text>
<polygon fill="none" stroke="#000000" points="444,-257.5 444,-276.5 566,-276.5 566,-257.5 444,-257.5"/>
<text text-anchor="start" x="449" y="-266.1" font-family="Verdana" font-size="8.00" fill="#000000">order_id</text>
<text text-anchor="start" x="485" y="-266.1" font-family="Verdana" font-size="8.00" fill="#000000"> [VARCHAR]</text>
<polygon fill="none" stroke="#000000" points="444,-238.5 444,-257.5 566,-257.5 566,-238.5 444,-238.5"/>
<text text-anchor="start" x="449" y="-247.1" font-family="Verdana" font-size="8.00" fill="#000000">milestone_id</text>
<text text-anchor="start" x="503" y="-247.1" font-family="Verdana" font-size="8.00" fill="#000000"> [VARCHAR]</text>
<polygon fill="none" stroke="#000000" points="444,-219.5 444,-238.5 566,-238.5 566,-219.5 444,-219.5"/>
<text text-anchor="start" x="449" y="-228.1" font-family="Verdana" font-size="8.00" fill="#000000">assignee_id</text>
<text text-anchor="start" x="499" y="-228.1" font-family="Verdana" font-size="8.00" fill="#000000"> [VARCHAR]</text>
<polygon fill="none" stroke="#000000" points="444,-200.5 444,-219.5 566,-219.5 566,-200.5 444,-200.5"/>
<text text-anchor="start" x="449" y="-209.1" font-family="Verdana" font-size="8.00" fill="#000000">parent_id</text>
<text text-anchor="start" x="489" y="-209.1" font-family="Verdana" font-size="8.00" fill="#000000"> [NUMERIC]</text>
<polygon fill="none" stroke="#000000" points="444,-181.5 444,-200.5 566,-200.5 566,-181.5 444,-181.5"/>
<text text-anchor="start" x="449" y="-190.1" font-family="Verdana" font-size="8.00" fill="#000000">category</text>
<text text-anchor="start" x="487" y="-190.1" font-family="Verdana" font-size="8.00" fill="#000000"> [TEXT(16)]</text>
</g>
<!-- task&#45;&#45;task -->
<g id="edge1" class="edge">
<title>task&#45;&#45;task</title>
<path fill="none" stroke="#7f7f7f" stroke-dasharray="5,2" d="M491.0846,-517.5489C494.3186,-528.7295 498.957,-535.5 505,-535.5 511.043,-535.5 515.6814,-528.7295 518.9154,-517.5489"/>
<text text-anchor="start" x="493.9154" y="-520.1489" font-family="Verdana" font-size="8.00" fill="#000000">{0,1}</text>
<text text-anchor="start" x="473.0846" y="-520.1489" font-family="Verdana" font-size="8.00" fill="#000000">0..N</text>
</g>
<!-- followings -->
<g id="node3" class="node">
<title>followings</title>
<polygon fill="none" stroke="#000000" points="669.5,-42.5 669.5,-70.5 770.5,-70.5 770.5,-42.5 669.5,-42.5"/>
<text text-anchor="start" x="674.5" y="-53.7" font-family="Verdana" font-weight="bold" font-size="16.00" fill="#000000">followings</text>
<polygon fill="none" stroke="#000000" points="669.5,-23.5 669.5,-42.5 770.5,-42.5 770.5,-23.5 669.5,-23.5"/>
<text text-anchor="start" x="674.5" y="-32.1" font-family="Verdana" text-decoration="underline" font-size="8.00" fill="#000000">user_id</text>
<text text-anchor="start" x="705.5" y="-32.1" font-family="Verdana" font-size="8.00" fill="#000000"> [VARCHAR]</text>
<polygon fill="none" stroke="#000000" points="669.5,-4.5 669.5,-23.5 770.5,-23.5 770.5,-4.5 669.5,-4.5"/>
<text text-anchor="start" x="674.5" y="-13.1" font-family="Verdana" text-decoration="underline" font-size="8.00" fill="#000000">task_id</text>
<text text-anchor="start" x="704.5" y="-13.1" font-family="Verdana" font-size="8.00" fill="#000000"> [VARCHAR]</text>
</g>
<!-- task&#45;&#45;followings -->
<g id="edge6" class="edge">
<title>task&#45;&#45;followings</title>
<path fill="none" stroke="#7f7f7f" stroke-dasharray="5,2" d="M574.0383,-187.6041C594.2873,-150.9573 618.7259,-113.8837 647,-83.5 651.1635,-79.0258 655.853,-74.8049 660.7932,-70.8709"/>
<text text-anchor="start" x="635.7932" y="-64.4709" font-family="Verdana" font-size="8.00" fill="#000000">{0,1}</text>
<text text-anchor="start" x="574.0383" y="-181.2041" font-family="Verdana" font-size="8.00" fill="#000000">0..N</text>
</g>
<!-- work_time -->
<g id="node4" class="node">
<title>work_time</title>
<polygon fill="none" stroke="#000000" points="655.5,-396.5 655.5,-424.5 784.5,-424.5 784.5,-396.5 655.5,-396.5"/>
<text text-anchor="start" x="674.5" y="-407.7" font-family="Verdana" font-weight="bold" font-size="16.00" fill="#000000">work_time</text>
<polygon fill="none" stroke="#000000" points="655.5,-377.5 655.5,-396.5 784.5,-396.5 784.5,-377.5 655.5,-377.5"/>
<text text-anchor="start" x="660.5" y="-386.1" font-family="Verdana" font-size="8.00" fill="#000000">date_created</text>
<text text-anchor="start" x="716.5" y="-386.1" font-family="Verdana" font-size="8.00" fill="#000000"> [DATETIME]</text>
<polygon fill="none" stroke="#000000" points="655.5,-358.5 655.5,-377.5 784.5,-377.5 784.5,-358.5 655.5,-358.5"/>
<text text-anchor="start" x="660.5" y="-367.1" font-family="Verdana" font-size="8.00" fill="#000000">date_modified</text>
<text text-anchor="start" x="721.5" y="-367.1" font-family="Verdana" font-size="8.00" fill="#000000"> [DATETIME]</text>
<polygon fill="none" stroke="#000000" points="655.5,-339.5 655.5,-358.5 784.5,-358.5 784.5,-339.5 655.5,-339.5"/>
<text text-anchor="start" x="660.5" y="-348.1" font-family="Verdana" text-decoration="underline" font-size="8.00" fill="#000000">id</text>
<text text-anchor="start" x="668.5" y="-348.1" font-family="Verdana" font-size="8.00" fill="#000000"> [VARCHAR]</text>
<polygon fill="none" stroke="#000000" points="655.5,-320.5 655.5,-339.5 784.5,-339.5 784.5,-320.5 655.5,-320.5"/>
<text text-anchor="start" x="660.5" y="-329.1" font-family="Verdana" font-size="8.00" fill="#000000">description</text>
<text text-anchor="start" x="707.5" y="-329.1" font-family="Verdana" font-size="8.00" fill="#000000"> [VARCHAR(200)]</text>
<polygon fill="none" stroke="#000000" points="655.5,-301.5 655.5,-320.5 784.5,-320.5 784.5,-301.5 655.5,-301.5"/>
<text text-anchor="start" x="660.5" y="-310.1" font-family="Verdana" font-size="8.00" fill="#000000">task_id</text>
<text text-anchor="start" x="690.5" y="-310.1" font-family="Verdana" font-size="8.00" fill="#000000"> [VARCHAR]</text>
<polygon fill="none" stroke="#000000" points="655.5,-282.5 655.5,-301.5 784.5,-301.5 784.5,-282.5 655.5,-282.5"/>
<text text-anchor="start" x="660.5" y="-291.1" font-family="Verdana" font-size="8.00" fill="#000000">user_id</text>
<text text-anchor="start" x="691.5" y="-291.1" font-family="Verdana" font-size="8.00" fill="#000000"> [VARCHAR]</text>
<polygon fill="none" stroke="#000000" points="655.5,-263.5 655.5,-282.5 784.5,-282.5 784.5,-263.5 655.5,-263.5"/>
<text text-anchor="start" x="660.5" y="-272.1" font-family="Verdana" font-size="8.00" fill="#000000">duration</text>
<text text-anchor="start" x="696.5" y="-272.1" font-family="Verdana" font-size="8.00" fill="#000000"> [FLOAT]</text>
</g>
<!-- task&#45;&#45;work_time -->
<g id="edge7" class="edge">
<title>task&#45;&#45;work_time</title>
<path fill="none" stroke="#7f7f7f" stroke-dasharray="5,2" d="M574.0499,-346.5343C597.3194,-346.2088 623.3485,-345.8448 646.8848,-345.5156"/>
<text text-anchor="start" x="621.8848" y="-339.1156" font-family="Verdana" font-size="8.00" fill="#000000">{0,1}</text>
<text text-anchor="start" x="574.0499" y="-340.1343" font-family="Verdana" font-size="8.00" fill="#000000">0..N</text>
</g>
<!-- attachment -->
<g id="node6" class="node">
<title>attachment</title>
<polygon fill="none" stroke="#000000" points="655.5,-564.5 655.5,-592.5 784.5,-592.5 784.5,-564.5 655.5,-564.5"/>
<text text-anchor="start" x="668.5" y="-575.7" font-family="Verdana" font-weight="bold" font-size="16.00" fill="#000000">attachment</text>
<polygon fill="none" stroke="#000000" points="655.5,-545.5 655.5,-564.5 784.5,-564.5 784.5,-545.5 655.5,-545.5"/>
<text text-anchor="start" x="660.5" y="-554.1" font-family="Verdana" font-size="8.00" fill="#000000">date_created</text>
<text text-anchor="start" x="716.5" y="-554.1" font-family="Verdana" font-size="8.00" fill="#000000"> [DATETIME]</text>
<polygon fill="none" stroke="#000000" points="655.5,-526.5 655.5,-545.5 784.5,-545.5 784.5,-526.5 655.5,-526.5"/>
<text text-anchor="start" x="660.5" y="-535.1" font-family="Verdana" font-size="8.00" fill="#000000">date_modified</text>
<text text-anchor="start" x="721.5" y="-535.1" font-family="Verdana" font-size="8.00" fill="#000000"> [DATETIME]</text>
<polygon fill="none" stroke="#000000" points="655.5,-507.5 655.5,-526.5 784.5,-526.5 784.5,-507.5 655.5,-507.5"/>
<text text-anchor="start" x="660.5" y="-516.1" font-family="Verdana" text-decoration="underline" font-size="8.00" fill="#000000">id</text>
<text text-anchor="start" x="668.5" y="-516.1" font-family="Verdana" font-size="8.00" fill="#000000"> [VARCHAR]</text>
<polygon fill="none" stroke="#000000" points="655.5,-488.5 655.5,-507.5 784.5,-507.5 784.5,-488.5 655.5,-488.5"/>
<text text-anchor="start" x="660.5" y="-497.1" font-family="Verdana" font-size="8.00" fill="#000000">description</text>
<text text-anchor="start" x="707.5" y="-497.1" font-family="Verdana" font-size="8.00" fill="#000000"> [VARCHAR(200)]</text>
<polygon fill="none" stroke="#000000" points="655.5,-469.5 655.5,-488.5 784.5,-488.5 784.5,-469.5 655.5,-469.5"/>
<text text-anchor="start" x="660.5" y="-478.1" font-family="Verdana" font-size="8.00" fill="#000000">name</text>
<text text-anchor="start" x="685.5" y="-478.1" font-family="Verdana" font-size="8.00" fill="#000000"> [VARCHAR(64)]</text>
<polygon fill="none" stroke="#000000" points="655.5,-450.5 655.5,-469.5 784.5,-469.5 784.5,-450.5 655.5,-450.5"/>
<text text-anchor="start" x="660.5" y="-459.1" font-family="Verdana" font-size="8.00" fill="#000000">attached_id</text>
<text text-anchor="start" x="709.5" y="-459.1" font-family="Verdana" font-size="8.00" fill="#000000"> [VARCHAR]</text>
</g>
<!-- task&#45;&#45;attachment -->
<g id="edge9" class="edge">
<title>task&#45;&#45;attachment</title>
<path fill="none" stroke="#7f7f7f" stroke-dasharray="5,2" d="M574.0499,-403.5125C597.3194,-422.3884 623.3485,-443.503 646.8848,-462.5953"/>
<text text-anchor="start" x="621.8848" y="-456.1953" font-family="Verdana" font-size="8.00" fill="#000000">{0,1}</text>
<text text-anchor="start" x="574.0499" y="-397.1125" font-family="Verdana" font-size="8.00" fill="#000000">0..N</text>
</g>
<!-- history -->
<g id="node8" class="node">
<title>history</title>
<polygon fill="none" stroke="#000000" points="655.5,-210.5 655.5,-238.5 784.5,-238.5 784.5,-210.5 655.5,-210.5"/>
<text text-anchor="start" x="688.5" y="-221.7" font-family="Verdana" font-weight="bold" font-size="16.00" fill="#000000">history</text>
<polygon fill="none" stroke="#000000" points="655.5,-191.5 655.5,-210.5 784.5,-210.5 784.5,-191.5 655.5,-191.5"/>
<text text-anchor="start" x="660.5" y="-200.1" font-family="Verdana" font-size="8.00" fill="#000000">date_created</text>
<text text-anchor="start" x="716.5" y="-200.1" font-family="Verdana" font-size="8.00" fill="#000000"> [DATETIME]</text>
<polygon fill="none" stroke="#000000" points="655.5,-172.5 655.5,-191.5 784.5,-191.5 784.5,-172.5 655.5,-172.5"/>
<text text-anchor="start" x="660.5" y="-181.1" font-family="Verdana" font-size="8.00" fill="#000000">date_modified</text>
<text text-anchor="start" x="721.5" y="-181.1" font-family="Verdana" font-size="8.00" fill="#000000"> [DATETIME]</text>
<polygon fill="none" stroke="#000000" points="655.5,-153.5 655.5,-172.5 784.5,-172.5 784.5,-153.5 655.5,-153.5"/>
<text text-anchor="start" x="660.5" y="-162.1" font-family="Verdana" text-decoration="underline" font-size="8.00" fill="#000000">id</text>
<text text-anchor="start" x="668.5" y="-162.1" font-family="Verdana" font-size="8.00" fill="#000000"> [VARCHAR]</text>
<polygon fill="none" stroke="#000000" points="655.5,-134.5 655.5,-153.5 784.5,-153.5 784.5,-134.5 655.5,-134.5"/>
<text text-anchor="start" x="660.5" y="-143.1" font-family="Verdana" font-size="8.00" fill="#000000">description</text>
<text text-anchor="start" x="707.5" y="-143.1" font-family="Verdana" font-size="8.00" fill="#000000"> [VARCHAR(200)]</text>
<polygon fill="none" stroke="#000000" points="655.5,-115.5 655.5,-134.5 784.5,-134.5 784.5,-115.5 655.5,-115.5"/>
<text text-anchor="start" x="660.5" y="-124.1" font-family="Verdana" font-size="8.00" fill="#000000">task_id</text>
<text text-anchor="start" x="690.5" y="-124.1" font-family="Verdana" font-size="8.00" fill="#000000"> [VARCHAR]</text>
<polygon fill="none" stroke="#000000" points="655.5,-96.5 655.5,-115.5 784.5,-115.5 784.5,-96.5 655.5,-96.5"/>
<text text-anchor="start" x="660.5" y="-105.1" font-family="Verdana" font-size="8.00" fill="#000000">user_id</text>
<text text-anchor="start" x="691.5" y="-105.1" font-family="Verdana" font-size="8.00" fill="#000000"> [VARCHAR]</text>
</g>
<!-- task&#45;&#45;history -->
<g id="edge10" class="edge">
<title>task&#45;&#45;history</title>
<path fill="none" stroke="#7f7f7f" stroke-dasharray="5,2" d="M574.0499,-289.5561C597.3194,-270.0292 623.3485,-248.1865 646.8848,-228.4359"/>
<text text-anchor="start" x="621.8848" y="-222.0359" font-family="Verdana" font-size="8.00" fill="#000000">{0,1}</text>
<text text-anchor="start" x="574.0499" y="-283.1561" font-family="Verdana" font-size="8.00" fill="#000000">0..N</text>
</g>
<!-- project -->
<g id="node5" class="node">
<title>project</title>
<polygon fill="none" stroke="#000000" points="8.5,-702.5 8.5,-730.5 137.5,-730.5 137.5,-702.5 8.5,-702.5"/>
<text text-anchor="start" x="42" y="-713.7" font-family="Verdana" font-weight="bold" font-size="16.00" fill="#000000">project</text>
<polygon fill="none" stroke="#000000" points="8.5,-683.5 8.5,-702.5 137.5,-702.5 137.5,-683.5 8.5,-683.5"/>
<text text-anchor="start" x="13.5" y="-692.1" font-family="Verdana" font-size="8.00" fill="#000000">date_created</text>
<text text-anchor="start" x="69.5" y="-692.1" font-family="Verdana" font-size="8.00" fill="#000000"> [DATETIME]</text>
<polygon fill="none" stroke="#000000" points="8.5,-664.5 8.5,-683.5 137.5,-683.5 137.5,-664.5 8.5,-664.5"/>
<text text-anchor="start" x="13.5" y="-673.1" font-family="Verdana" font-size="8.00" fill="#000000">date_modified</text>
<text text-anchor="start" x="74.5" y="-673.1" font-family="Verdana" font-size="8.00" fill="#000000"> [DATETIME]</text>
<polygon fill="none" stroke="#000000" points="8.5,-645.5 8.5,-664.5 137.5,-664.5 137.5,-645.5 8.5,-645.5"/>
<text text-anchor="start" x="13.5" y="-654.1" font-family="Verdana" text-decoration="underline" font-size="8.00" fill="#000000">id</text>
<text text-anchor="start" x="21.5" y="-654.1" font-family="Verdana" font-size="8.00" fill="#000000"> [VARCHAR]</text>
<polygon fill="none" stroke="#000000" points="8.5,-626.5 8.5,-645.5 137.5,-645.5 137.5,-626.5 8.5,-626.5"/>
<text text-anchor="start" x="13.5" y="-635.1" font-family="Verdana" font-size="8.00" fill="#000000">description</text>
<text text-anchor="start" x="60.5" y="-635.1" font-family="Verdana" font-size="8.00" fill="#000000"> [VARCHAR(200)]</text>
<polygon fill="none" stroke="#000000" points="8.5,-607.5 8.5,-626.5 137.5,-626.5 137.5,-607.5 8.5,-607.5"/>
<text text-anchor="start" x="13.5" y="-616.1" font-family="Verdana" font-size="8.00" fill="#000000">name</text>
<text text-anchor="start" x="38.5" y="-616.1" font-family="Verdana" font-size="8.00" fill="#000000"> [VARCHAR(64)]</text>
</g>
<!-- milestone -->
<g id="node7" class="node">
<title>milestone</title>
<polygon fill="none" stroke="#000000" points="229.5,-385.5 229.5,-413.5 351.5,-413.5 351.5,-385.5 229.5,-385.5"/>
<text text-anchor="start" x="246.5" y="-396.7" font-family="Verdana" font-weight="bold" font-size="16.00" fill="#000000">milestone</text>
<polygon fill="none" stroke="#000000" points="229.5,-366.5 229.5,-385.5 351.5,-385.5 351.5,-366.5 229.5,-366.5"/>
<text text-anchor="start" x="234.5" y="-375.1" font-family="Verdana" font-size="8.00" fill="#000000">date_created</text>
<text text-anchor="start" x="290.5" y="-375.1" font-family="Verdana" font-size="8.00" fill="#000000"> [DATETIME]</text>
<polygon fill="none" stroke="#000000" points="229.5,-347.5 229.5,-366.5 351.5,-366.5 351.5,-347.5 229.5,-347.5"/>
<text text-anchor="start" x="234.5" y="-356.1" font-family="Verdana" font-size="8.00" fill="#000000">date_modified</text>
<text text-anchor="start" x="295.5" y="-356.1" font-family="Verdana" font-size="8.00" fill="#000000"> [DATETIME]</text>
<polygon fill="none" stroke="#000000" points="229.5,-328.5 229.5,-347.5 351.5,-347.5 351.5,-328.5 229.5,-328.5"/>
<text text-anchor="start" x="234.5" y="-337.1" font-family="Verdana" text-decoration="underline" font-size="8.00" fill="#000000">id</text>
<text text-anchor="start" x="242.5" y="-337.1" font-family="Verdana" font-size="8.00" fill="#000000"> [VARCHAR]</text>
<polygon fill="none" stroke="#000000" points="229.5,-309.5 229.5,-328.5 351.5,-328.5 351.5,-309.5 229.5,-309.5"/>
<text text-anchor="start" x="234.5" y="-318.1" font-family="Verdana" font-size="8.00" fill="#000000">description</text>
<text text-anchor="start" x="281.5" y="-318.1" font-family="Verdana" font-size="8.00" fill="#000000"> [TEXT(200)]</text>
<polygon fill="none" stroke="#000000" points="229.5,-290.5 229.5,-309.5 351.5,-309.5 351.5,-290.5 229.5,-290.5"/>
<text text-anchor="start" x="234.5" y="-299.1" font-family="Verdana" font-size="8.00" fill="#000000">name</text>
<text text-anchor="start" x="259.5" y="-299.1" font-family="Verdana" font-size="8.00" fill="#000000"> [TEXT(64)]</text>
<polygon fill="none" stroke="#000000" points="229.5,-271.5 229.5,-290.5 351.5,-290.5 351.5,-271.5 229.5,-271.5"/>
<text text-anchor="start" x="234.5" y="-280.1" font-family="Verdana" font-size="8.00" fill="#000000">due_date</text>
<text text-anchor="start" x="274.5" y="-280.1" font-family="Verdana" font-size="8.00" fill="#000000"> [DATE]</text>
<polygon fill="none" stroke="#000000" points="229.5,-252.5 229.5,-271.5 351.5,-271.5 351.5,-252.5 229.5,-252.5"/>
<text text-anchor="start" x="234.5" y="-261.1" font-family="Verdana" font-size="8.00" fill="#000000">start_date</text>
<text text-anchor="start" x="277.5" y="-261.1" font-family="Verdana" font-size="8.00" fill="#000000"> [DATE]</text>
<polygon fill="none" stroke="#000000" points="229.5,-233.5 229.5,-252.5 351.5,-252.5 351.5,-233.5 229.5,-233.5"/>
<text text-anchor="start" x="234.5" y="-242.1" font-family="Verdana" font-size="8.00" fill="#000000">project_id</text>
<text text-anchor="start" x="276.5" y="-242.1" font-family="Verdana" font-size="8.00" fill="#000000"> [VARCHAR]</text>
</g>
<!-- milestone&#45;&#45;task -->
<g id="edge4" class="edge">
<title>milestone&#45;&#45;task</title>
<path fill="none" stroke="#7f7f7f" stroke-dasharray="5,2" d="M359.5499,-331.2259C383.9216,-333.9528 411.3207,-337.0184 435.712,-339.7475"/>
<text text-anchor="start" x="410.712" y="-333.3475" font-family="Verdana" font-size="8.00" fill="#000000">{0,1}</text>
<text text-anchor="start" x="359.5499" y="-324.8259" font-family="Verdana" font-size="8.00" fill="#000000">0..N</text>
</g>
<!-- order&#45;&#45;task -->
<g id="edge2" class="edge">
<title>order&#45;&#45;task</title>
<path fill="none" stroke="#7f7f7f" stroke-dasharray="5,2" d="M363.1199,-461.9301C386.577,-443.0113 412.5099,-422.0957 435.719,-403.377"/>
<text text-anchor="start" x="410.719" y="-396.977" font-family="Verdana" font-size="8.00" fill="#000000">{0,1}</text>
<text text-anchor="start" x="363.1199" y="-455.5301" font-family="Verdana" font-size="8.00" fill="#000000">0..N</text>
</g>
<!-- user -->
<g id="node10" class="node">
<title>user</title>
<polygon fill="none" stroke="#000000" points="231.5,-174.5 231.5,-202.5 350.5,-202.5 350.5,-174.5 231.5,-174.5"/>
<text text-anchor="start" x="271" y="-185.7" font-family="Verdana" font-weight="bold" font-size="16.00" fill="#000000">user</text>
<polygon fill="none" stroke="#000000" points="231.5,-155.5 231.5,-174.5 350.5,-174.5 350.5,-155.5 231.5,-155.5"/>
<text text-anchor="start" x="236.5" y="-164.1" font-family="Verdana" font-size="8.00" fill="#000000">date_created</text>
<text text-anchor="start" x="292.5" y="-164.1" font-family="Verdana" font-size="8.00" fill="#000000"> [DATETIME]</text>
<polygon fill="none" stroke="#000000" points="231.5,-136.5 231.5,-155.5 350.5,-155.5 350.5,-136.5 231.5,-136.5"/>
<text text-anchor="start" x="236.5" y="-145.1" font-family="Verdana" font-size="8.00" fill="#000000">date_modified</text>
<text text-anchor="start" x="297.5" y="-145.1" font-family="Verdana" font-size="8.00" fill="#000000"> [NUMERIC]</text>
<polygon fill="none" stroke="#000000" points="231.5,-117.5 231.5,-136.5 350.5,-136.5 350.5,-117.5 231.5,-117.5"/>
<text text-anchor="start" x="236.5" y="-126.1" font-family="Verdana" text-decoration="underline" font-size="8.00" fill="#000000">id</text>
<text text-anchor="start" x="244.5" y="-126.1" font-family="Verdana" font-size="8.00" fill="#000000"> [VARCHAR]</text>
<polygon fill="none" stroke="#000000" points="231.5,-98.5 231.5,-117.5 350.5,-117.5 350.5,-98.5 231.5,-98.5"/>
<text text-anchor="start" x="236.5" y="-107.1" font-family="Verdana" font-size="8.00" fill="#000000">description</text>
<text text-anchor="start" x="283.5" y="-107.1" font-family="Verdana" font-size="8.00" fill="#000000"> [TEXT(200)]</text>
<polygon fill="none" stroke="#000000" points="231.5,-79.5 231.5,-98.5 350.5,-98.5 350.5,-79.5 231.5,-79.5"/>
<text text-anchor="start" x="236.5" y="-88.1" font-family="Verdana" font-size="8.00" fill="#000000">name</text>
<text text-anchor="start" x="261.5" y="-88.1" font-family="Verdana" font-size="8.00" fill="#000000"> [TEXT(64)]</text>
<polygon fill="none" stroke="#000000" points="231.5,-60.5 231.5,-79.5 350.5,-79.5 350.5,-60.5 231.5,-60.5"/>
<text text-anchor="start" x="236.5" y="-69.1" font-family="Verdana" font-size="8.00" fill="#000000">email</text>
<text text-anchor="start" x="260.5" y="-69.1" font-family="Verdana" font-size="8.00" fill="#000000"> [TEXT(64)]</text>
<polygon fill="none" stroke="#000000" points="231.5,-41.5 231.5,-60.5 350.5,-60.5 350.5,-41.5 231.5,-41.5"/>
<text text-anchor="start" x="236.5" y="-50.1" font-family="Verdana" font-size="8.00" fill="#000000">password</text>
<text text-anchor="start" x="277.5" y="-50.1" font-family="Verdana" font-size="8.00" fill="#000000"> [TEXT(128)]</text>
<polygon fill="none" stroke="#000000" points="231.5,-22.5 231.5,-41.5 350.5,-41.5 350.5,-22.5 231.5,-22.5"/>
<text text-anchor="start" x="236.5" y="-31.1" font-family="Verdana" font-size="8.00" fill="#000000">role</text>
<text text-anchor="start" x="253.5" y="-31.1" font-family="Verdana" font-size="8.00" fill="#000000"> [TEXT(32)]</text>
<polygon fill="none" stroke="#000000" points="231.5,-3.5 231.5,-22.5 350.5,-22.5 350.5,-3.5 231.5,-3.5"/>
<text text-anchor="start" x="236.5" y="-12.1" font-family="Verdana" font-size="8.00" fill="#000000">cost_per_hour</text>
<text text-anchor="start" x="297.5" y="-12.1" font-family="Verdana" font-size="8.00" fill="#000000"> [FLOAT]</text>
</g>
<!-- user&#45;&#45;task -->
<g id="edge3" class="edge">
<title>user&#45;&#45;task</title>
<path fill="none" stroke="#7f7f7f" stroke-dasharray="5,2" d="M358.0747,-180.3682C382.8805,-208.5856 410.9827,-240.5525 435.9189,-268.9183"/>
<text text-anchor="start" x="410.9189" y="-262.5183" font-family="Verdana" font-size="8.00" fill="#000000">{0,1}</text>
<text text-anchor="start" x="358.0747" y="-173.9682" font-family="Verdana" font-size="8.00" fill="#000000">0..N</text>
</g>
<!-- user&#45;&#45;followings -->
<g id="edge5" class="edge">
<title>user&#45;&#45;followings</title>
<path fill="none" stroke="#7f7f7f" stroke-dasharray="5,2" d="M358.0032,-93.1149C441.4156,-80.2822 581.9703,-58.6584 660.9996,-46.5001"/>
<text text-anchor="start" x="635.9996" y="-40.1001" font-family="Verdana" font-size="8.00" fill="#000000">{0,1}</text>
<text text-anchor="start" x="358.0032" y="-86.7149" font-family="Verdana" font-size="8.00" fill="#000000">0..N</text>
</g>
<!-- user&#45;&#45;work_time -->
<g id="edge8" class="edge">
<title>user&#45;&#45;work_time</title>
<path fill="none" stroke="#7f7f7f" stroke-dasharray="5,2" d="M358.0441,-118.4262C440.4071,-136.7081 569.3329,-165.6213 574,-168.5 584.6289,-175.056 620.0422,-217.7941 653.2678,-259.5095"/>
<text text-anchor="start" x="628.2678" y="-253.1095" font-family="Verdana" font-size="8.00" fill="#000000">{0,1}</text>
<text text-anchor="start" x="358.0441" y="-112.0262" font-family="Verdana" font-size="8.00" fill="#000000">0..N</text>
</g>
<!-- user&#45;&#45;history -->
<g id="edge11" class="edge">
<title>user&#45;&#45;history</title>
<path fill="none" stroke="#7f7f7f" stroke-dasharray="5,2" d="M358.1894,-107.4442C423.3821,-112.0031 524.5572,-121.0793 611,-137.5 622.7121,-139.7248 635.0031,-142.5927 646.9321,-145.6709"/>
<text text-anchor="start" x="621.9321" y="-139.2709" font-family="Verdana" font-size="8.00" fill="#000000">{0,1}</text>
<text text-anchor="start" x="358.1894" y="-101.0442" font-family="Verdana" font-size="8.00" fill="#000000">0..N</text>
</g>
</g>
</svg>
