<?xml version="1.0" encoding="UTF-8" standalone="no"?>
<!DOCTYPE svg PUBLIC "-//W3C//DTD SVG 1.1//EN"
 "http://www.w3.org/Graphics/SVG/1.1/DTD/svg11.dtd">
<!-- Generated by graphviz version 2.40.1 (20161225.0304)
 -->
<!-- Title: %3 Pages: 1 -->
<svg width="807pt" height="702pt"
 viewBox="0.00 0.00 807.00 702.00" xmlns="http://www.w3.org/2000/svg" xmlns:xlink="http://www.w3.org/1999/xlink">
<g id="graph0" class="graph" transform="scale(1 1) rotate(0) translate(4 698)">
<title>%3</title>
<polygon fill="#ffffff" stroke="transparent" points="-4,4 -4,-698 803,-698 803,4 -4,4"/>
<!-- customer -->
<g id="node1" class="node">
<title>customer</title>
<polygon fill="none" stroke="#000000" points="8.5,-258 8.5,-277 137.5,-277 137.5,-258 8.5,-258"/>
<text text-anchor="start" x="51" y="-266.6" font-family="Verdana" font-weight="bold" font-size="8.00" fill="#000000">customer</text>
<polygon fill="none" stroke="#000000" points="8.5,-239 8.5,-258 137.5,-258 137.5,-239 8.5,-239"/>
<text text-anchor="start" x="13.5" y="-247.6" font-family="Verdana" font-size="8.00" fill="#000000">date_created</text>
<text text-anchor="start" x="69.5" y="-247.6" font-family="Verdana" font-size="8.00" fill="#000000"> [DATETIME]</text>
<polygon fill="none" stroke="#000000" points="8.5,-220 8.5,-239 137.5,-239 137.5,-220 8.5,-220"/>
<text text-anchor="start" x="13.5" y="-228.6" font-family="Verdana" font-size="8.00" fill="#000000">date_modified</text>
<text text-anchor="start" x="74.5" y="-228.6" font-family="Verdana" font-size="8.00" fill="#000000"> [DATETIME]</text>
<polygon fill="none" stroke="#000000" points="8.5,-201 8.5,-220 137.5,-220 137.5,-201 8.5,-201"/>
<text text-anchor="start" x="13.5" y="-209.6" font-family="Verdana" text-decoration="underline" font-size="8.00" fill="#000000">id</text>
<text text-anchor="start" x="21.5" y="-209.6" font-family="Verdana" font-size="8.00" fill="#000000"> [VARCHAR]</text>
<polygon fill="none" stroke="#000000" points="8.5,-182 8.5,-201 137.5,-201 137.5,-182 8.5,-182"/>
<text text-anchor="start" x="13.5" y="-190.6" font-family="Verdana" font-size="8.00" fill="#000000">description</text>
<text text-anchor="start" x="60.5" y="-190.6" font-family="Verdana" font-size="8.00" fill="#000000"> [VARCHAR(200)]</text>
<polygon fill="none" stroke="#000000" points="8.5,-163 8.5,-182 137.5,-182 137.5,-163 8.5,-163"/>
<text text-anchor="start" x="13.5" y="-171.6" font-family="Verdana" font-size="8.00" fill="#000000">name</text>
<text text-anchor="start" x="38.5" y="-171.6" font-family="Verdana" font-size="8.00" fill="#000000"> [VARCHAR(64)]</text>
</g>
<!-- order -->
<g id="node8" class="node">
<title>order</title>
<polygon fill="none" stroke="#000000" points="226.5,-277 226.5,-296 355.5,-296 355.5,-277 226.5,-277"/>
<text text-anchor="start" x="278.5" y="-285.6" font-family="Verdana" font-weight="bold" font-size="8.00" fill="#000000">order</text>
<polygon fill="none" stroke="#000000" points="226.5,-258 226.5,-277 355.5,-277 355.5,-258 226.5,-258"/>
<text text-anchor="start" x="231.5" y="-266.6" font-family="Verdana" font-size="8.00" fill="#000000">date_created</text>
<text text-anchor="start" x="287.5" y="-266.6" font-family="Verdana" font-size="8.00" fill="#000000"> [DATETIME]</text>
<polygon fill="none" stroke="#000000" points="226.5,-239 226.5,-258 355.5,-258 355.5,-239 226.5,-239"/>
<text text-anchor="start" x="231.5" y="-247.6" font-family="Verdana" font-size="8.00" fill="#000000">date_modified</text>
<text text-anchor="start" x="292.5" y="-247.6" font-family="Verdana" font-size="8.00" fill="#000000"> [DATETIME]</text>
<polygon fill="none" stroke="#000000" points="226.5,-220 226.5,-239 355.5,-239 355.5,-220 226.5,-220"/>
<text text-anchor="start" x="231.5" y="-228.6" font-family="Verdana" text-decoration="underline" font-size="8.00" fill="#000000">id</text>
<text text-anchor="start" x="239.5" y="-228.6" font-family="Verdana" font-size="8.00" fill="#000000"> [VARCHAR]</text>
<polygon fill="none" stroke="#000000" points="226.5,-201 226.5,-220 355.5,-220 355.5,-201 226.5,-201"/>
<text text-anchor="start" x="231.5" y="-209.6" font-family="Verdana" font-size="8.00" fill="#000000">description</text>
<text text-anchor="start" x="278.5" y="-209.6" font-family="Verdana" font-size="8.00" fill="#000000"> [VARCHAR(200)]</text>
<polygon fill="none" stroke="#000000" points="226.5,-182 226.5,-201 355.5,-201 355.5,-182 226.5,-182"/>
<text text-anchor="start" x="231.5" y="-190.6" font-family="Verdana" font-size="8.00" fill="#000000">name</text>
<text text-anchor="start" x="256.5" y="-190.6" font-family="Verdana" font-size="8.00" fill="#000000"> [VARCHAR(64)]</text>
<polygon fill="none" stroke="#000000" points="226.5,-163 226.5,-182 355.5,-182 355.5,-163 226.5,-163"/>
<text text-anchor="start" x="231.5" y="-171.6" font-family="Verdana" font-size="8.00" fill="#000000">customer_id</text>
<text text-anchor="start" x="283.5" y="-171.6" font-family="Verdana" font-size="8.00" fill="#000000"> [VARCHAR]</text>
<polygon fill="none" stroke="#000000" points="226.5,-144 226.5,-163 355.5,-163 355.5,-144 226.5,-144"/>
<text text-anchor="start" x="231.5" y="-152.6" font-family="Verdana" font-size="8.00" fill="#000000">amount</text>
<text text-anchor="start" x="264.5" y="-152.6" font-family="Verdana" font-size="8.00" fill="#000000"> [FLOAT]</text>
</g>
<!-- customer&#45;&#45;order -->
<g id="edge10" class="edge">
<title>customer&#45;&#45;order</title>
<path fill="none" stroke="#7f7f7f" stroke-dasharray="5,2" d="M145.0908,-220C168.5004,-220 194.4413,-220 217.8547,-220"/>
<text text-anchor="start" x="192.8547" y="-213.6" font-family="Verdana" font-size="8.00" fill="#000000">{0,1}</text>
<text text-anchor="start" x="145.0908" y="-213.6" font-family="Verdana" font-size="8.00" fill="#000000">0..N</text>
</g>
<!-- task -->
<g id="node2" class="node">
<title>task</title>
<polygon fill="none" stroke="#000000" points="444.5,-506 444.5,-525 573.5,-525 573.5,-506 444.5,-506"/>
<text text-anchor="start" x="499" y="-514.6" font-family="Verdana" font-weight="bold" font-size="8.00" fill="#000000">task</text>
<polygon fill="none" stroke="#000000" points="444.5,-487 444.5,-506 573.5,-506 573.5,-487 444.5,-487"/>
<text text-anchor="start" x="449.5" y="-495.6" font-family="Verdana" font-size="8.00" fill="#000000">date_created</text>
<text text-anchor="start" x="505.5" y="-495.6" font-family="Verdana" font-size="8.00" fill="#000000"> [DATETIME]</text>
<polygon fill="none" stroke="#000000" points="444.5,-468 444.5,-487 573.5,-487 573.5,-468 444.5,-468"/>
<text text-anchor="start" x="449.5" y="-476.6" font-family="Verdana" font-size="8.00" fill="#000000">date_modified</text>
<text text-anchor="start" x="510.5" y="-476.6" font-family="Verdana" font-size="8.00" fill="#000000"> [DATETIME]</text>
<polygon fill="none" stroke="#000000" points="444.5,-449 444.5,-468 573.5,-468 573.5,-449 444.5,-449"/>
<text text-anchor="start" x="449.5" y="-457.6" font-family="Verdana" font-size="8.00" fill="#000000">description</text>
<text text-anchor="start" x="496.5" y="-457.6" font-family="Verdana" font-size="8.00" fill="#000000"> [VARCHAR(200)]</text>
<polygon fill="none" stroke="#000000" points="444.5,-430 444.5,-449 573.5,-449 573.5,-430 444.5,-430"/>
<text text-anchor="start" x="449.5" y="-438.6" font-family="Verdana" font-size="8.00" fill="#000000">name</text>
<text text-anchor="start" x="474.5" y="-438.6" font-family="Verdana" font-size="8.00" fill="#000000"> [VARCHAR(64)]</text>
<polygon fill="none" stroke="#000000" points="444.5,-411 444.5,-430 573.5,-430 573.5,-411 444.5,-411"/>
<text text-anchor="start" x="449.5" y="-419.6" font-family="Verdana" text-decoration="underline" font-size="8.00" fill="#000000">id</text>
<text text-anchor="start" x="457.5" y="-419.6" font-family="Verdana" font-size="8.00" fill="#000000"> [VARCHAR]</text>
<polygon fill="none" stroke="#000000" points="444.5,-392 444.5,-411 573.5,-411 573.5,-392 444.5,-392"/>
<text text-anchor="start" x="449.5" y="-400.6" font-family="Verdana" font-size="8.00" fill="#000000">content</text>
<text text-anchor="start" x="481.5" y="-400.6" font-family="Verdana" font-size="8.00" fill="#000000"> [VARCHAR(1024)]</text>
<polygon fill="none" stroke="#000000" points="444.5,-373 444.5,-392 573.5,-392 573.5,-373 444.5,-373"/>
<text text-anchor="start" x="449.5" y="-381.6" font-family="Verdana" font-size="8.00" fill="#000000">department</text>
<text text-anchor="start" x="499.5" y="-381.6" font-family="Verdana" font-size="8.00" fill="#000000"> [VARCHAR(16)]</text>
<polygon fill="none" stroke="#000000" points="444.5,-354 444.5,-373 573.5,-373 573.5,-354 444.5,-354"/>
<text text-anchor="start" x="449.5" y="-362.6" font-family="Verdana" font-size="8.00" fill="#000000">created_by</text>
<text text-anchor="start" x="497.5" y="-362.6" font-family="Verdana" font-size="8.00" fill="#000000"> [VARCHAR(64)]</text>
<polygon fill="none" stroke="#000000" points="444.5,-335 444.5,-354 573.5,-354 573.5,-335 444.5,-335"/>
<text text-anchor="start" x="449.5" y="-343.6" font-family="Verdana" font-size="8.00" fill="#000000">status</text>
<text text-anchor="start" x="475.5" y="-343.6" font-family="Verdana" font-size="8.00" fill="#000000"> [VARCHAR(16)]</text>
<polygon fill="none" stroke="#000000" points="444.5,-316 444.5,-335 573.5,-335 573.5,-316 444.5,-316"/>
<text text-anchor="start" x="449.5" y="-324.6" font-family="Verdana" font-size="8.00" fill="#000000">priority</text>
<text text-anchor="start" x="480.5" y="-324.6" font-family="Verdana" font-size="8.00" fill="#000000"> [VARCHAR(16)]</text>
<polygon fill="none" stroke="#000000" points="444.5,-297 444.5,-316 573.5,-316 573.5,-297 444.5,-297"/>
<text text-anchor="start" x="449.5" y="-305.6" font-family="Verdana" font-size="8.00" fill="#000000">planned_time</text>
<text text-anchor="start" x="507.5" y="-305.6" font-family="Verdana" font-size="8.00" fill="#000000"> [FLOAT]</text>
<polygon fill="none" stroke="#000000" points="444.5,-278 444.5,-297 573.5,-297 573.5,-278 444.5,-278"/>
<text text-anchor="start" x="449.5" y="-286.6" font-family="Verdana" font-size="8.00" fill="#000000">project_id</text>
<text text-anchor="start" x="491.5" y="-286.6" font-family="Verdana" font-size="8.00" fill="#000000"> [VARCHAR]</text>
<polygon fill="none" stroke="#000000" points="444.5,-259 444.5,-278 573.5,-278 573.5,-259 444.5,-259"/>
<text text-anchor="start" x="449.5" y="-267.6" font-family="Verdana" font-size="8.00" fill="#000000">order_id</text>
<text text-anchor="start" x="485.5" y="-267.6" font-family="Verdana" font-size="8.00" fill="#000000"> [VARCHAR]</text>
<polygon fill="none" stroke="#000000" points="444.5,-240 444.5,-259 573.5,-259 573.5,-240 444.5,-240"/>
<text text-anchor="start" x="449.5" y="-248.6" font-family="Verdana" font-size="8.00" fill="#000000">milestone_id</text>
<text text-anchor="start" x="503.5" y="-248.6" font-family="Verdana" font-size="8.00" fill="#000000"> [VARCHAR]</text>
<polygon fill="none" stroke="#000000" points="444.5,-221 444.5,-240 573.5,-240 573.5,-221 444.5,-221"/>
<text text-anchor="start" x="449.5" y="-229.6" font-family="Verdana" font-size="8.00" fill="#000000">assignee_id</text>
<text text-anchor="start" x="499.5" y="-229.6" font-family="Verdana" font-size="8.00" fill="#000000"> [VARCHAR]</text>
<polygon fill="none" stroke="#000000" points="444.5,-202 444.5,-221 573.5,-221 573.5,-202 444.5,-202"/>
<text text-anchor="start" x="449.5" y="-210.6" font-family="Verdana" font-size="8.00" fill="#000000">parent_id</text>
<text text-anchor="start" x="489.5" y="-210.6" font-family="Verdana" font-size="8.00" fill="#000000"> [VARCHAR]</text>
</g>
<!-- task&#45;&#45;task -->
<g id="edge2" class="edge">
<title>task&#45;&#45;task</title>
<path fill="none" stroke="#7f7f7f" stroke-dasharray="5,2" d="M493.9651,-529.7026C497.3269,-540.78 502.1719,-547.5 508.5,-547.5 514.8281,-547.5 519.6731,-540.78 523.0349,-529.7026"/>
<text text-anchor="start" x="498.0349" y="-532.3026" font-family="Verdana" font-size="8.00" fill="#000000">{0,1}</text>
<text text-anchor="start" x="475.9651" y="-532.3026" font-family="Verdana" font-size="8.00" fill="#000000">0..N</text>
</g>
<!-- followings -->
<g id="node3" class="node">
<title>followings</title>
<polygon fill="none" stroke="#000000" points="681.5,-608 681.5,-627 772.5,-627 772.5,-608 681.5,-608"/>
<text text-anchor="start" x="702" y="-616.6" font-family="Verdana" font-weight="bold" font-size="8.00" fill="#000000">followings</text>
<polygon fill="none" stroke="#000000" points="681.5,-589 681.5,-608 772.5,-608 772.5,-589 681.5,-589"/>
<text text-anchor="start" x="686.5" y="-597.6" font-family="Verdana" text-decoration="underline" font-size="8.00" fill="#000000">user_id</text>
<text text-anchor="start" x="717.5" y="-597.6" font-family="Verdana" font-size="8.00" fill="#000000"> [VARCHAR]</text>
<polygon fill="none" stroke="#000000" points="681.5,-570 681.5,-589 772.5,-589 772.5,-570 681.5,-570"/>
<text text-anchor="start" x="686.5" y="-578.6" font-family="Verdana" text-decoration="underline" font-size="8.00" fill="#000000">task_id</text>
<text text-anchor="start" x="716.5" y="-578.6" font-family="Verdana" font-size="8.00" fill="#000000"> [VARCHAR]</text>
</g>
<!-- task&#45;&#45;followings -->
<g id="edge7" class="edge">
<title>task&#45;&#45;followings</title>
<path fill="none" stroke="#7f7f7f" stroke-dasharray="5,2" d="M581.1963,-447.3779C604.166,-473.1953 629.8579,-501.538 654,-527 666.4495,-540.1301 680.4879,-554.2274 692.8726,-566.4366"/>
<text text-anchor="start" x="667.8726" y="-560.0366" font-family="Verdana" font-size="8.00" fill="#000000">{0,1}</text>
<text text-anchor="start" x="581.1963" y="-440.9779" font-family="Verdana" font-size="8.00" fill="#000000">0..N</text>
</g>
<!-- work_time -->
<g id="node4" class="node">
<title>work_time</title>
<polygon fill="none" stroke="#000000" points="662.5,-495 662.5,-514 791.5,-514 791.5,-495 662.5,-495"/>
<text text-anchor="start" x="703" y="-503.6" font-family="Verdana" font-weight="bold" font-size="8.00" fill="#000000">work_time</text>
<polygon fill="none" stroke="#000000" points="662.5,-476 662.5,-495 791.5,-495 791.5,-476 662.5,-476"/>
<text text-anchor="start" x="667.5" y="-484.6" font-family="Verdana" font-size="8.00" fill="#000000">date_created</text>
<text text-anchor="start" x="723.5" y="-484.6" font-family="Verdana" font-size="8.00" fill="#000000"> [DATETIME]</text>
<polygon fill="none" stroke="#000000" points="662.5,-457 662.5,-476 791.5,-476 791.5,-457 662.5,-457"/>
<text text-anchor="start" x="667.5" y="-465.6" font-family="Verdana" font-size="8.00" fill="#000000">date_modified</text>
<text text-anchor="start" x="728.5" y="-465.6" font-family="Verdana" font-size="8.00" fill="#000000"> [DATETIME]</text>
<polygon fill="none" stroke="#000000" points="662.5,-438 662.5,-457 791.5,-457 791.5,-438 662.5,-438"/>
<text text-anchor="start" x="667.5" y="-446.6" font-family="Verdana" text-decoration="underline" font-size="8.00" fill="#000000">id</text>
<text text-anchor="start" x="675.5" y="-446.6" font-family="Verdana" font-size="8.00" fill="#000000"> [VARCHAR]</text>
<polygon fill="none" stroke="#000000" points="662.5,-419 662.5,-438 791.5,-438 791.5,-419 662.5,-419"/>
<text text-anchor="start" x="667.5" y="-427.6" font-family="Verdana" font-size="8.00" fill="#000000">description</text>
<text text-anchor="start" x="714.5" y="-427.6" font-family="Verdana" font-size="8.00" fill="#000000"> [VARCHAR(200)]</text>
<polygon fill="none" stroke="#000000" points="662.5,-400 662.5,-419 791.5,-419 791.5,-400 662.5,-400"/>
<text text-anchor="start" x="667.5" y="-408.6" font-family="Verdana" font-size="8.00" fill="#000000">task_id</text>
<text text-anchor="start" x="697.5" y="-408.6" font-family="Verdana" font-size="8.00" fill="#000000"> [VARCHAR]</text>
<polygon fill="none" stroke="#000000" points="662.5,-381 662.5,-400 791.5,-400 791.5,-381 662.5,-381"/>
<text text-anchor="start" x="667.5" y="-389.6" font-family="Verdana" font-size="8.00" fill="#000000">user_id</text>
<text text-anchor="start" x="698.5" y="-389.6" font-family="Verdana" font-size="8.00" fill="#000000"> [VARCHAR]</text>
<polygon fill="none" stroke="#000000" points="662.5,-362 662.5,-381 791.5,-381 791.5,-362 662.5,-362"/>
<text text-anchor="start" x="667.5" y="-370.6" font-family="Verdana" font-size="8.00" fill="#000000">duration</text>
<text text-anchor="start" x="703.5" y="-370.6" font-family="Verdana" font-size="8.00" fill="#000000"> [FLOAT]</text>
</g>
<!-- task&#45;&#45;work_time -->
<g id="edge8" class="edge">
<title>task&#45;&#45;work_time</title>
<path fill="none" stroke="#7f7f7f" stroke-dasharray="5,2" d="M581.0908,-388.6409C604.5004,-396.5873 630.4413,-405.3929 653.8547,-413.3406"/>
<text text-anchor="start" x="628.8547" y="-406.9406" font-family="Verdana" font-size="8.00" fill="#000000">{0,1}</text>
<text text-anchor="start" x="581.0908" y="-382.2409" font-family="Verdana" font-size="8.00" fill="#000000">0..N</text>
</g>
<!-- project -->
<g id="node5" class="node">
<title>project</title>
<polygon fill="none" stroke="#000000" points="226.5,-99 226.5,-118 355.5,-118 355.5,-99 226.5,-99"/>
<text text-anchor="start" x="274" y="-107.6" font-family="Verdana" font-weight="bold" font-size="8.00" fill="#000000">project</text>
<polygon fill="none" stroke="#000000" points="226.5,-80 226.5,-99 355.5,-99 355.5,-80 226.5,-80"/>
<text text-anchor="start" x="231.5" y="-88.6" font-family="Verdana" font-size="8.00" fill="#000000">date_created</text>
<text text-anchor="start" x="287.5" y="-88.6" font-family="Verdana" font-size="8.00" fill="#000000"> [DATETIME]</text>
<polygon fill="none" stroke="#000000" points="226.5,-61 226.5,-80 355.5,-80 355.5,-61 226.5,-61"/>
<text text-anchor="start" x="231.5" y="-69.6" font-family="Verdana" font-size="8.00" fill="#000000">date_modified</text>
<text text-anchor="start" x="292.5" y="-69.6" font-family="Verdana" font-size="8.00" fill="#000000"> [DATETIME]</text>
<polygon fill="none" stroke="#000000" points="226.5,-42 226.5,-61 355.5,-61 355.5,-42 226.5,-42"/>
<text text-anchor="start" x="231.5" y="-50.6" font-family="Verdana" text-decoration="underline" font-size="8.00" fill="#000000">id</text>
<text text-anchor="start" x="239.5" y="-50.6" font-family="Verdana" font-size="8.00" fill="#000000"> [VARCHAR]</text>
<polygon fill="none" stroke="#000000" points="226.5,-23 226.5,-42 355.5,-42 355.5,-23 226.5,-23"/>
<text text-anchor="start" x="231.5" y="-31.6" font-family="Verdana" font-size="8.00" fill="#000000">description</text>
<text text-anchor="start" x="278.5" y="-31.6" font-family="Verdana" font-size="8.00" fill="#000000"> [VARCHAR(200)]</text>
<polygon fill="none" stroke="#000000" points="226.5,-4 226.5,-23 355.5,-23 355.5,-4 226.5,-4"/>
<text text-anchor="start" x="231.5" y="-12.6" font-family="Verdana" font-size="8.00" fill="#000000">name</text>
<text text-anchor="start" x="256.5" y="-12.6" font-family="Verdana" font-size="8.00" fill="#000000"> [VARCHAR(64)]</text>
</g>
<!-- project&#45;&#45;task -->
<g id="edge1" class="edge">
<title>project&#45;&#45;task</title>
<path fill="none" stroke="#7f7f7f" stroke-dasharray="5,2" d="M355.4148,-122.0394C358.0367,-125.014 360.5779,-128.0084 363,-131 389.0328,-163.1545 414.1302,-200.2724 435.9367,-235.2975"/>
<text text-anchor="start" x="410.9367" y="-228.8975" font-family="Verdana" font-size="8.00" fill="#000000">{0,1}</text>
<text text-anchor="start" x="337.4148" y="-124.6394" font-family="Verdana" font-size="8.00" fill="#000000">0..N</text>
</g>
<!-- user -->
<g id="node6" class="node">
<title>user</title>
<polygon fill="none" stroke="#000000" points="226.5,-671 226.5,-690 355.5,-690 355.5,-671 226.5,-671"/>
<text text-anchor="start" x="280.5" y="-679.6" font-family="Verdana" font-weight="bold" font-size="8.00" fill="#000000">user</text>
<polygon fill="none" stroke="#000000" points="226.5,-652 226.5,-671 355.5,-671 355.5,-652 226.5,-652"/>
<text text-anchor="start" x="231.5" y="-660.6" font-family="Verdana" font-size="8.00" fill="#000000">date_created</text>
<text text-anchor="start" x="287.5" y="-660.6" font-family="Verdana" font-size="8.00" fill="#000000"> [DATETIME]</text>
<polygon fill="none" stroke="#000000" points="226.5,-633 226.5,-652 355.5,-652 355.5,-633 226.5,-633"/>
<text text-anchor="start" x="231.5" y="-641.6" font-family="Verdana" font-size="8.00" fill="#000000">date_modified</text>
<text text-anchor="start" x="292.5" y="-641.6" font-family="Verdana" font-size="8.00" fill="#000000"> [DATETIME]</text>
<polygon fill="none" stroke="#000000" points="226.5,-614 226.5,-633 355.5,-633 355.5,-614 226.5,-614"/>
<text text-anchor="start" x="231.5" y="-622.6" font-family="Verdana" text-decoration="underline" font-size="8.00" fill="#000000">id</text>
<text text-anchor="start" x="239.5" y="-622.6" font-family="Verdana" font-size="8.00" fill="#000000"> [VARCHAR]</text>
<polygon fill="none" stroke="#000000" points="226.5,-595 226.5,-614 355.5,-614 355.5,-595 226.5,-595"/>
<text text-anchor="start" x="231.5" y="-603.6" font-family="Verdana" font-size="8.00" fill="#000000">description</text>
<text text-anchor="start" x="278.5" y="-603.6" font-family="Verdana" font-size="8.00" fill="#000000"> [VARCHAR(200)]</text>
<polygon fill="none" stroke="#000000" points="226.5,-576 226.5,-595 355.5,-595 355.5,-576 226.5,-576"/>
<text text-anchor="start" x="231.5" y="-584.6" font-family="Verdana" font-size="8.00" fill="#000000">name</text>
<text text-anchor="start" x="256.5" y="-584.6" font-family="Verdana" font-size="8.00" fill="#000000"> [VARCHAR(64)]</text>
<polygon fill="none" stroke="#000000" points="226.5,-557 226.5,-576 355.5,-576 355.5,-557 226.5,-557"/>
<text text-anchor="start" x="231.5" y="-565.6" font-family="Verdana" font-size="8.00" fill="#000000">email</text>
<text text-anchor="start" x="255.5" y="-565.6" font-family="Verdana" font-size="8.00" fill="#000000"> [VARCHAR(32)]</text>
<polygon fill="none" stroke="#000000" points="226.5,-538 226.5,-557 355.5,-557 355.5,-538 226.5,-538"/>
<text text-anchor="start" x="231.5" y="-546.6" font-family="Verdana" font-size="8.00" fill="#000000">password</text>
<text text-anchor="start" x="272.5" y="-546.6" font-family="Verdana" font-size="8.00" fill="#000000"> [VARCHAR(128)]</text>
<polygon fill="none" stroke="#000000" points="226.5,-519 226.5,-538 355.5,-538 355.5,-519 226.5,-519"/>
<text text-anchor="start" x="231.5" y="-527.6" font-family="Verdana" font-size="8.00" fill="#000000">role</text>
<text text-anchor="start" x="248.5" y="-527.6" font-family="Verdana" font-size="8.00" fill="#000000"> [VARCHAR(32)]</text>
<polygon fill="none" stroke="#000000" points="226.5,-500 226.5,-519 355.5,-519 355.5,-500 226.5,-500"/>
<text text-anchor="start" x="231.5" y="-508.6" font-family="Verdana" font-size="8.00" fill="#000000">cost_per_hour</text>
<text text-anchor="start" x="292.5" y="-508.6" font-family="Verdana" font-size="8.00" fill="#000000"> [FLOAT]</text>
</g>
<!-- user&#45;&#45;task -->
<g id="edge4" class="edge">
<title>user&#45;&#45;task</title>
<path fill="none" stroke="#7f7f7f" stroke-dasharray="5,2" d="M363.0908,-518.0803C386.5004,-493.2748 412.4413,-465.787 435.8547,-440.9773"/>
<text text-anchor="start" x="410.8547" y="-434.5773" font-family="Verdana" font-size="8.00" fill="#000000">{0,1}</text>
<text text-anchor="start" x="363.0908" y="-511.6803" font-family="Verdana" font-size="8.00" fill="#000000">0..N</text>
</g>
<!-- user&#45;&#45;followings -->
<g id="edge6" class="edge">
<title>user&#45;&#45;followings</title>
<path fill="none" stroke="#7f7f7f" stroke-dasharray="5,2" d="M363.4766,-595.6695C450.8687,-596.4713 595.1671,-597.7951 672.9107,-598.5084"/>
<text text-anchor="start" x="647.9107" y="-592.1084" font-family="Verdana" font-size="8.00" fill="#000000">{0,1}</text>
<text text-anchor="start" x="363.4766" y="-589.2695" font-family="Verdana" font-size="8.00" fill="#000000">0..N</text>
</g>
<!-- user&#45;&#45;work_time -->
<g id="edge9" class="edge">
<title>user&#45;&#45;work_time</title>
<path fill="none" stroke="#7f7f7f" stroke-dasharray="5,2" d="M363.2657,-590.0547C436.2373,-584.2837 543.0623,-573.39 581,-557 606.9127,-545.8051 631.9258,-528.5892 653.6888,-510.6994"/>
<text text-anchor="start" x="628.6888" y="-504.2994" font-family="Verdana" font-size="8.00" fill="#000000">{0,1}</text>
<text text-anchor="start" x="363.2657" y="-583.6547" font-family="Verdana" font-size="8.00" fill="#000000">0..N</text>
</g>
<!-- milestone -->
<g id="node7" class="node">
<title>milestone</title>
<polygon fill="none" stroke="#000000" points="229.5,-455 229.5,-474 351.5,-474 351.5,-455 229.5,-455"/>
<text text-anchor="start" x="267.5" y="-463.6" font-family="Verdana" font-weight="bold" font-size="8.00" fill="#000000">milestone</text>
<polygon fill="none" stroke="#000000" points="229.5,-436 229.5,-455 351.5,-455 351.5,-436 229.5,-436"/>
<text text-anchor="start" x="234.5" y="-444.6" font-family="Verdana" font-size="8.00" fill="#000000">date_created</text>
<text text-anchor="start" x="290.5" y="-444.6" font-family="Verdana" font-size="8.00" fill="#000000"> [DATETIME]</text>
<polygon fill="none" stroke="#000000" points="229.5,-417 229.5,-436 351.5,-436 351.5,-417 229.5,-417"/>
<text text-anchor="start" x="234.5" y="-425.6" font-family="Verdana" font-size="8.00" fill="#000000">date_modified</text>
<text text-anchor="start" x="295.5" y="-425.6" font-family="Verdana" font-size="8.00" fill="#000000"> [DATETIME]</text>
<polygon fill="none" stroke="#000000" points="229.5,-398 229.5,-417 351.5,-417 351.5,-398 229.5,-398"/>
<text text-anchor="start" x="234.5" y="-406.6" font-family="Verdana" text-decoration="underline" font-size="8.00" fill="#000000">id</text>
<text text-anchor="start" x="242.5" y="-406.6" font-family="Verdana" font-size="8.00" fill="#000000"> [VARCHAR]</text>
<polygon fill="none" stroke="#000000" points="229.5,-379 229.5,-398 351.5,-398 351.5,-379 229.5,-379"/>
<text text-anchor="start" x="234.5" y="-387.6" font-family="Verdana" font-size="8.00" fill="#000000">description</text>
<text text-anchor="start" x="281.5" y="-387.6" font-family="Verdana" font-size="8.00" fill="#000000"> [TEXT(200)]</text>
<polygon fill="none" stroke="#000000" points="229.5,-360 229.5,-379 351.5,-379 351.5,-360 229.5,-360"/>
<text text-anchor="start" x="234.5" y="-368.6" font-family="Verdana" font-size="8.00" fill="#000000">name</text>
<text text-anchor="start" x="259.5" y="-368.6" font-family="Verdana" font-size="8.00" fill="#000000"> [TEXT(64)]</text>
<polygon fill="none" stroke="#000000" points="229.5,-341 229.5,-360 351.5,-360 351.5,-341 229.5,-341"/>
<text text-anchor="start" x="234.5" y="-349.6" font-family="Verdana" font-size="8.00" fill="#000000">due_date</text>
<text text-anchor="start" x="274.5" y="-349.6" font-family="Verdana" font-size="8.00" fill="#000000"> [DATE]</text>
<polygon fill="none" stroke="#000000" points="229.5,-322 229.5,-341 351.5,-341 351.5,-322 229.5,-322"/>
<text text-anchor="start" x="234.5" y="-330.6" font-family="Verdana" font-size="8.00" fill="#000000">start_date</text>
<text text-anchor="start" x="277.5" y="-330.6" font-family="Verdana" font-size="8.00" fill="#000000"> [DATE]</text>
</g>
<!-- milestone&#45;&#45;task -->
<g id="edge5" class="edge">
<title>milestone&#45;&#45;task</title>
<path fill="none" stroke="#7f7f7f" stroke-dasharray="5,2" d="M359.7761,-387.1955C383.963,-383.4232 411.1731,-379.1794 435.6428,-375.3631"/>
<text text-anchor="start" x="410.6428" y="-368.9631" font-family="Verdana" font-size="8.00" fill="#000000">{0,1}</text>
<text text-anchor="start" x="359.7761" y="-380.7955" font-family="Verdana" font-size="8.00" fill="#000000">0..N</text>
</g>
<!-- order&#45;&#45;task -->
<g id="edge3" class="edge">
<title>order&#45;&#45;task</title>
<path fill="none" stroke="#7f7f7f" stroke-dasharray="5,2" d="M363.0908,-267.9499C386.5004,-283.4131 412.4413,-300.5484 435.8547,-316.0141"/>
<text text-anchor="start" x="410.8547" y="-309.6141" font-family="Verdana" font-size="8.00" fill="#000000">{0,1}</text>
<text text-anchor="start" x="363.0908" y="-261.5499" font-family="Verdana" font-size="8.00" fill="#000000">0..N</text>
</g>
</g>
</svg>
