<?xml version="1.0" encoding="UTF-8" standalone="no"?>
<!DOCTYPE svg PUBLIC "-//W3C//DTD SVG 1.1//EN"
 "http://www.w3.org/Graphics/SVG/1.1/DTD/svg11.dtd">
<!-- Generated by graphviz version 2.40.1 (20161225.0304)
 -->
<!-- Title: %3 Pages: 1 -->
<svg width="1074pt" height="704pt"
 viewBox="0.00 0.00 1074.00 703.50" xmlns="http://www.w3.org/2000/svg" xmlns:xlink="http://www.w3.org/1999/xlink">
<g id="graph0" class="graph" transform="scale(1 1) rotate(0) translate(4 699.5)">
<title>%3</title>
<polygon fill="#ffffff" stroke="transparent" points="-4,4 -4,-699.5 1070,-699.5 1070,4 -4,4"/>
<!-- customer -->
<g id="node1" class="node">
<title>customer</title>
<polygon fill="none" stroke="#000000" points="8,-272 8,-293 176,-293 176,-272 8,-272"/>
<text text-anchor="start" x="67.5" y="-281" font-family="Monospace" font-weight="bold" font-size="10.00" fill="#000000">customer</text>
<polygon fill="none" stroke="#000000" points="8,-251 8,-272 176,-272 176,-251 8,-251"/>
<text text-anchor="start" x="13" y="-260" font-family="Monospace" font-size="10.00" fill="#000000">date_created</text>
<text text-anchor="start" x="86" y="-260" font-family="Monospace" font-size="10.00" fill="#000000"> [DATETIME]</text>
<polygon fill="none" stroke="#000000" points="8,-230 8,-251 176,-251 176,-230 8,-230"/>
<text text-anchor="start" x="13" y="-239" font-family="Monospace" font-size="10.00" fill="#000000">date_modified</text>
<text text-anchor="start" x="92" y="-239" font-family="Monospace" font-size="10.00" fill="#000000"> [DATETIME]</text>
<polygon fill="none" stroke="#000000" points="8,-209 8,-230 176,-230 176,-209 8,-209"/>
<text text-anchor="start" x="13" y="-218" font-family="Monospace" text-decoration="underline" font-size="10.00" fill="#000000">id</text>
<text text-anchor="start" x="26" y="-218" font-family="Monospace" font-size="10.00" fill="#000000"> [VARCHAR]</text>
<polygon fill="none" stroke="#000000" points="8,-188 8,-209 176,-209 176,-188 8,-188"/>
<text text-anchor="start" x="13" y="-197" font-family="Monospace" font-size="10.00" fill="#000000">description</text>
<text text-anchor="start" x="80" y="-197" font-family="Monospace" font-size="10.00" fill="#000000"> [VARCHAR(200)]</text>
<polygon fill="none" stroke="#000000" points="8,-167 8,-188 176,-188 176,-167 8,-167"/>
<text text-anchor="start" x="13" y="-176" font-family="Monospace" font-size="10.00" fill="#000000">name</text>
<text text-anchor="start" x="38" y="-176" font-family="Monospace" font-size="10.00" fill="#000000"> [VARCHAR(64)]</text>
</g>
<!-- order -->
<g id="node8" class="node">
<title>order</title>
<polygon fill="none" stroke="#000000" points="302,-282 302,-303 470,-303 470,-282 302,-282"/>
<text text-anchor="start" x="370.5" y="-291" font-family="Monospace" font-weight="bold" font-size="10.00" fill="#000000">order</text>
<polygon fill="none" stroke="#000000" points="302,-261 302,-282 470,-282 470,-261 302,-261"/>
<text text-anchor="start" x="307" y="-270" font-family="Monospace" font-size="10.00" fill="#000000">date_created</text>
<text text-anchor="start" x="380" y="-270" font-family="Monospace" font-size="10.00" fill="#000000"> [DATETIME]</text>
<polygon fill="none" stroke="#000000" points="302,-240 302,-261 470,-261 470,-240 302,-240"/>
<text text-anchor="start" x="307" y="-249" font-family="Monospace" font-size="10.00" fill="#000000">date_modified</text>
<text text-anchor="start" x="386" y="-249" font-family="Monospace" font-size="10.00" fill="#000000"> [DATETIME]</text>
<polygon fill="none" stroke="#000000" points="302,-219 302,-240 470,-240 470,-219 302,-219"/>
<text text-anchor="start" x="307" y="-228" font-family="Monospace" text-decoration="underline" font-size="10.00" fill="#000000">id</text>
<text text-anchor="start" x="320" y="-228" font-family="Monospace" font-size="10.00" fill="#000000"> [VARCHAR]</text>
<polygon fill="none" stroke="#000000" points="302,-198 302,-219 470,-219 470,-198 302,-198"/>
<text text-anchor="start" x="307" y="-207" font-family="Monospace" font-size="10.00" fill="#000000">description</text>
<text text-anchor="start" x="374" y="-207" font-family="Monospace" font-size="10.00" fill="#000000"> [VARCHAR(200)]</text>
<polygon fill="none" stroke="#000000" points="302,-177 302,-198 470,-198 470,-177 302,-177"/>
<text text-anchor="start" x="307" y="-186" font-family="Monospace" font-size="10.00" fill="#000000">name</text>
<text text-anchor="start" x="332" y="-186" font-family="Monospace" font-size="10.00" fill="#000000"> [VARCHAR(64)]</text>
<polygon fill="none" stroke="#000000" points="302,-156 302,-177 470,-177 470,-156 302,-156"/>
<text text-anchor="start" x="307" y="-165" font-family="Monospace" font-size="10.00" fill="#000000">customer_id</text>
<text text-anchor="start" x="374" y="-165" font-family="Monospace" font-size="10.00" fill="#000000"> [VARCHAR]</text>
</g>
<!-- customer&#45;&gt;order -->
<g id="edge10" class="edge">
<title>customer&#45;&gt;order</title>
<path fill="none" stroke="#7f7f7f" d="M184.2168,-230C215.7473,-230 251.2018,-230 283.4937,-230"/>
<polygon fill="#7f7f7f" stroke="#7f7f7f" points="283.858,-233.5001 293.858,-230 283.8579,-226.5001 283.858,-233.5001"/>
<text text-anchor="start" x="262.858" y="-222" font-family="Monospace" font-size="10.00" fill="#773333">{0,1}</text>
<text text-anchor="start" x="184.2168" y="-222" font-family="Monospace" font-size="10.00" fill="#773333">0..N</text>
</g>
<!-- task -->
<g id="node2" class="node">
<title>task</title>
<polygon fill="none" stroke="#000000" points="596,-506 596,-527 764,-527 764,-506 596,-506"/>
<text text-anchor="start" x="667.5" y="-515" font-family="Monospace" font-weight="bold" font-size="10.00" fill="#000000">task</text>
<polygon fill="none" stroke="#000000" points="596,-485 596,-506 764,-506 764,-485 596,-485"/>
<text text-anchor="start" x="601" y="-494" font-family="Monospace" font-size="10.00" fill="#000000">date_created</text>
<text text-anchor="start" x="674" y="-494" font-family="Monospace" font-size="10.00" fill="#000000"> [DATETIME]</text>
<polygon fill="none" stroke="#000000" points="596,-464 596,-485 764,-485 764,-464 596,-464"/>
<text text-anchor="start" x="601" y="-473" font-family="Monospace" font-size="10.00" fill="#000000">date_modified</text>
<text text-anchor="start" x="680" y="-473" font-family="Monospace" font-size="10.00" fill="#000000"> [DATETIME]</text>
<polygon fill="none" stroke="#000000" points="596,-443 596,-464 764,-464 764,-443 596,-443"/>
<text text-anchor="start" x="601" y="-452" font-family="Monospace" font-size="10.00" fill="#000000">description</text>
<text text-anchor="start" x="668" y="-452" font-family="Monospace" font-size="10.00" fill="#000000"> [VARCHAR(200)]</text>
<polygon fill="none" stroke="#000000" points="596,-422 596,-443 764,-443 764,-422 596,-422"/>
<text text-anchor="start" x="601" y="-431" font-family="Monospace" font-size="10.00" fill="#000000">name</text>
<text text-anchor="start" x="626" y="-431" font-family="Monospace" font-size="10.00" fill="#000000"> [VARCHAR(64)]</text>
<polygon fill="none" stroke="#000000" points="596,-401 596,-422 764,-422 764,-401 596,-401"/>
<text text-anchor="start" x="601" y="-410" font-family="Monospace" text-decoration="underline" font-size="10.00" fill="#000000">id</text>
<text text-anchor="start" x="614" y="-410" font-family="Monospace" font-size="10.00" fill="#000000"> [VARCHAR]</text>
<polygon fill="none" stroke="#000000" points="596,-380 596,-401 764,-401 764,-380 596,-380"/>
<text text-anchor="start" x="601" y="-389" font-family="Monospace" font-size="10.00" fill="#000000">department</text>
<text text-anchor="start" x="662" y="-389" font-family="Monospace" font-size="10.00" fill="#000000"> [VARCHAR(16)]</text>
<polygon fill="none" stroke="#000000" points="596,-359 596,-380 764,-380 764,-359 596,-359"/>
<text text-anchor="start" x="601" y="-368" font-family="Monospace" font-size="10.00" fill="#000000">content</text>
<text text-anchor="start" x="644" y="-368" font-family="Monospace" font-size="10.00" fill="#000000"> [VARCHAR(1024)]</text>
<polygon fill="none" stroke="#000000" points="596,-338 596,-359 764,-359 764,-338 596,-338"/>
<text text-anchor="start" x="601" y="-347" font-family="Monospace" font-size="10.00" fill="#000000">created_by</text>
<text text-anchor="start" x="662" y="-347" font-family="Monospace" font-size="10.00" fill="#000000"> [VARCHAR(64)]</text>
<polygon fill="none" stroke="#000000" points="596,-317 596,-338 764,-338 764,-317 596,-317"/>
<text text-anchor="start" x="601" y="-326" font-family="Monospace" font-size="10.00" fill="#000000">status</text>
<text text-anchor="start" x="638" y="-326" font-family="Monospace" font-size="10.00" fill="#000000"> [VARCHAR(16)]</text>
<polygon fill="none" stroke="#000000" points="596,-296 596,-317 764,-317 764,-296 596,-296"/>
<text text-anchor="start" x="601" y="-305" font-family="Monospace" font-size="10.00" fill="#000000">planned_time</text>
<text text-anchor="start" x="674" y="-305" font-family="Monospace" font-size="10.00" fill="#000000"> [FLOAT]</text>
<polygon fill="none" stroke="#000000" points="596,-275 596,-296 764,-296 764,-275 596,-275"/>
<text text-anchor="start" x="601" y="-284" font-family="Monospace" font-size="10.00" fill="#000000">order_id</text>
<text text-anchor="start" x="650" y="-284" font-family="Monospace" font-size="10.00" fill="#000000"> [VARCHAR]</text>
<polygon fill="none" stroke="#000000" points="596,-254 596,-275 764,-275 764,-254 596,-254"/>
<text text-anchor="start" x="601" y="-263" font-family="Monospace" font-size="10.00" fill="#000000">milestone_id</text>
<text text-anchor="start" x="674" y="-263" font-family="Monospace" font-size="10.00" fill="#000000"> [VARCHAR]</text>
<polygon fill="none" stroke="#000000" points="596,-233 596,-254 764,-254 764,-233 596,-233"/>
<text text-anchor="start" x="601" y="-242" font-family="Monospace" font-size="10.00" fill="#000000">assignee_id</text>
<text text-anchor="start" x="668" y="-242" font-family="Monospace" font-size="10.00" fill="#000000"> [VARCHAR]</text>
<polygon fill="none" stroke="#000000" points="596,-212 596,-233 764,-233 764,-212 596,-212"/>
<text text-anchor="start" x="601" y="-221" font-family="Monospace" font-size="10.00" fill="#000000">parent_id</text>
<text text-anchor="start" x="656" y="-221" font-family="Monospace" font-size="10.00" fill="#000000"> [VARCHAR]</text>
</g>
<!-- task&#45;&gt;task -->
<g id="edge1" class="edge">
<title>task&#45;&gt;task</title>
<path fill="none" stroke="#7f7f7f" d="M662.5757,-531.5452C666.5669,-542.7056 672.375,-549.5 680,-549.5 685.2422,-549.5 689.6256,-546.2886 693.1503,-540.6548"/>
<polygon fill="#7f7f7f" stroke="#7f7f7f" points="696.3453,-542.085 697.4243,-531.5452 690.0082,-539.1116 696.3453,-542.085"/>
<text text-anchor="start" x="666.4243" y="-534.5452" font-family="Monospace" font-size="10.00" fill="#773333">{0,1}</text>
<text text-anchor="start" x="637.5757" y="-534.5452" font-family="Monospace" font-size="10.00" fill="#773333">0..N</text>
</g>
<!-- followings -->
<g id="node3" class="node">
<title>followings</title>
<polygon fill="none" stroke="#000000" points="917,-613 917,-634 1031,-634 1031,-613 917,-613"/>
<text text-anchor="start" x="943.5" y="-622" font-family="Monospace" font-weight="bold" font-size="10.00" fill="#000000">followings</text>
<polygon fill="none" stroke="#000000" points="917,-592 917,-613 1031,-613 1031,-592 917,-592"/>
<text text-anchor="start" x="922" y="-601" font-family="Monospace" text-decoration="underline" font-size="10.00" fill="#000000">user_id</text>
<text text-anchor="start" x="965" y="-601" font-family="Monospace" font-size="10.00" fill="#000000"> [VARCHAR]</text>
<polygon fill="none" stroke="#000000" points="917,-571 917,-592 1031,-592 1031,-571 917,-571"/>
<text text-anchor="start" x="922" y="-580" font-family="Monospace" text-decoration="underline" font-size="10.00" fill="#000000">task_id</text>
<text text-anchor="start" x="965" y="-580" font-family="Monospace" font-size="10.00" fill="#000000"> [VARCHAR]</text>
</g>
<!-- task&#45;&gt;followings -->
<g id="edge7" class="edge">
<title>task&#45;&gt;followings</title>
<path fill="none" stroke="#7f7f7f" d="M772.2271,-444.5602C806.5748,-472.1709 845.9628,-503.6478 882,-532 894.0967,-541.5171 907.1539,-551.6671 919.5248,-561.2278"/>
<polygon fill="#7f7f7f" stroke="#7f7f7f" points="917.4833,-564.0734 927.5382,-567.4128 921.7604,-558.532 917.4833,-564.0734"/>
<text text-anchor="start" x="896.5382" y="-559.4128" font-family="Monospace" font-size="10.00" fill="#773333">{0,1}</text>
<text text-anchor="start" x="772.2271" y="-436.5602" font-family="Monospace" font-size="10.00" fill="#773333">0..N</text>
</g>
<!-- work_time -->
<g id="node4" class="node">
<title>work_time</title>
<polygon fill="none" stroke="#000000" points="890,-498 890,-519 1058,-519 1058,-498 890,-498"/>
<text text-anchor="start" x="946.5" y="-507" font-family="Monospace" font-weight="bold" font-size="10.00" fill="#000000">work_time</text>
<polygon fill="none" stroke="#000000" points="890,-477 890,-498 1058,-498 1058,-477 890,-477"/>
<text text-anchor="start" x="895" y="-486" font-family="Monospace" font-size="10.00" fill="#000000">date_created</text>
<text text-anchor="start" x="968" y="-486" font-family="Monospace" font-size="10.00" fill="#000000"> [DATETIME]</text>
<polygon fill="none" stroke="#000000" points="890,-456 890,-477 1058,-477 1058,-456 890,-456"/>
<text text-anchor="start" x="895" y="-465" font-family="Monospace" font-size="10.00" fill="#000000">date_modified</text>
<text text-anchor="start" x="974" y="-465" font-family="Monospace" font-size="10.00" fill="#000000"> [DATETIME]</text>
<polygon fill="none" stroke="#000000" points="890,-435 890,-456 1058,-456 1058,-435 890,-435"/>
<text text-anchor="start" x="895" y="-444" font-family="Monospace" text-decoration="underline" font-size="10.00" fill="#000000">id</text>
<text text-anchor="start" x="908" y="-444" font-family="Monospace" font-size="10.00" fill="#000000"> [VARCHAR]</text>
<polygon fill="none" stroke="#000000" points="890,-414 890,-435 1058,-435 1058,-414 890,-414"/>
<text text-anchor="start" x="895" y="-423" font-family="Monospace" font-size="10.00" fill="#000000">description</text>
<text text-anchor="start" x="962" y="-423" font-family="Monospace" font-size="10.00" fill="#000000"> [VARCHAR(200)]</text>
<polygon fill="none" stroke="#000000" points="890,-393 890,-414 1058,-414 1058,-393 890,-393"/>
<text text-anchor="start" x="895" y="-402" font-family="Monospace" font-size="10.00" fill="#000000">task_id</text>
<text text-anchor="start" x="938" y="-402" font-family="Monospace" font-size="10.00" fill="#000000"> [VARCHAR]</text>
<polygon fill="none" stroke="#000000" points="890,-372 890,-393 1058,-393 1058,-372 890,-372"/>
<text text-anchor="start" x="895" y="-381" font-family="Monospace" font-size="10.00" fill="#000000">user_id</text>
<text text-anchor="start" x="938" y="-381" font-family="Monospace" font-size="10.00" fill="#000000"> [VARCHAR]</text>
<polygon fill="none" stroke="#000000" points="890,-351 890,-372 1058,-372 1058,-351 890,-351"/>
<text text-anchor="start" x="895" y="-360" font-family="Monospace" font-size="10.00" fill="#000000">duration</text>
<text text-anchor="start" x="944" y="-360" font-family="Monospace" font-size="10.00" fill="#000000"> [FLOAT]</text>
</g>
<!-- task&#45;&gt;work_time -->
<g id="edge8" class="edge">
<title>task&#45;&gt;work_time</title>
<path fill="none" stroke="#7f7f7f" d="M772.2168,-390.3881C803.8838,-397.3893 839.5089,-405.2656 871.9129,-412.4297"/>
<polygon fill="#7f7f7f" stroke="#7f7f7f" points="871.3382,-415.8871 881.858,-414.6285 872.8493,-409.0522 871.3382,-415.8871"/>
<text text-anchor="start" x="850.858" y="-406.6285" font-family="Monospace" font-size="10.00" fill="#773333">{0,1}</text>
<text text-anchor="start" x="772.2168" y="-382.3881" font-family="Monospace" font-size="10.00" fill="#773333">0..N</text>
</g>
<!-- project -->
<g id="node5" class="node">
<title>project</title>
<polygon fill="none" stroke="#000000" points="302,-109 302,-130 470,-130 470,-109 302,-109"/>
<text text-anchor="start" x="364.5" y="-118" font-family="Monospace" font-weight="bold" font-size="10.00" fill="#000000">project</text>
<polygon fill="none" stroke="#000000" points="302,-88 302,-109 470,-109 470,-88 302,-88"/>
<text text-anchor="start" x="307" y="-97" font-family="Monospace" font-size="10.00" fill="#000000">date_created</text>
<text text-anchor="start" x="380" y="-97" font-family="Monospace" font-size="10.00" fill="#000000"> [DATETIME]</text>
<polygon fill="none" stroke="#000000" points="302,-67 302,-88 470,-88 470,-67 302,-67"/>
<text text-anchor="start" x="307" y="-76" font-family="Monospace" font-size="10.00" fill="#000000">date_modified</text>
<text text-anchor="start" x="386" y="-76" font-family="Monospace" font-size="10.00" fill="#000000"> [DATETIME]</text>
<polygon fill="none" stroke="#000000" points="302,-46 302,-67 470,-67 470,-46 302,-46"/>
<text text-anchor="start" x="307" y="-55" font-family="Monospace" text-decoration="underline" font-size="10.00" fill="#000000">id</text>
<text text-anchor="start" x="320" y="-55" font-family="Monospace" font-size="10.00" fill="#000000"> [VARCHAR]</text>
<polygon fill="none" stroke="#000000" points="302,-25 302,-46 470,-46 470,-25 302,-25"/>
<text text-anchor="start" x="307" y="-34" font-family="Monospace" font-size="10.00" fill="#000000">description</text>
<text text-anchor="start" x="374" y="-34" font-family="Monospace" font-size="10.00" fill="#000000"> [VARCHAR(200)]</text>
<polygon fill="none" stroke="#000000" points="302,-4 302,-25 470,-25 470,-4 302,-4"/>
<text text-anchor="start" x="307" y="-13" font-family="Monospace" font-size="10.00" fill="#000000">name</text>
<text text-anchor="start" x="332" y="-13" font-family="Monospace" font-size="10.00" fill="#000000"> [VARCHAR(64)]</text>
</g>
<!-- project&#45;&gt;task -->
<g id="edge4" class="edge">
<title>project&#45;&gt;task</title>
<path fill="none" stroke="#7f7f7f" d="M468.7973,-134.3495C471.9382,-137.2343 475.0168,-140.1245 478,-143 513.1936,-176.9236 549.3741,-216.0287 581.2164,-252.1201"/>
<polygon fill="#7f7f7f" stroke="#7f7f7f" points="578.7125,-254.573 587.9435,-259.773 583.9701,-249.9514 578.7125,-254.573"/>
<text text-anchor="start" x="556.9435" y="-251.773" font-family="Monospace" font-size="10.00" fill="#773333">{0,1}</text>
<text text-anchor="start" x="443.7973" y="-137.3495" font-family="Monospace" font-size="10.00" fill="#773333">0..N</text>
</g>
<!-- user -->
<g id="node6" class="node">
<title>user</title>
<polygon fill="none" stroke="#000000" points="302,-670 302,-691 470,-691 470,-670 302,-670"/>
<text text-anchor="start" x="373.5" y="-679" font-family="Monospace" font-weight="bold" font-size="10.00" fill="#000000">user</text>
<polygon fill="none" stroke="#000000" points="302,-649 302,-670 470,-670 470,-649 302,-649"/>
<text text-anchor="start" x="307" y="-658" font-family="Monospace" font-size="10.00" fill="#000000">date_created</text>
<text text-anchor="start" x="380" y="-658" font-family="Monospace" font-size="10.00" fill="#000000"> [DATETIME]</text>
<polygon fill="none" stroke="#000000" points="302,-628 302,-649 470,-649 470,-628 302,-628"/>
<text text-anchor="start" x="307" y="-637" font-family="Monospace" font-size="10.00" fill="#000000">date_modified</text>
<text text-anchor="start" x="386" y="-637" font-family="Monospace" font-size="10.00" fill="#000000"> [DATETIME]</text>
<polygon fill="none" stroke="#000000" points="302,-607 302,-628 470,-628 470,-607 302,-607"/>
<text text-anchor="start" x="307" y="-616" font-family="Monospace" text-decoration="underline" font-size="10.00" fill="#000000">id</text>
<text text-anchor="start" x="320" y="-616" font-family="Monospace" font-size="10.00" fill="#000000"> [VARCHAR]</text>
<polygon fill="none" stroke="#000000" points="302,-586 302,-607 470,-607 470,-586 302,-586"/>
<text text-anchor="start" x="307" y="-595" font-family="Monospace" font-size="10.00" fill="#000000">description</text>
<text text-anchor="start" x="374" y="-595" font-family="Monospace" font-size="10.00" fill="#000000"> [VARCHAR(200)]</text>
<polygon fill="none" stroke="#000000" points="302,-565 302,-586 470,-586 470,-565 302,-565"/>
<text text-anchor="start" x="307" y="-574" font-family="Monospace" font-size="10.00" fill="#000000">name</text>
<text text-anchor="start" x="332" y="-574" font-family="Monospace" font-size="10.00" fill="#000000"> [VARCHAR(64)]</text>
<polygon fill="none" stroke="#000000" points="302,-544 302,-565 470,-565 470,-544 302,-544"/>
<text text-anchor="start" x="307" y="-553" font-family="Monospace" font-size="10.00" fill="#000000">email</text>
<text text-anchor="start" x="338" y="-553" font-family="Monospace" font-size="10.00" fill="#000000"> [VARCHAR(32)]</text>
<polygon fill="none" stroke="#000000" points="302,-523 302,-544 470,-544 470,-523 302,-523"/>
<text text-anchor="start" x="307" y="-532" font-family="Monospace" font-size="10.00" fill="#000000">password</text>
<text text-anchor="start" x="356" y="-532" font-family="Monospace" font-size="10.00" fill="#000000"> [VARCHAR(128)]</text>
<polygon fill="none" stroke="#000000" points="302,-502 302,-523 470,-523 470,-502 302,-502"/>
<text text-anchor="start" x="307" y="-511" font-family="Monospace" font-size="10.00" fill="#000000">role</text>
<text text-anchor="start" x="332" y="-511" font-family="Monospace" font-size="10.00" fill="#000000"> [VARCHAR(32)]</text>
</g>
<!-- user&#45;&gt;task -->
<g id="edge5" class="edge">
<title>user&#45;&gt;task</title>
<path fill="none" stroke="#7f7f7f" d="M478.2168,-525.7986C510.4298,-500.9267 546.7385,-472.8924 579.5861,-447.5305"/>
<polygon fill="#7f7f7f" stroke="#7f7f7f" points="582.0817,-450.0255 587.858,-441.1437 577.8037,-444.4848 582.0817,-450.0255"/>
<text text-anchor="start" x="556.858" y="-433.1437" font-family="Monospace" font-size="10.00" fill="#773333">{0,1}</text>
<text text-anchor="start" x="478.2168" y="-517.7986" font-family="Monospace" font-size="10.00" fill="#773333">0..N</text>
</g>
<!-- user&#45;&gt;followings -->
<g id="edge6" class="edge">
<title>user&#45;&gt;followings</title>
<path fill="none" stroke="#7f7f7f" d="M478.1356,-611.3521C501.9703,-614.0268 527.6399,-616 551.5,-616 551.5,-616 551.5,-616 808.5,-616 838.0192,-616 870.4093,-613.9191 898.648,-611.4224"/>
<polygon fill="#7f7f7f" stroke="#7f7f7f" points="899.2123,-614.8854 908.8509,-610.4868 898.573,-607.9147 899.2123,-614.8854"/>
<text text-anchor="start" x="877.8509" y="-602.4868" font-family="Monospace" font-size="10.00" fill="#773333">{0,1}</text>
<text text-anchor="start" x="478.1356" y="-603.3521" font-family="Monospace" font-size="10.00" fill="#773333">0..N</text>
</g>
<!-- user&#45;&gt;work_time -->
<g id="edge9" class="edge">
<title>user&#45;&gt;work_time</title>
<path fill="none" stroke="#7f7f7f" d="M478.1356,-582.6479C501.9703,-579.9732 527.6399,-578 551.5,-578 551.5,-578 551.5,-578 808.5,-578 846.1462,-578 879.4552,-556.5534 906.1402,-530.2713"/>
<polygon fill="#7f7f7f" stroke="#7f7f7f" points="908.6433,-532.7176 913.1338,-523.1214 903.6392,-527.8228 908.6433,-532.7176"/>
<text text-anchor="start" x="882.1338" y="-526.1214" font-family="Monospace" font-size="10.00" fill="#773333">{0,1}</text>
<text text-anchor="start" x="478.1356" y="-574.6479" font-family="Monospace" font-size="10.00" fill="#773333">0..N</text>
</g>
<!-- milestone -->
<g id="node7" class="node">
<title>milestone</title>
<polygon fill="none" stroke="#000000" points="302,-455 302,-476 470,-476 470,-455 302,-455"/>
<text text-anchor="start" x="358.5" y="-464" font-family="Monospace" font-weight="bold" font-size="10.00" fill="#000000">milestone</text>
<polygon fill="none" stroke="#000000" points="302,-434 302,-455 470,-455 470,-434 302,-434"/>
<text text-anchor="start" x="307" y="-443" font-family="Monospace" font-size="10.00" fill="#000000">date_created</text>
<text text-anchor="start" x="380" y="-443" font-family="Monospace" font-size="10.00" fill="#000000"> [DATETIME]</text>
<polygon fill="none" stroke="#000000" points="302,-413 302,-434 470,-434 470,-413 302,-413"/>
<text text-anchor="start" x="307" y="-422" font-family="Monospace" font-size="10.00" fill="#000000">date_modified</text>
<text text-anchor="start" x="386" y="-422" font-family="Monospace" font-size="10.00" fill="#000000"> [DATETIME]</text>
<polygon fill="none" stroke="#000000" points="302,-392 302,-413 470,-413 470,-392 302,-392"/>
<text text-anchor="start" x="307" y="-401" font-family="Monospace" text-decoration="underline" font-size="10.00" fill="#000000">id</text>
<text text-anchor="start" x="320" y="-401" font-family="Monospace" font-size="10.00" fill="#000000"> [VARCHAR]</text>
<polygon fill="none" stroke="#000000" points="302,-371 302,-392 470,-392 470,-371 302,-371"/>
<text text-anchor="start" x="307" y="-380" font-family="Monospace" font-size="10.00" fill="#000000">description</text>
<text text-anchor="start" x="374" y="-380" font-family="Monospace" font-size="10.00" fill="#000000"> [VARCHAR(200)]</text>
<polygon fill="none" stroke="#000000" points="302,-350 302,-371 470,-371 470,-350 302,-350"/>
<text text-anchor="start" x="307" y="-359" font-family="Monospace" font-size="10.00" fill="#000000">name</text>
<text text-anchor="start" x="332" y="-359" font-family="Monospace" font-size="10.00" fill="#000000"> [VARCHAR(64)]</text>
<polygon fill="none" stroke="#000000" points="302,-329 302,-350 470,-350 470,-329 302,-329"/>
<text text-anchor="start" x="307" y="-338" font-family="Monospace" font-size="10.00" fill="#000000">due_date</text>
<text text-anchor="start" x="356" y="-338" font-family="Monospace" font-size="10.00" fill="#000000"> [DATETIME]</text>
</g>
<!-- milestone&#45;&gt;task -->
<g id="edge3" class="edge">
<title>milestone&#45;&gt;task</title>
<path fill="none" stroke="#7f7f7f" d="M478.2168,-392.6491C509.8838,-389.0947 545.5089,-385.0959 577.9129,-381.4588"/>
<polygon fill="#7f7f7f" stroke="#7f7f7f" points="578.3108,-384.9362 587.858,-380.3425 577.5299,-377.9798 578.3108,-384.9362"/>
<text text-anchor="start" x="556.858" y="-372.3425" font-family="Monospace" font-size="10.00" fill="#773333">{0,1}</text>
<text text-anchor="start" x="478.2168" y="-384.6491" font-family="Monospace" font-size="10.00" fill="#773333">0..N</text>
</g>
<!-- order&#45;&gt;task -->
<g id="edge2" class="edge">
<title>order&#45;&gt;task</title>
<path fill="none" stroke="#7f7f7f" d="M478.2168,-273.9128C510.1568,-289.1223 546.1234,-306.2492 578.7502,-321.7858"/>
<polygon fill="#7f7f7f" stroke="#7f7f7f" points="577.3246,-324.9835 587.858,-326.1228 580.3341,-318.6634 577.3246,-324.9835"/>
<text text-anchor="start" x="556.858" y="-318.1228" font-family="Monospace" font-size="10.00" fill="#773333">{0,1}</text>
<text text-anchor="start" x="478.2168" y="-265.9128" font-family="Monospace" font-size="10.00" fill="#773333">0..N</text>
</g>
</g>
</svg>
