<?xml version="1.0" encoding="UTF-8" standalone="no"?>
<!DOCTYPE svg PUBLIC "-//W3C//DTD SVG 1.1//EN"
 "http://www.w3.org/Graphics/SVG/1.1/DTD/svg11.dtd">
<!-- Generated by graphviz version 2.40.1 (20161225.0304)
 -->
<!-- Title: %3 Pages: 1 -->
<svg width="1131pt" height="846pt"
 viewBox="0.00 0.00 1131.00 846.00" xmlns="http://www.w3.org/2000/svg" xmlns:xlink="http://www.w3.org/1999/xlink">
<g id="graph0" class="graph" transform="scale(1 1) rotate(0) translate(4 842)">
<title>%3</title>
<polygon fill="#ffffff" stroke="transparent" points="-4,4 -4,-842 1127,-842 1127,4 -4,4"/>
<!-- customer -->
<g id="node1" class="node">
<title>customer</title>
<polygon fill="none" stroke="#000000" points="8,-324 8,-343 218,-343 218,-324 8,-324"/>
<text text-anchor="start" x="91" y="-332.6" font-family="Verdana" font-weight="bold" font-size="8.00" fill="#000000">customer</text>
<polygon fill="none" stroke="#000000" points="8,-299 8,-324 218,-324 218,-299 8,-299"/>
<text text-anchor="start" x="13" y="-308.8" font-family="Verdana" font-size="14.00" fill="#000000">date_created</text>
<text text-anchor="start" x="108" y="-308.8" font-family="Verdana" font-size="14.00" fill="#000000"> [DATETIME]</text>
<polygon fill="none" stroke="#000000" points="8,-274 8,-299 218,-299 218,-274 8,-274"/>
<text text-anchor="start" x="13" y="-283.8" font-family="Verdana" font-size="14.00" fill="#000000">date_modified</text>
<text text-anchor="start" x="116" y="-283.8" font-family="Verdana" font-size="14.00" fill="#000000"> [DATETIME]</text>
<polygon fill="none" stroke="#000000" points="8,-249 8,-274 218,-274 218,-249 8,-249"/>
<text text-anchor="start" x="13" y="-258.8" font-family="Verdana" text-decoration="underline" font-size="14.00" fill="#000000">id</text>
<text text-anchor="start" x="26" y="-258.8" font-family="Verdana" font-size="14.00" fill="#000000"> [VARCHAR]</text>
<polygon fill="none" stroke="#000000" points="8,-224 8,-249 218,-249 218,-224 8,-224"/>
<text text-anchor="start" x="13" y="-233.8" font-family="Verdana" font-size="14.00" fill="#000000">description</text>
<text text-anchor="start" x="92" y="-233.8" font-family="Verdana" font-size="14.00" fill="#000000"> [VARCHAR(200)]</text>
<polygon fill="none" stroke="#000000" points="8,-199 8,-224 218,-224 218,-199 8,-199"/>
<text text-anchor="start" x="13" y="-208.8" font-family="Verdana" font-size="14.00" fill="#000000">name</text>
<text text-anchor="start" x="55" y="-208.8" font-family="Verdana" font-size="14.00" fill="#000000"> [VARCHAR(64)]</text>
</g>
<!-- order -->
<g id="node8" class="node">
<title>order</title>
<polygon fill="none" stroke="#000000" points="307,-349 307,-368 517,-368 517,-349 307,-349"/>
<text text-anchor="start" x="399.5" y="-357.6" font-family="Verdana" font-weight="bold" font-size="8.00" fill="#000000">order</text>
<polygon fill="none" stroke="#000000" points="307,-324 307,-349 517,-349 517,-324 307,-324"/>
<text text-anchor="start" x="312" y="-333.8" font-family="Verdana" font-size="14.00" fill="#000000">date_created</text>
<text text-anchor="start" x="407" y="-333.8" font-family="Verdana" font-size="14.00" fill="#000000"> [DATETIME]</text>
<polygon fill="none" stroke="#000000" points="307,-299 307,-324 517,-324 517,-299 307,-299"/>
<text text-anchor="start" x="312" y="-308.8" font-family="Verdana" font-size="14.00" fill="#000000">date_modified</text>
<text text-anchor="start" x="415" y="-308.8" font-family="Verdana" font-size="14.00" fill="#000000"> [DATETIME]</text>
<polygon fill="none" stroke="#000000" points="307,-274 307,-299 517,-299 517,-274 307,-274"/>
<text text-anchor="start" x="312" y="-283.8" font-family="Verdana" text-decoration="underline" font-size="14.00" fill="#000000">id</text>
<text text-anchor="start" x="325" y="-283.8" font-family="Verdana" font-size="14.00" fill="#000000"> [VARCHAR]</text>
<polygon fill="none" stroke="#000000" points="307,-249 307,-274 517,-274 517,-249 307,-249"/>
<text text-anchor="start" x="312" y="-258.8" font-family="Verdana" font-size="14.00" fill="#000000">description</text>
<text text-anchor="start" x="391" y="-258.8" font-family="Verdana" font-size="14.00" fill="#000000"> [VARCHAR(200)]</text>
<polygon fill="none" stroke="#000000" points="307,-224 307,-249 517,-249 517,-224 307,-224"/>
<text text-anchor="start" x="312" y="-233.8" font-family="Verdana" font-size="14.00" fill="#000000">name</text>
<text text-anchor="start" x="354" y="-233.8" font-family="Verdana" font-size="14.00" fill="#000000"> [VARCHAR(64)]</text>
<polygon fill="none" stroke="#000000" points="307,-199 307,-224 517,-224 517,-199 307,-199"/>
<text text-anchor="start" x="312" y="-208.8" font-family="Verdana" font-size="14.00" fill="#000000">customer_id</text>
<text text-anchor="start" x="400" y="-208.8" font-family="Verdana" font-size="14.00" fill="#000000"> [VARCHAR]</text>
<polygon fill="none" stroke="#000000" points="307,-174 307,-199 517,-199 517,-174 307,-174"/>
<text text-anchor="start" x="312" y="-183.8" font-family="Verdana" font-size="14.00" fill="#000000">amount</text>
<text text-anchor="start" x="368" y="-183.8" font-family="Verdana" font-size="14.00" fill="#000000"> [FLOAT]</text>
</g>
<!-- customer&#45;&#45;order -->
<g id="edge10" class="edge">
<title>customer&#45;&#45;order</title>
<path fill="none" stroke="#7f7f7f" stroke-dasharray="5,2" d="M226.0391,-271C249.853,-271 274.9813,-271 298.8011,-271"/>
<text text-anchor="start" x="267.8011" y="-259.8" font-family="Times,serif" font-size="14.00" fill="#000000">{0,1}</text>
<text text-anchor="start" x="226.0391" y="-259.8" font-family="Times,serif" font-size="14.00" fill="#000000">0..N</text>
</g>
<!-- task -->
<g id="node2" class="node">
<title>task</title>
<polygon fill="none" stroke="#000000" points="606,-623 606,-642 816,-642 816,-623 606,-623"/>
<text text-anchor="start" x="701" y="-631.6" font-family="Verdana" font-weight="bold" font-size="8.00" fill="#000000">task</text>
<polygon fill="none" stroke="#000000" points="606,-598 606,-623 816,-623 816,-598 606,-598"/>
<text text-anchor="start" x="611" y="-607.8" font-family="Verdana" font-size="14.00" fill="#000000">date_created</text>
<text text-anchor="start" x="706" y="-607.8" font-family="Verdana" font-size="14.00" fill="#000000"> [DATETIME]</text>
<polygon fill="none" stroke="#000000" points="606,-573 606,-598 816,-598 816,-573 606,-573"/>
<text text-anchor="start" x="611" y="-582.8" font-family="Verdana" font-size="14.00" fill="#000000">date_modified</text>
<text text-anchor="start" x="714" y="-582.8" font-family="Verdana" font-size="14.00" fill="#000000"> [DATETIME]</text>
<polygon fill="none" stroke="#000000" points="606,-548 606,-573 816,-573 816,-548 606,-548"/>
<text text-anchor="start" x="611" y="-557.8" font-family="Verdana" font-size="14.00" fill="#000000">description</text>
<text text-anchor="start" x="690" y="-557.8" font-family="Verdana" font-size="14.00" fill="#000000"> [VARCHAR(200)]</text>
<polygon fill="none" stroke="#000000" points="606,-523 606,-548 816,-548 816,-523 606,-523"/>
<text text-anchor="start" x="611" y="-532.8" font-family="Verdana" font-size="14.00" fill="#000000">name</text>
<text text-anchor="start" x="653" y="-532.8" font-family="Verdana" font-size="14.00" fill="#000000"> [VARCHAR(64)]</text>
<polygon fill="none" stroke="#000000" points="606,-498 606,-523 816,-523 816,-498 606,-498"/>
<text text-anchor="start" x="611" y="-507.8" font-family="Verdana" text-decoration="underline" font-size="14.00" fill="#000000">id</text>
<text text-anchor="start" x="624" y="-507.8" font-family="Verdana" font-size="14.00" fill="#000000"> [VARCHAR]</text>
<polygon fill="none" stroke="#000000" points="606,-473 606,-498 816,-498 816,-473 606,-473"/>
<text text-anchor="start" x="611" y="-482.8" font-family="Verdana" font-size="14.00" fill="#000000">content</text>
<text text-anchor="start" x="666" y="-482.8" font-family="Verdana" font-size="14.00" fill="#000000"> [VARCHAR(1024)]</text>
<polygon fill="none" stroke="#000000" points="606,-448 606,-473 816,-473 816,-448 606,-448"/>
<text text-anchor="start" x="611" y="-457.8" font-family="Verdana" font-size="14.00" fill="#000000">department</text>
<text text-anchor="start" x="696" y="-457.8" font-family="Verdana" font-size="14.00" fill="#000000"> [VARCHAR(16)]</text>
<polygon fill="none" stroke="#000000" points="606,-423 606,-448 816,-448 816,-423 606,-423"/>
<text text-anchor="start" x="611" y="-432.8" font-family="Verdana" font-size="14.00" fill="#000000">created_by</text>
<text text-anchor="start" x="691" y="-432.8" font-family="Verdana" font-size="14.00" fill="#000000"> [VARCHAR(64)]</text>
<polygon fill="none" stroke="#000000" points="606,-398 606,-423 816,-423 816,-398 606,-398"/>
<text text-anchor="start" x="611" y="-407.8" font-family="Verdana" font-size="14.00" fill="#000000">status</text>
<text text-anchor="start" x="655" y="-407.8" font-family="Verdana" font-size="14.00" fill="#000000"> [VARCHAR(16)]</text>
<polygon fill="none" stroke="#000000" points="606,-373 606,-398 816,-398 816,-373 606,-373"/>
<text text-anchor="start" x="611" y="-382.8" font-family="Verdana" font-size="14.00" fill="#000000">priority</text>
<text text-anchor="start" x="663" y="-382.8" font-family="Verdana" font-size="14.00" fill="#000000"> [VARCHAR(16)]</text>
<polygon fill="none" stroke="#000000" points="606,-348 606,-373 816,-373 816,-348 606,-348"/>
<text text-anchor="start" x="611" y="-357.8" font-family="Verdana" font-size="14.00" fill="#000000">planned_time</text>
<text text-anchor="start" x="709" y="-357.8" font-family="Verdana" font-size="14.00" fill="#000000"> [FLOAT]</text>
<polygon fill="none" stroke="#000000" points="606,-323 606,-348 816,-348 816,-323 606,-323"/>
<text text-anchor="start" x="611" y="-332.8" font-family="Verdana" font-size="14.00" fill="#000000">project_id</text>
<text text-anchor="start" x="681" y="-332.8" font-family="Verdana" font-size="14.00" fill="#000000"> [VARCHAR]</text>
<polygon fill="none" stroke="#000000" points="606,-298 606,-323 816,-323 816,-298 606,-298"/>
<text text-anchor="start" x="611" y="-307.8" font-family="Verdana" font-size="14.00" fill="#000000">order_id</text>
<text text-anchor="start" x="671" y="-307.8" font-family="Verdana" font-size="14.00" fill="#000000"> [VARCHAR]</text>
<polygon fill="none" stroke="#000000" points="606,-273 606,-298 816,-298 816,-273 606,-273"/>
<text text-anchor="start" x="611" y="-282.8" font-family="Verdana" font-size="14.00" fill="#000000">milestone_id</text>
<text text-anchor="start" x="702" y="-282.8" font-family="Verdana" font-size="14.00" fill="#000000"> [VARCHAR]</text>
<polygon fill="none" stroke="#000000" points="606,-248 606,-273 816,-273 816,-248 606,-248"/>
<text text-anchor="start" x="611" y="-257.8" font-family="Verdana" font-size="14.00" fill="#000000">assignee_id</text>
<text text-anchor="start" x="696" y="-257.8" font-family="Verdana" font-size="14.00" fill="#000000"> [VARCHAR]</text>
<polygon fill="none" stroke="#000000" points="606,-223 606,-248 816,-248 816,-223 606,-223"/>
<text text-anchor="start" x="611" y="-232.8" font-family="Verdana" font-size="14.00" fill="#000000">parent_id</text>
<text text-anchor="start" x="679" y="-232.8" font-family="Verdana" font-size="14.00" fill="#000000"> [VARCHAR]</text>
</g>
<!-- task&#45;&#45;task -->
<g id="edge2" class="edge">
<title>task&#45;&#45;task</title>
<path fill="none" stroke="#7f7f7f" stroke-dasharray="5,2" d="M692.7772,-646.7092C697.2656,-657.885 703.3398,-664.5 711,-664.5 718.6602,-664.5 724.7344,-657.885 729.2228,-646.7092"/>
<text text-anchor="start" x="698.2228" y="-650.5092" font-family="Times,serif" font-size="14.00" fill="#000000">{0,1}</text>
<text text-anchor="start" x="667.7772" y="-650.5092" font-family="Times,serif" font-size="14.00" fill="#000000">0..N</text>
</g>
<!-- followings -->
<g id="node3" class="node">
<title>followings</title>
<polygon fill="none" stroke="#000000" points="938,-729 938,-748 1083,-748 1083,-729 938,-729"/>
<text text-anchor="start" x="985.5" y="-737.6" font-family="Verdana" font-weight="bold" font-size="8.00" fill="#000000">followings</text>
<polygon fill="none" stroke="#000000" points="938,-704 938,-729 1083,-729 1083,-704 938,-704"/>
<text text-anchor="start" x="943" y="-713.8" font-family="Verdana" text-decoration="underline" font-size="14.00" fill="#000000">user_id</text>
<text text-anchor="start" x="995" y="-713.8" font-family="Verdana" font-size="14.00" fill="#000000"> [VARCHAR]</text>
<polygon fill="none" stroke="#000000" points="938,-679 938,-704 1083,-704 1083,-679 938,-679"/>
<text text-anchor="start" x="943" y="-688.8" font-family="Verdana" text-decoration="underline" font-size="14.00" fill="#000000">task_id</text>
<text text-anchor="start" x="994" y="-688.8" font-family="Verdana" font-size="14.00" fill="#000000"> [VARCHAR]</text>
</g>
<!-- task&#45;&#45;followings -->
<g id="edge7" class="edge">
<title>task&#45;&#45;followings</title>
<path fill="none" stroke="#7f7f7f" stroke-dasharray="5,2" d="M824.0038,-560.2703C847.3663,-584.5564 872.3787,-609.1833 897,-631 914.4896,-646.4974 934.7526,-662.0436 953.2496,-675.4227"/>
<text text-anchor="start" x="922.2496" y="-664.2227" font-family="Times,serif" font-size="14.00" fill="#000000">{0,1}</text>
<text text-anchor="start" x="824.0038" y="-549.0703" font-family="Times,serif" font-size="14.00" fill="#000000">0..N</text>
</g>
<!-- work_time -->
<g id="node4" class="node">
<title>work_time</title>
<polygon fill="none" stroke="#000000" points="905,-599 905,-618 1115,-618 1115,-599 905,-599"/>
<text text-anchor="start" x="986" y="-607.6" font-family="Verdana" font-weight="bold" font-size="8.00" fill="#000000">work_time</text>
<polygon fill="none" stroke="#000000" points="905,-574 905,-599 1115,-599 1115,-574 905,-574"/>
<text text-anchor="start" x="910" y="-583.8" font-family="Verdana" font-size="14.00" fill="#000000">date_created</text>
<text text-anchor="start" x="1005" y="-583.8" font-family="Verdana" font-size="14.00" fill="#000000"> [DATETIME]</text>
<polygon fill="none" stroke="#000000" points="905,-549 905,-574 1115,-574 1115,-549 905,-549"/>
<text text-anchor="start" x="910" y="-558.8" font-family="Verdana" font-size="14.00" fill="#000000">date_modified</text>
<text text-anchor="start" x="1013" y="-558.8" font-family="Verdana" font-size="14.00" fill="#000000"> [DATETIME]</text>
<polygon fill="none" stroke="#000000" points="905,-524 905,-549 1115,-549 1115,-524 905,-524"/>
<text text-anchor="start" x="910" y="-533.8" font-family="Verdana" text-decoration="underline" font-size="14.00" fill="#000000">id</text>
<text text-anchor="start" x="923" y="-533.8" font-family="Verdana" font-size="14.00" fill="#000000"> [VARCHAR]</text>
<polygon fill="none" stroke="#000000" points="905,-499 905,-524 1115,-524 1115,-499 905,-499"/>
<text text-anchor="start" x="910" y="-508.8" font-family="Verdana" font-size="14.00" fill="#000000">description</text>
<text text-anchor="start" x="989" y="-508.8" font-family="Verdana" font-size="14.00" fill="#000000"> [VARCHAR(200)]</text>
<polygon fill="none" stroke="#000000" points="905,-474 905,-499 1115,-499 1115,-474 905,-474"/>
<text text-anchor="start" x="910" y="-483.8" font-family="Verdana" font-size="14.00" fill="#000000">task_id</text>
<text text-anchor="start" x="961" y="-483.8" font-family="Verdana" font-size="14.00" fill="#000000"> [VARCHAR]</text>
<polygon fill="none" stroke="#000000" points="905,-449 905,-474 1115,-474 1115,-449 905,-449"/>
<text text-anchor="start" x="910" y="-458.8" font-family="Verdana" font-size="14.00" fill="#000000">user_id</text>
<text text-anchor="start" x="962" y="-458.8" font-family="Verdana" font-size="14.00" fill="#000000"> [VARCHAR]</text>
<polygon fill="none" stroke="#000000" points="905,-424 905,-449 1115,-449 1115,-424 905,-424"/>
<text text-anchor="start" x="910" y="-433.8" font-family="Verdana" font-size="14.00" fill="#000000">duration</text>
<text text-anchor="start" x="971" y="-433.8" font-family="Verdana" font-size="14.00" fill="#000000"> [FLOAT]</text>
</g>
<!-- task&#45;&#45;work_time -->
<g id="edge8" class="edge">
<title>task&#45;&#45;work_time</title>
<path fill="none" stroke="#7f7f7f" stroke-dasharray="5,2" d="M824.0391,-466.269C847.853,-473.2778 872.9813,-480.6734 896.8011,-487.6839"/>
<text text-anchor="start" x="865.8011" y="-476.4839" font-family="Times,serif" font-size="14.00" fill="#000000">{0,1}</text>
<text text-anchor="start" x="824.0391" y="-455.069" font-family="Times,serif" font-size="14.00" fill="#000000">0..N</text>
</g>
<!-- project -->
<g id="node5" class="node">
<title>project</title>
<polygon fill="none" stroke="#000000" points="307,-129 307,-148 517,-148 517,-129 307,-129"/>
<text text-anchor="start" x="395" y="-137.6" font-family="Verdana" font-weight="bold" font-size="8.00" fill="#000000">project</text>
<polygon fill="none" stroke="#000000" points="307,-104 307,-129 517,-129 517,-104 307,-104"/>
<text text-anchor="start" x="312" y="-113.8" font-family="Verdana" font-size="14.00" fill="#000000">date_created</text>
<text text-anchor="start" x="407" y="-113.8" font-family="Verdana" font-size="14.00" fill="#000000"> [DATETIME]</text>
<polygon fill="none" stroke="#000000" points="307,-79 307,-104 517,-104 517,-79 307,-79"/>
<text text-anchor="start" x="312" y="-88.8" font-family="Verdana" font-size="14.00" fill="#000000">date_modified</text>
<text text-anchor="start" x="415" y="-88.8" font-family="Verdana" font-size="14.00" fill="#000000"> [DATETIME]</text>
<polygon fill="none" stroke="#000000" points="307,-54 307,-79 517,-79 517,-54 307,-54"/>
<text text-anchor="start" x="312" y="-63.8" font-family="Verdana" text-decoration="underline" font-size="14.00" fill="#000000">id</text>
<text text-anchor="start" x="325" y="-63.8" font-family="Verdana" font-size="14.00" fill="#000000"> [VARCHAR]</text>
<polygon fill="none" stroke="#000000" points="307,-29 307,-54 517,-54 517,-29 307,-29"/>
<text text-anchor="start" x="312" y="-38.8" font-family="Verdana" font-size="14.00" fill="#000000">description</text>
<text text-anchor="start" x="391" y="-38.8" font-family="Verdana" font-size="14.00" fill="#000000"> [VARCHAR(200)]</text>
<polygon fill="none" stroke="#000000" points="307,-4 307,-29 517,-29 517,-4 307,-4"/>
<text text-anchor="start" x="312" y="-13.8" font-family="Verdana" font-size="14.00" fill="#000000">name</text>
<text text-anchor="start" x="354" y="-13.8" font-family="Verdana" font-size="14.00" fill="#000000"> [VARCHAR(64)]</text>
</g>
<!-- project&#45;&#45;task -->
<g id="edge3" class="edge">
<title>project&#45;&#45;task</title>
<path fill="none" stroke="#7f7f7f" stroke-dasharray="5,2" d="M516.0312,-152.037C519.1174,-154.9923 522.1164,-157.9832 525,-161 550.6937,-187.8802 575.3309,-218.6457 597.7918,-249.5906"/>
<text text-anchor="start" x="566.7918" y="-238.3906" font-family="Times,serif" font-size="14.00" fill="#000000">{0,1}</text>
<text text-anchor="start" x="491.0312" y="-155.837" font-family="Times,serif" font-size="14.00" fill="#000000">0..N</text>
</g>
<!-- user -->
<g id="node6" class="node">
<title>user</title>
<polygon fill="none" stroke="#000000" points="307,-815 307,-834 517,-834 517,-815 307,-815"/>
<text text-anchor="start" x="401.5" y="-823.6" font-family="Verdana" font-weight="bold" font-size="8.00" fill="#000000">user</text>
<polygon fill="none" stroke="#000000" points="307,-790 307,-815 517,-815 517,-790 307,-790"/>
<text text-anchor="start" x="312" y="-799.8" font-family="Verdana" font-size="14.00" fill="#000000">date_created</text>
<text text-anchor="start" x="407" y="-799.8" font-family="Verdana" font-size="14.00" fill="#000000"> [DATETIME]</text>
<polygon fill="none" stroke="#000000" points="307,-765 307,-790 517,-790 517,-765 307,-765"/>
<text text-anchor="start" x="312" y="-774.8" font-family="Verdana" font-size="14.00" fill="#000000">date_modified</text>
<text text-anchor="start" x="415" y="-774.8" font-family="Verdana" font-size="14.00" fill="#000000"> [DATETIME]</text>
<polygon fill="none" stroke="#000000" points="307,-740 307,-765 517,-765 517,-740 307,-740"/>
<text text-anchor="start" x="312" y="-749.8" font-family="Verdana" text-decoration="underline" font-size="14.00" fill="#000000">id</text>
<text text-anchor="start" x="325" y="-749.8" font-family="Verdana" font-size="14.00" fill="#000000"> [VARCHAR]</text>
<polygon fill="none" stroke="#000000" points="307,-715 307,-740 517,-740 517,-715 307,-715"/>
<text text-anchor="start" x="312" y="-724.8" font-family="Verdana" font-size="14.00" fill="#000000">description</text>
<text text-anchor="start" x="391" y="-724.8" font-family="Verdana" font-size="14.00" fill="#000000"> [VARCHAR(200)]</text>
<polygon fill="none" stroke="#000000" points="307,-690 307,-715 517,-715 517,-690 307,-690"/>
<text text-anchor="start" x="312" y="-699.8" font-family="Verdana" font-size="14.00" fill="#000000">name</text>
<text text-anchor="start" x="354" y="-699.8" font-family="Verdana" font-size="14.00" fill="#000000"> [VARCHAR(64)]</text>
<polygon fill="none" stroke="#000000" points="307,-665 307,-690 517,-690 517,-665 307,-665"/>
<text text-anchor="start" x="312" y="-674.8" font-family="Verdana" font-size="14.00" fill="#000000">email</text>
<text text-anchor="start" x="352" y="-674.8" font-family="Verdana" font-size="14.00" fill="#000000"> [VARCHAR(32)]</text>
<polygon fill="none" stroke="#000000" points="307,-640 307,-665 517,-665 517,-640 307,-640"/>
<text text-anchor="start" x="312" y="-649.8" font-family="Verdana" font-size="14.00" fill="#000000">password</text>
<text text-anchor="start" x="382" y="-649.8" font-family="Verdana" font-size="14.00" fill="#000000"> [VARCHAR(128)]</text>
<polygon fill="none" stroke="#000000" points="307,-615 307,-640 517,-640 517,-615 307,-615"/>
<text text-anchor="start" x="312" y="-624.8" font-family="Verdana" font-size="14.00" fill="#000000">role</text>
<text text-anchor="start" x="340" y="-624.8" font-family="Verdana" font-size="14.00" fill="#000000"> [VARCHAR(32)]</text>
<polygon fill="none" stroke="#000000" points="307,-590 307,-615 517,-615 517,-590 307,-590"/>
<text text-anchor="start" x="312" y="-599.8" font-family="Verdana" font-size="14.00" fill="#000000">cost_per_hour</text>
<text text-anchor="start" x="414" y="-599.8" font-family="Verdana" font-size="14.00" fill="#000000"> [FLOAT]</text>
</g>
<!-- user&#45;&#45;task -->
<g id="edge4" class="edge">
<title>user&#45;&#45;task</title>
<path fill="none" stroke="#7f7f7f" stroke-dasharray="5,2" d="M525.0391,-606.5221C548.853,-584.3011 573.9813,-560.8535 597.8011,-538.6271"/>
<text text-anchor="start" x="566.8011" y="-527.4271" font-family="Times,serif" font-size="14.00" fill="#000000">{0,1}</text>
<text text-anchor="start" x="525.0391" y="-595.3221" font-family="Times,serif" font-size="14.00" fill="#000000">0..N</text>
</g>
<!-- user&#45;&#45;followings -->
<g id="edge6" class="edge">
<title>user&#45;&#45;followings</title>
<path fill="none" stroke="#7f7f7f" stroke-dasharray="5,2" d="M525.1823,-712.3785C643.1866,-712.7732 825.1661,-713.3818 929.3577,-713.7303"/>
<text text-anchor="start" x="898.3577" y="-702.5303" font-family="Times,serif" font-size="14.00" fill="#000000">{0,1}</text>
<text text-anchor="start" x="525.1823" y="-716.1785" font-family="Times,serif" font-size="14.00" fill="#000000">0..N</text>
</g>
<!-- user&#45;&#45;work_time -->
<g id="edge9" class="edge">
<title>user&#45;&#45;work_time</title>
<path fill="none" stroke="#7f7f7f" stroke-dasharray="5,2" d="M525.3015,-708.9881C628.2503,-704.9099 771.7671,-695.4807 824,-674 854.163,-661.5955 883.2126,-642.5463 909.0272,-622.0531"/>
<text text-anchor="start" x="878.0272" y="-625.8531" font-family="Times,serif" font-size="14.00" fill="#000000">{0,1}</text>
<text text-anchor="start" x="525.3015" y="-697.7881" font-family="Times,serif" font-size="14.00" fill="#000000">0..N</text>
</g>
<!-- milestone -->
<g id="node7" class="node">
<title>milestone</title>
<polygon fill="none" stroke="#000000" points="307,-544 307,-563 517,-563 517,-544 307,-544"/>
<text text-anchor="start" x="389" y="-552.6" font-family="Verdana" font-weight="bold" font-size="8.00" fill="#000000">milestone</text>
<polygon fill="none" stroke="#000000" points="307,-519 307,-544 517,-544 517,-519 307,-519"/>
<text text-anchor="start" x="312" y="-528.8" font-family="Verdana" font-size="14.00" fill="#000000">date_created</text>
<text text-anchor="start" x="407" y="-528.8" font-family="Verdana" font-size="14.00" fill="#000000"> [DATETIME]</text>
<polygon fill="none" stroke="#000000" points="307,-494 307,-519 517,-519 517,-494 307,-494"/>
<text text-anchor="start" x="312" y="-503.8" font-family="Verdana" font-size="14.00" fill="#000000">date_modified</text>
<text text-anchor="start" x="415" y="-503.8" font-family="Verdana" font-size="14.00" fill="#000000"> [DATETIME]</text>
<polygon fill="none" stroke="#000000" points="307,-469 307,-494 517,-494 517,-469 307,-469"/>
<text text-anchor="start" x="312" y="-478.8" font-family="Verdana" text-decoration="underline" font-size="14.00" fill="#000000">id</text>
<text text-anchor="start" x="325" y="-478.8" font-family="Verdana" font-size="14.00" fill="#000000"> [VARCHAR]</text>
<polygon fill="none" stroke="#000000" points="307,-444 307,-469 517,-469 517,-444 307,-444"/>
<text text-anchor="start" x="312" y="-453.8" font-family="Verdana" font-size="14.00" fill="#000000">description</text>
<text text-anchor="start" x="391" y="-453.8" font-family="Verdana" font-size="14.00" fill="#000000"> [VARCHAR(200)]</text>
<polygon fill="none" stroke="#000000" points="307,-419 307,-444 517,-444 517,-419 307,-419"/>
<text text-anchor="start" x="312" y="-428.8" font-family="Verdana" font-size="14.00" fill="#000000">name</text>
<text text-anchor="start" x="354" y="-428.8" font-family="Verdana" font-size="14.00" fill="#000000"> [VARCHAR(64)]</text>
<polygon fill="none" stroke="#000000" points="307,-394 307,-419 517,-419 517,-394 307,-394"/>
<text text-anchor="start" x="312" y="-403.8" font-family="Verdana" font-size="14.00" fill="#000000">due_date</text>
<text text-anchor="start" x="379" y="-403.8" font-family="Verdana" font-size="14.00" fill="#000000"> [DATETIME]</text>
</g>
<!-- milestone&#45;&#45;task -->
<g id="edge5" class="edge">
<title>milestone&#45;&#45;task</title>
<path fill="none" stroke="#7f7f7f" stroke-dasharray="5,2" d="M525.0391,-461.6094C548.853,-457.9457 573.9813,-454.0798 597.8011,-450.4152"/>
<text text-anchor="start" x="566.8011" y="-439.2152" font-family="Times,serif" font-size="14.00" fill="#000000">{0,1}</text>
<text text-anchor="start" x="525.0391" y="-450.4094" font-family="Times,serif" font-size="14.00" fill="#000000">0..N</text>
</g>
<!-- order&#45;&#45;task -->
<g id="edge1" class="edge">
<title>order&#45;&#45;task</title>
<path fill="none" stroke="#7f7f7f" stroke-dasharray="5,2" d="M525.0391,-332.2453C548.853,-345.1478 573.9813,-358.7625 597.8011,-371.6681"/>
<text text-anchor="start" x="566.8011" y="-360.4681" font-family="Times,serif" font-size="14.00" fill="#000000">{0,1}</text>
<text text-anchor="start" x="525.0391" y="-321.0453" font-family="Times,serif" font-size="14.00" fill="#000000">0..N</text>
</g>
</g>
</svg>
