<?xml version="1.0" encoding="UTF-8" standalone="no"?>
<!DOCTYPE svg PUBLIC "-//W3C//DTD SVG 1.1//EN"
 "http://www.w3.org/Graphics/SVG/1.1/DTD/svg11.dtd">
<!-- Generated by graphviz version 2.40.1 (20161225.0304)
 -->
<!-- Title: %3 Pages: 1 -->
<svg width="800pt" height="702pt"
 viewBox="0.00 0.00 800.00 702.00" xmlns="http://www.w3.org/2000/svg" xmlns:xlink="http://www.w3.org/1999/xlink">
<g id="graph0" class="graph" transform="scale(1 1) rotate(0) translate(4 698)">
<title>%3</title>
<polygon fill="#ffffff" stroke="transparent" points="-4,4 -4,-698 796,-698 796,4 -4,4"/>
<!-- customer -->
<g id="node1" class="node">
<title>customer</title>
<polygon fill="none" stroke="#000000" points="8.5,-258 8.5,-277 137.5,-277 137.5,-258 8.5,-258"/>
<text text-anchor="start" x="51" y="-266.6" font-family="Verdana" font-weight="bold" font-size="8.00" fill="#000000">customer</text>
<polygon fill="none" stroke="#000000" points="8.5,-239 8.5,-258 137.5,-258 137.5,-239 8.5,-239"/>
<text text-anchor="start" x="13.5" y="-247.6" font-family="Verdana" font-size="8.00" fill="#000000">date_created</text>
<text text-anchor="start" x="69.5" y="-247.6" font-family="Verdana" font-size="8.00" fill="#000000"> [DATETIME]</text>
<polygon fill="none" stroke="#000000" points="8.5,-220 8.5,-239 137.5,-239 137.5,-220 8.5,-220"/>
<text text-anchor="start" x="13.5" y="-228.6" font-family="Verdana" font-size="8.00" fill="#000000">date_modified</text>
<text text-anchor="start" x="74.5" y="-228.6" font-family="Verdana" font-size="8.00" fill="#000000"> [DATETIME]</text>
<polygon fill="none" stroke="#000000" points="8.5,-201 8.5,-220 137.5,-220 137.5,-201 8.5,-201"/>
<text text-anchor="start" x="13.5" y="-209.6" font-family="Verdana" text-decoration="underline" font-size="8.00" fill="#000000">id</text>
<text text-anchor="start" x="21.5" y="-209.6" font-family="Verdana" font-size="8.00" fill="#000000"> [VARCHAR]</text>
<polygon fill="none" stroke="#000000" points="8.5,-182 8.5,-201 137.5,-201 137.5,-182 8.5,-182"/>
<text text-anchor="start" x="13.5" y="-190.6" font-family="Verdana" font-size="8.00" fill="#000000">description</text>
<text text-anchor="start" x="60.5" y="-190.6" font-family="Verdana" font-size="8.00" fill="#000000"> [VARCHAR(200)]</text>
<polygon fill="none" stroke="#000000" points="8.5,-163 8.5,-182 137.5,-182 137.5,-163 8.5,-163"/>
<text text-anchor="start" x="13.5" y="-171.6" font-family="Verdana" font-size="8.00" fill="#000000">name</text>
<text text-anchor="start" x="38.5" y="-171.6" font-family="Verdana" font-size="8.00" fill="#000000"> [VARCHAR(64)]</text>
</g>
<!-- order -->
<g id="node8" class="node">
<title>order</title>
<polygon fill="none" stroke="#000000" points="226.5,-277 226.5,-296 355.5,-296 355.5,-277 226.5,-277"/>
<text text-anchor="start" x="278.5" y="-285.6" font-family="Verdana" font-weight="bold" font-size="8.00" fill="#000000">order</text>
<polygon fill="none" stroke="#000000" points="226.5,-258 226.5,-277 355.5,-277 355.5,-258 226.5,-258"/>
<text text-anchor="start" x="231.5" y="-266.6" font-family="Verdana" font-size="8.00" fill="#000000">date_created</text>
<text text-anchor="start" x="287.5" y="-266.6" font-family="Verdana" font-size="8.00" fill="#000000"> [DATETIME]</text>
<polygon fill="none" stroke="#000000" points="226.5,-239 226.5,-258 355.5,-258 355.5,-239 226.5,-239"/>
<text text-anchor="start" x="231.5" y="-247.6" font-family="Verdana" font-size="8.00" fill="#000000">date_modified</text>
<text text-anchor="start" x="292.5" y="-247.6" font-family="Verdana" font-size="8.00" fill="#000000"> [DATETIME]</text>
<polygon fill="none" stroke="#000000" points="226.5,-220 226.5,-239 355.5,-239 355.5,-220 226.5,-220"/>
<text text-anchor="start" x="231.5" y="-228.6" font-family="Verdana" text-decoration="underline" font-size="8.00" fill="#000000">id</text>
<text text-anchor="start" x="239.5" y="-228.6" font-family="Verdana" font-size="8.00" fill="#000000"> [VARCHAR]</text>
<polygon fill="none" stroke="#000000" points="226.5,-201 226.5,-220 355.5,-220 355.5,-201 226.5,-201"/>
<text text-anchor="start" x="231.5" y="-209.6" font-family="Verdana" font-size="8.00" fill="#000000">description</text>
<text text-anchor="start" x="278.5" y="-209.6" font-family="Verdana" font-size="8.00" fill="#000000"> [VARCHAR(200)]</text>
<polygon fill="none" stroke="#000000" points="226.5,-182 226.5,-201 355.5,-201 355.5,-182 226.5,-182"/>
<text text-anchor="start" x="231.5" y="-190.6" font-family="Verdana" font-size="8.00" fill="#000000">name</text>
<text text-anchor="start" x="256.5" y="-190.6" font-family="Verdana" font-size="8.00" fill="#000000"> [VARCHAR(64)]</text>
<polygon fill="none" stroke="#000000" points="226.5,-163 226.5,-182 355.5,-182 355.5,-163 226.5,-163"/>
<text text-anchor="start" x="231.5" y="-171.6" font-family="Verdana" font-size="8.00" fill="#000000">customer_id</text>
<text text-anchor="start" x="283.5" y="-171.6" font-family="Verdana" font-size="8.00" fill="#000000"> [VARCHAR]</text>
<polygon fill="none" stroke="#000000" points="226.5,-144 226.5,-163 355.5,-163 355.5,-144 226.5,-144"/>
<text text-anchor="start" x="231.5" y="-152.6" font-family="Verdana" font-size="8.00" fill="#000000">amount</text>
<text text-anchor="start" x="264.5" y="-152.6" font-family="Verdana" font-size="8.00" fill="#000000"> [FLOAT]</text>
</g>
<!-- customer&#45;&#45;order -->
<g id="edge10" class="edge">
<title>customer&#45;&#45;order</title>
<path fill="none" stroke="#7f7f7f" stroke-dasharray="5,2" d="M145.0908,-220C168.5004,-220 194.4413,-220 217.8547,-220"/>
<text text-anchor="start" x="192.8547" y="-213.6" font-family="Verdana" font-size="8.00" fill="#000000">{0,1}</text>
<text text-anchor="start" x="145.0908" y="-213.6" font-family="Verdana" font-size="8.00" fill="#000000">0..N</text>
</g>
<!-- task -->
<g id="node2" class="node">
<title>task</title>
<polygon fill="none" stroke="#000000" points="444,-507 444,-526 566,-526 566,-507 444,-507"/>
<text text-anchor="start" x="495" y="-515.6" font-family="Verdana" font-weight="bold" font-size="8.00" fill="#000000">task</text>
<polygon fill="none" stroke="#000000" points="444,-488 444,-507 566,-507 566,-488 444,-488"/>
<text text-anchor="start" x="449" y="-496.6" font-family="Verdana" font-size="8.00" fill="#000000">date_created</text>
<text text-anchor="start" x="505" y="-496.6" font-family="Verdana" font-size="8.00" fill="#000000"> [DATETIME]</text>
<polygon fill="none" stroke="#000000" points="444,-469 444,-488 566,-488 566,-469 444,-469"/>
<text text-anchor="start" x="449" y="-477.6" font-family="Verdana" font-size="8.00" fill="#000000">date_modified</text>
<text text-anchor="start" x="510" y="-477.6" font-family="Verdana" font-size="8.00" fill="#000000"> [DATETIME]</text>
<polygon fill="none" stroke="#000000" points="444,-450 444,-469 566,-469 566,-450 444,-450"/>
<text text-anchor="start" x="449" y="-458.6" font-family="Verdana" font-size="8.00" fill="#000000">description</text>
<text text-anchor="start" x="496" y="-458.6" font-family="Verdana" font-size="8.00" fill="#000000"> [TEXT(200)]</text>
<polygon fill="none" stroke="#000000" points="444,-431 444,-450 566,-450 566,-431 444,-431"/>
<text text-anchor="start" x="449" y="-439.6" font-family="Verdana" font-size="8.00" fill="#000000">name</text>
<text text-anchor="start" x="474" y="-439.6" font-family="Verdana" font-size="8.00" fill="#000000"> [TEXT(64)]</text>
<polygon fill="none" stroke="#000000" points="444,-412 444,-431 566,-431 566,-412 444,-412"/>
<text text-anchor="start" x="449" y="-420.6" font-family="Verdana" text-decoration="underline" font-size="8.00" fill="#000000">id</text>
<text text-anchor="start" x="457" y="-420.6" font-family="Verdana" font-size="8.00" fill="#000000"> [VARCHAR]</text>
<polygon fill="none" stroke="#000000" points="444,-393 444,-412 566,-412 566,-393 444,-393"/>
<text text-anchor="start" x="449" y="-401.6" font-family="Verdana" font-size="8.00" fill="#000000">content</text>
<text text-anchor="start" x="481" y="-401.6" font-family="Verdana" font-size="8.00" fill="#000000"> [TEXT(1024)]</text>
<polygon fill="none" stroke="#000000" points="444,-374 444,-393 566,-393 566,-374 444,-374"/>
<text text-anchor="start" x="449" y="-382.6" font-family="Verdana" font-size="8.00" fill="#000000">department</text>
<text text-anchor="start" x="499" y="-382.6" font-family="Verdana" font-size="8.00" fill="#000000"> [TEXT(16)]</text>
<polygon fill="none" stroke="#000000" points="444,-355 444,-374 566,-374 566,-355 444,-355"/>
<text text-anchor="start" x="449" y="-363.6" font-family="Verdana" font-size="8.00" fill="#000000">created_by</text>
<text text-anchor="start" x="497" y="-363.6" font-family="Verdana" font-size="8.00" fill="#000000"> [TEXT(64)]</text>
<polygon fill="none" stroke="#000000" points="444,-336 444,-355 566,-355 566,-336 444,-336"/>
<text text-anchor="start" x="449" y="-344.6" font-family="Verdana" font-size="8.00" fill="#000000">status</text>
<text text-anchor="start" x="475" y="-344.6" font-family="Verdana" font-size="8.00" fill="#000000"> [TEXT(16)]</text>
<polygon fill="none" stroke="#000000" points="444,-317 444,-336 566,-336 566,-317 444,-317"/>
<text text-anchor="start" x="449" y="-325.6" font-family="Verdana" font-size="8.00" fill="#000000">priority</text>
<text text-anchor="start" x="480" y="-325.6" font-family="Verdana" font-size="8.00" fill="#000000"> [TEXT(16)]</text>
<polygon fill="none" stroke="#000000" points="444,-298 444,-317 566,-317 566,-298 444,-298"/>
<text text-anchor="start" x="449" y="-306.6" font-family="Verdana" font-size="8.00" fill="#000000">planned_time</text>
<text text-anchor="start" x="507" y="-306.6" font-family="Verdana" font-size="8.00" fill="#000000"> [FLOAT]</text>
<polygon fill="none" stroke="#000000" points="444,-279 444,-298 566,-298 566,-279 444,-279"/>
<text text-anchor="start" x="449" y="-287.6" font-family="Verdana" font-size="8.00" fill="#000000">project_id</text>
<text text-anchor="start" x="491" y="-287.6" font-family="Verdana" font-size="8.00" fill="#000000"> [VARCHAR]</text>
<polygon fill="none" stroke="#000000" points="444,-260 444,-279 566,-279 566,-260 444,-260"/>
<text text-anchor="start" x="449" y="-268.6" font-family="Verdana" font-size="8.00" fill="#000000">order_id</text>
<text text-anchor="start" x="485" y="-268.6" font-family="Verdana" font-size="8.00" fill="#000000"> [VARCHAR]</text>
<polygon fill="none" stroke="#000000" points="444,-241 444,-260 566,-260 566,-241 444,-241"/>
<text text-anchor="start" x="449" y="-249.6" font-family="Verdana" font-size="8.00" fill="#000000">milestone_id</text>
<text text-anchor="start" x="503" y="-249.6" font-family="Verdana" font-size="8.00" fill="#000000"> [VARCHAR]</text>
<polygon fill="none" stroke="#000000" points="444,-222 444,-241 566,-241 566,-222 444,-222"/>
<text text-anchor="start" x="449" y="-230.6" font-family="Verdana" font-size="8.00" fill="#000000">assignee_id</text>
<text text-anchor="start" x="499" y="-230.6" font-family="Verdana" font-size="8.00" fill="#000000"> [VARCHAR]</text>
<polygon fill="none" stroke="#000000" points="444,-203 444,-222 566,-222 566,-203 444,-203"/>
<text text-anchor="start" x="449" y="-211.6" font-family="Verdana" font-size="8.00" fill="#000000">parent_id</text>
<text text-anchor="start" x="489" y="-211.6" font-family="Verdana" font-size="8.00" fill="#000000"> [VARCHAR]</text>
<polygon fill="none" stroke="#000000" points="444,-184 444,-203 566,-203 566,-184 444,-184"/>
<text text-anchor="start" x="449" y="-192.6" font-family="Verdana" font-size="8.00" fill="#000000">cathegory</text>
<text text-anchor="start" x="492" y="-192.6" font-family="Verdana" font-size="8.00" fill="#000000"> [TEXT(16)]</text>
</g>
<!-- task&#45;&#45;task -->
<g id="edge3" class="edge">
<title>task&#45;&#45;task</title>
<path fill="none" stroke="#7f7f7f" stroke-dasharray="5,2" d="M491.2489,-530.1464C494.4749,-541.2811 499.0586,-548 505,-548 510.9414,-548 515.5251,-541.2811 518.7511,-530.1464"/>
<text text-anchor="start" x="493.7511" y="-532.7464" font-family="Verdana" font-size="8.00" fill="#000000">{0,1}</text>
<text text-anchor="start" x="473.2489" y="-532.7464" font-family="Verdana" font-size="8.00" fill="#000000">0..N</text>
</g>
<!-- followings -->
<g id="node3" class="node">
<title>followings</title>
<polygon fill="none" stroke="#000000" points="674.5,-607 674.5,-626 765.5,-626 765.5,-607 674.5,-607"/>
<text text-anchor="start" x="695" y="-615.6" font-family="Verdana" font-weight="bold" font-size="8.00" fill="#000000">followings</text>
<polygon fill="none" stroke="#000000" points="674.5,-588 674.5,-607 765.5,-607 765.5,-588 674.5,-588"/>
<text text-anchor="start" x="679.5" y="-596.6" font-family="Verdana" text-decoration="underline" font-size="8.00" fill="#000000">user_id</text>
<text text-anchor="start" x="710.5" y="-596.6" font-family="Verdana" font-size="8.00" fill="#000000"> [VARCHAR]</text>
<polygon fill="none" stroke="#000000" points="674.5,-569 674.5,-588 765.5,-588 765.5,-569 674.5,-569"/>
<text text-anchor="start" x="679.5" y="-577.6" font-family="Verdana" text-decoration="underline" font-size="8.00" fill="#000000">task_id</text>
<text text-anchor="start" x="709.5" y="-577.6" font-family="Verdana" font-size="8.00" fill="#000000"> [VARCHAR]</text>
</g>
<!-- task&#45;&#45;followings -->
<g id="edge7" class="edge">
<title>task&#45;&#45;followings</title>
<path fill="none" stroke="#7f7f7f" stroke-dasharray="5,2" d="M574.178,-439.8972C596.9424,-467.1356 622.6617,-497.1829 647,-524 659.5707,-537.851 673.8931,-552.661 686.4692,-565.3648"/>
<text text-anchor="start" x="661.4692" y="-558.9648" font-family="Verdana" font-size="8.00" fill="#000000">{0,1}</text>
<text text-anchor="start" x="574.178" y="-433.4972" font-family="Verdana" font-size="8.00" fill="#000000">0..N</text>
</g>
<!-- work_time -->
<g id="node4" class="node">
<title>work_time</title>
<polygon fill="none" stroke="#000000" points="655.5,-492 655.5,-511 784.5,-511 784.5,-492 655.5,-492"/>
<text text-anchor="start" x="696" y="-500.6" font-family="Verdana" font-weight="bold" font-size="8.00" fill="#000000">work_time</text>
<polygon fill="none" stroke="#000000" points="655.5,-473 655.5,-492 784.5,-492 784.5,-473 655.5,-473"/>
<text text-anchor="start" x="660.5" y="-481.6" font-family="Verdana" font-size="8.00" fill="#000000">date_created</text>
<text text-anchor="start" x="716.5" y="-481.6" font-family="Verdana" font-size="8.00" fill="#000000"> [DATETIME]</text>
<polygon fill="none" stroke="#000000" points="655.5,-454 655.5,-473 784.5,-473 784.5,-454 655.5,-454"/>
<text text-anchor="start" x="660.5" y="-462.6" font-family="Verdana" font-size="8.00" fill="#000000">date_modified</text>
<text text-anchor="start" x="721.5" y="-462.6" font-family="Verdana" font-size="8.00" fill="#000000"> [DATETIME]</text>
<polygon fill="none" stroke="#000000" points="655.5,-435 655.5,-454 784.5,-454 784.5,-435 655.5,-435"/>
<text text-anchor="start" x="660.5" y="-443.6" font-family="Verdana" text-decoration="underline" font-size="8.00" fill="#000000">id</text>
<text text-anchor="start" x="668.5" y="-443.6" font-family="Verdana" font-size="8.00" fill="#000000"> [VARCHAR]</text>
<polygon fill="none" stroke="#000000" points="655.5,-416 655.5,-435 784.5,-435 784.5,-416 655.5,-416"/>
<text text-anchor="start" x="660.5" y="-424.6" font-family="Verdana" font-size="8.00" fill="#000000">description</text>
<text text-anchor="start" x="707.5" y="-424.6" font-family="Verdana" font-size="8.00" fill="#000000"> [VARCHAR(200)]</text>
<polygon fill="none" stroke="#000000" points="655.5,-397 655.5,-416 784.5,-416 784.5,-397 655.5,-397"/>
<text text-anchor="start" x="660.5" y="-405.6" font-family="Verdana" font-size="8.00" fill="#000000">task_id</text>
<text text-anchor="start" x="690.5" y="-405.6" font-family="Verdana" font-size="8.00" fill="#000000"> [VARCHAR]</text>
<polygon fill="none" stroke="#000000" points="655.5,-378 655.5,-397 784.5,-397 784.5,-378 655.5,-378"/>
<text text-anchor="start" x="660.5" y="-386.6" font-family="Verdana" font-size="8.00" fill="#000000">user_id</text>
<text text-anchor="start" x="691.5" y="-386.6" font-family="Verdana" font-size="8.00" fill="#000000"> [VARCHAR]</text>
<polygon fill="none" stroke="#000000" points="655.5,-359 655.5,-378 784.5,-378 784.5,-359 655.5,-359"/>
<text text-anchor="start" x="660.5" y="-367.6" font-family="Verdana" font-size="8.00" fill="#000000">duration</text>
<text text-anchor="start" x="696.5" y="-367.6" font-family="Verdana" font-size="8.00" fill="#000000"> [FLOAT]</text>
</g>
<!-- task&#45;&#45;work_time -->
<g id="edge8" class="edge">
<title>task&#45;&#45;work_time</title>
<path fill="none" stroke="#7f7f7f" stroke-dasharray="5,2" d="M574.0499,-380.7529C597.3194,-389.4315 623.3485,-399.1393 646.8848,-407.9174"/>
<text text-anchor="start" x="621.8848" y="-401.5174" font-family="Verdana" font-size="8.00" fill="#000000">{0,1}</text>
<text text-anchor="start" x="574.0499" y="-374.3529" font-family="Verdana" font-size="8.00" fill="#000000">0..N</text>
</g>
<!-- project -->
<g id="node5" class="node">
<title>project</title>
<polygon fill="none" stroke="#000000" points="226.5,-99 226.5,-118 355.5,-118 355.5,-99 226.5,-99"/>
<text text-anchor="start" x="274" y="-107.6" font-family="Verdana" font-weight="bold" font-size="8.00" fill="#000000">project</text>
<polygon fill="none" stroke="#000000" points="226.5,-80 226.5,-99 355.5,-99 355.5,-80 226.5,-80"/>
<text text-anchor="start" x="231.5" y="-88.6" font-family="Verdana" font-size="8.00" fill="#000000">date_created</text>
<text text-anchor="start" x="287.5" y="-88.6" font-family="Verdana" font-size="8.00" fill="#000000"> [DATETIME]</text>
<polygon fill="none" stroke="#000000" points="226.5,-61 226.5,-80 355.5,-80 355.5,-61 226.5,-61"/>
<text text-anchor="start" x="231.5" y="-69.6" font-family="Verdana" font-size="8.00" fill="#000000">date_modified</text>
<text text-anchor="start" x="292.5" y="-69.6" font-family="Verdana" font-size="8.00" fill="#000000"> [DATETIME]</text>
<polygon fill="none" stroke="#000000" points="226.5,-42 226.5,-61 355.5,-61 355.5,-42 226.5,-42"/>
<text text-anchor="start" x="231.5" y="-50.6" font-family="Verdana" text-decoration="underline" font-size="8.00" fill="#000000">id</text>
<text text-anchor="start" x="239.5" y="-50.6" font-family="Verdana" font-size="8.00" fill="#000000"> [VARCHAR]</text>
<polygon fill="none" stroke="#000000" points="226.5,-23 226.5,-42 355.5,-42 355.5,-23 226.5,-23"/>
<text text-anchor="start" x="231.5" y="-31.6" font-family="Verdana" font-size="8.00" fill="#000000">description</text>
<text text-anchor="start" x="278.5" y="-31.6" font-family="Verdana" font-size="8.00" fill="#000000"> [VARCHAR(200)]</text>
<polygon fill="none" stroke="#000000" points="226.5,-4 226.5,-23 355.5,-23 355.5,-4 226.5,-4"/>
<text text-anchor="start" x="231.5" y="-12.6" font-family="Verdana" font-size="8.00" fill="#000000">name</text>
<text text-anchor="start" x="256.5" y="-12.6" font-family="Verdana" font-size="8.00" fill="#000000"> [VARCHAR(64)]</text>
</g>
<!-- project&#45;&#45;task -->
<g id="edge4" class="edge">
<title>project&#45;&#45;task</title>
<path fill="none" stroke="#7f7f7f" stroke-dasharray="5,2" d="M355.3894,-122.06C358.0182,-125.029 360.5678,-128.0166 363,-131 389.0394,-162.9407 414.2278,-199.9266 435.9775,-234.526"/>
<text text-anchor="start" x="410.9775" y="-228.126" font-family="Verdana" font-size="8.00" fill="#000000">{0,1}</text>
<text text-anchor="start" x="337.3894" y="-124.66" font-family="Verdana" font-size="8.00" fill="#000000">0..N</text>
</g>
<!-- user -->
<g id="node6" class="node">
<title>user</title>
<polygon fill="none" stroke="#000000" points="226.5,-671 226.5,-690 355.5,-690 355.5,-671 226.5,-671"/>
<text text-anchor="start" x="280.5" y="-679.6" font-family="Verdana" font-weight="bold" font-size="8.00" fill="#000000">user</text>
<polygon fill="none" stroke="#000000" points="226.5,-652 226.5,-671 355.5,-671 355.5,-652 226.5,-652"/>
<text text-anchor="start" x="231.5" y="-660.6" font-family="Verdana" font-size="8.00" fill="#000000">date_created</text>
<text text-anchor="start" x="287.5" y="-660.6" font-family="Verdana" font-size="8.00" fill="#000000"> [DATETIME]</text>
<polygon fill="none" stroke="#000000" points="226.5,-633 226.5,-652 355.5,-652 355.5,-633 226.5,-633"/>
<text text-anchor="start" x="231.5" y="-641.6" font-family="Verdana" font-size="8.00" fill="#000000">date_modified</text>
<text text-anchor="start" x="292.5" y="-641.6" font-family="Verdana" font-size="8.00" fill="#000000"> [DATETIME]</text>
<polygon fill="none" stroke="#000000" points="226.5,-614 226.5,-633 355.5,-633 355.5,-614 226.5,-614"/>
<text text-anchor="start" x="231.5" y="-622.6" font-family="Verdana" text-decoration="underline" font-size="8.00" fill="#000000">id</text>
<text text-anchor="start" x="239.5" y="-622.6" font-family="Verdana" font-size="8.00" fill="#000000"> [VARCHAR]</text>
<polygon fill="none" stroke="#000000" points="226.5,-595 226.5,-614 355.5,-614 355.5,-595 226.5,-595"/>
<text text-anchor="start" x="231.5" y="-603.6" font-family="Verdana" font-size="8.00" fill="#000000">description</text>
<text text-anchor="start" x="278.5" y="-603.6" font-family="Verdana" font-size="8.00" fill="#000000"> [VARCHAR(200)]</text>
<polygon fill="none" stroke="#000000" points="226.5,-576 226.5,-595 355.5,-595 355.5,-576 226.5,-576"/>
<text text-anchor="start" x="231.5" y="-584.6" font-family="Verdana" font-size="8.00" fill="#000000">name</text>
<text text-anchor="start" x="256.5" y="-584.6" font-family="Verdana" font-size="8.00" fill="#000000"> [VARCHAR(64)]</text>
<polygon fill="none" stroke="#000000" points="226.5,-557 226.5,-576 355.5,-576 355.5,-557 226.5,-557"/>
<text text-anchor="start" x="231.5" y="-565.6" font-family="Verdana" font-size="8.00" fill="#000000">email</text>
<text text-anchor="start" x="255.5" y="-565.6" font-family="Verdana" font-size="8.00" fill="#000000"> [VARCHAR(32)]</text>
<polygon fill="none" stroke="#000000" points="226.5,-538 226.5,-557 355.5,-557 355.5,-538 226.5,-538"/>
<text text-anchor="start" x="231.5" y="-546.6" font-family="Verdana" font-size="8.00" fill="#000000">password</text>
<text text-anchor="start" x="272.5" y="-546.6" font-family="Verdana" font-size="8.00" fill="#000000"> [VARCHAR(128)]</text>
<polygon fill="none" stroke="#000000" points="226.5,-519 226.5,-538 355.5,-538 355.5,-519 226.5,-519"/>
<text text-anchor="start" x="231.5" y="-527.6" font-family="Verdana" font-size="8.00" fill="#000000">role</text>
<text text-anchor="start" x="248.5" y="-527.6" font-family="Verdana" font-size="8.00" fill="#000000"> [VARCHAR(32)]</text>
<polygon fill="none" stroke="#000000" points="226.5,-500 226.5,-519 355.5,-519 355.5,-500 226.5,-500"/>
<text text-anchor="start" x="231.5" y="-508.6" font-family="Verdana" font-size="8.00" fill="#000000">cost_per_hour</text>
<text text-anchor="start" x="292.5" y="-508.6" font-family="Verdana" font-size="8.00" fill="#000000"> [FLOAT]</text>
</g>
<!-- user&#45;&#45;task -->
<g id="edge2" class="edge">
<title>user&#45;&#45;task</title>
<path fill="none" stroke="#7f7f7f" stroke-dasharray="5,2" d="M363.1199,-513.7469C386.577,-487.5013 412.5099,-458.4854 435.719,-432.5172"/>
<text text-anchor="start" x="410.719" y="-426.1172" font-family="Verdana" font-size="8.00" fill="#000000">{0,1}</text>
<text text-anchor="start" x="363.1199" y="-507.3469" font-family="Verdana" font-size="8.00" fill="#000000">0..N</text>
</g>
<!-- user&#45;&#45;followings -->
<g id="edge6" class="edge">
<title>user&#45;&#45;followings</title>
<path fill="none" stroke="#7f7f7f" stroke-dasharray="5,2" d="M363.274,-595.5089C448.9748,-596.1082 589.3092,-597.0896 665.7519,-597.6241"/>
<text text-anchor="start" x="640.7519" y="-591.2241" font-family="Verdana" font-size="8.00" fill="#000000">{0,1}</text>
<text text-anchor="start" x="363.274" y="-589.1089" font-family="Verdana" font-size="8.00" fill="#000000">0..N</text>
</g>
<!-- user&#45;&#45;work_time -->
<g id="edge9" class="edge">
<title>user&#45;&#45;work_time</title>
<path fill="none" stroke="#7f7f7f" stroke-dasharray="5,2" d="M363.2059,-589.8785C434.4054,-584.0398 537.3692,-573.1614 574,-557 600.0886,-545.4898 625.1588,-527.8292 646.9202,-509.4887"/>
<text text-anchor="start" x="621.9202" y="-503.0887" font-family="Verdana" font-size="8.00" fill="#000000">{0,1}</text>
<text text-anchor="start" x="363.2059" y="-583.4785" font-family="Verdana" font-size="8.00" fill="#000000">0..N</text>
</g>
<!-- milestone -->
<g id="node7" class="node">
<title>milestone</title>
<polygon fill="none" stroke="#000000" points="229.5,-455 229.5,-474 351.5,-474 351.5,-455 229.5,-455"/>
<text text-anchor="start" x="267.5" y="-463.6" font-family="Verdana" font-weight="bold" font-size="8.00" fill="#000000">milestone</text>
<polygon fill="none" stroke="#000000" points="229.5,-436 229.5,-455 351.5,-455 351.5,-436 229.5,-436"/>
<text text-anchor="start" x="234.5" y="-444.6" font-family="Verdana" font-size="8.00" fill="#000000">date_created</text>
<text text-anchor="start" x="290.5" y="-444.6" font-family="Verdana" font-size="8.00" fill="#000000"> [DATETIME]</text>
<polygon fill="none" stroke="#000000" points="229.5,-417 229.5,-436 351.5,-436 351.5,-417 229.5,-417"/>
<text text-anchor="start" x="234.5" y="-425.6" font-family="Verdana" font-size="8.00" fill="#000000">date_modified</text>
<text text-anchor="start" x="295.5" y="-425.6" font-family="Verdana" font-size="8.00" fill="#000000"> [DATETIME]</text>
<polygon fill="none" stroke="#000000" points="229.5,-398 229.5,-417 351.5,-417 351.5,-398 229.5,-398"/>
<text text-anchor="start" x="234.5" y="-406.6" font-family="Verdana" text-decoration="underline" font-size="8.00" fill="#000000">id</text>
<text text-anchor="start" x="242.5" y="-406.6" font-family="Verdana" font-size="8.00" fill="#000000"> [VARCHAR]</text>
<polygon fill="none" stroke="#000000" points="229.5,-379 229.5,-398 351.5,-398 351.5,-379 229.5,-379"/>
<text text-anchor="start" x="234.5" y="-387.6" font-family="Verdana" font-size="8.00" fill="#000000">description</text>
<text text-anchor="start" x="281.5" y="-387.6" font-family="Verdana" font-size="8.00" fill="#000000"> [TEXT(200)]</text>
<polygon fill="none" stroke="#000000" points="229.5,-360 229.5,-379 351.5,-379 351.5,-360 229.5,-360"/>
<text text-anchor="start" x="234.5" y="-368.6" font-family="Verdana" font-size="8.00" fill="#000000">name</text>
<text text-anchor="start" x="259.5" y="-368.6" font-family="Verdana" font-size="8.00" fill="#000000"> [TEXT(64)]</text>
<polygon fill="none" stroke="#000000" points="229.5,-341 229.5,-360 351.5,-360 351.5,-341 229.5,-341"/>
<text text-anchor="start" x="234.5" y="-349.6" font-family="Verdana" font-size="8.00" fill="#000000">due_date</text>
<text text-anchor="start" x="274.5" y="-349.6" font-family="Verdana" font-size="8.00" fill="#000000"> [DATE]</text>
<polygon fill="none" stroke="#000000" points="229.5,-322 229.5,-341 351.5,-341 351.5,-322 229.5,-322"/>
<text text-anchor="start" x="234.5" y="-330.6" font-family="Verdana" font-size="8.00" fill="#000000">start_date</text>
<text text-anchor="start" x="277.5" y="-330.6" font-family="Verdana" font-size="8.00" fill="#000000"> [DATE]</text>
</g>
<!-- milestone&#45;&#45;task -->
<g id="edge1" class="edge">
<title>milestone&#45;&#45;task</title>
<path fill="none" stroke="#7f7f7f" stroke-dasharray="5,2" d="M359.5499,-384.1578C383.9216,-379.2721 411.3207,-373.7795 435.712,-368.8899"/>
<text text-anchor="start" x="410.712" y="-362.4899" font-family="Verdana" font-size="8.00" fill="#000000">{0,1}</text>
<text text-anchor="start" x="359.5499" y="-377.7578" font-family="Verdana" font-size="8.00" fill="#000000">0..N</text>
</g>
<!-- order&#45;&#45;task -->
<g id="edge5" class="edge">
<title>order&#45;&#45;task</title>
<path fill="none" stroke="#7f7f7f" stroke-dasharray="5,2" d="M363.1199,-265.7048C386.577,-280.468 412.5099,-296.7894 435.719,-311.3966"/>
<text text-anchor="start" x="410.719" y="-304.9966" font-family="Verdana" font-size="8.00" fill="#000000">{0,1}</text>
<text text-anchor="start" x="363.1199" y="-259.3048" font-family="Verdana" font-size="8.00" fill="#000000">0..N</text>
</g>
</g>
</svg>
