<?xml version="1.0" encoding="UTF-8" standalone="no"?>
<!DOCTYPE svg PUBLIC "-//W3C//DTD SVG 1.1//EN"
 "http://www.w3.org/Graphics/SVG/1.1/DTD/svg11.dtd">
<!-- Generated by graphviz version 2.40.1 (20161225.0304)
 -->
<!-- Title: %3 Pages: 1 -->
<svg width="895pt" height="1117pt"
 viewBox="0.00 0.00 895.00 1117.10" xmlns="http://www.w3.org/2000/svg" xmlns:xlink="http://www.w3.org/1999/xlink">
<g id="graph0" class="graph" transform="scale(1 1) rotate(0) translate(4 1113.1015)">
<title>%3</title>
<polygon fill="#ffffff" stroke="transparent" points="-4,4 -4,-1113.1015 891,-1113.1015 891,4 -4,4"/>
<!-- customer -->
<g id="node1" class="node">
<title>customer</title>
<polygon fill="none" stroke="#000000" points="8.5,-695 8.5,-723 137.5,-723 137.5,-695 8.5,-695"/>
<text text-anchor="start" x="31.5" y="-706.2" font-family="Verdana" font-weight="bold" font-size="16.00" fill="#000000">customer</text>
<polygon fill="none" stroke="#000000" points="8.5,-676 8.5,-695 137.5,-695 137.5,-676 8.5,-676"/>
<text text-anchor="start" x="13.5" y="-684.6" font-family="Verdana" font-size="8.00" fill="#000000">date_created</text>
<text text-anchor="start" x="69.5" y="-684.6" font-family="Verdana" font-size="8.00" fill="#000000"> [DATETIME]</text>
<polygon fill="none" stroke="#000000" points="8.5,-657 8.5,-676 137.5,-676 137.5,-657 8.5,-657"/>
<text text-anchor="start" x="13.5" y="-665.6" font-family="Verdana" font-size="8.00" fill="#000000">date_modified</text>
<text text-anchor="start" x="74.5" y="-665.6" font-family="Verdana" font-size="8.00" fill="#000000"> [DATETIME]</text>
<polygon fill="none" stroke="#000000" points="8.5,-638 8.5,-657 137.5,-657 137.5,-638 8.5,-638"/>
<text text-anchor="start" x="13.5" y="-646.6" font-family="Verdana" text-decoration="underline" font-size="8.00" fill="#000000">id</text>
<text text-anchor="start" x="21.5" y="-646.6" font-family="Verdana" font-size="8.00" fill="#000000"> [VARCHAR]</text>
<polygon fill="none" stroke="#000000" points="8.5,-619 8.5,-638 137.5,-638 137.5,-619 8.5,-619"/>
<text text-anchor="start" x="13.5" y="-627.6" font-family="Verdana" font-size="8.00" fill="#000000">description</text>
<text text-anchor="start" x="60.5" y="-627.6" font-family="Verdana" font-size="8.00" fill="#000000"> [VARCHAR(200)]</text>
<polygon fill="none" stroke="#000000" points="8.5,-600 8.5,-619 137.5,-619 137.5,-600 8.5,-600"/>
<text text-anchor="start" x="13.5" y="-608.6" font-family="Verdana" font-size="8.00" fill="#000000">name</text>
<text text-anchor="start" x="38.5" y="-608.6" font-family="Verdana" font-size="8.00" fill="#000000"> [VARCHAR(64)]</text>
</g>
<!-- claim -->
<g id="node2" class="node">
<title>claim</title>
<polygon fill="none" stroke="#000000" points="444.5,-1034 444.5,-1062 661.5,-1062 661.5,-1034 444.5,-1034"/>
<text text-anchor="start" x="529.5" y="-1045.2" font-family="Verdana" font-weight="bold" font-size="16.00" fill="#000000">claim</text>
<polygon fill="none" stroke="#000000" points="444.5,-1015 444.5,-1034 661.5,-1034 661.5,-1015 444.5,-1015"/>
<text text-anchor="start" x="449.5" y="-1023.6" font-family="Verdana" font-size="8.00" fill="#000000">date_created</text>
<text text-anchor="start" x="505.5" y="-1023.6" font-family="Verdana" font-size="8.00" fill="#000000"> [DATETIME]</text>
<polygon fill="none" stroke="#000000" points="444.5,-996 444.5,-1015 661.5,-1015 661.5,-996 444.5,-996"/>
<text text-anchor="start" x="449.5" y="-1004.6" font-family="Verdana" font-size="8.00" fill="#000000">date_modified</text>
<text text-anchor="start" x="510.5" y="-1004.6" font-family="Verdana" font-size="8.00" fill="#000000"> [DATETIME]</text>
<polygon fill="none" stroke="#000000" points="444.5,-977 444.5,-996 661.5,-996 661.5,-977 444.5,-977"/>
<text text-anchor="start" x="449.5" y="-985.6" font-family="Verdana" font-size="8.00" fill="#000000">description</text>
<text text-anchor="start" x="496.5" y="-985.6" font-family="Verdana" font-size="8.00" fill="#000000"> [VARCHAR(200)]</text>
<polygon fill="none" stroke="#000000" points="444.5,-958 444.5,-977 661.5,-977 661.5,-958 444.5,-958"/>
<text text-anchor="start" x="449.5" y="-966.6" font-family="Verdana" font-size="8.00" fill="#000000">name</text>
<text text-anchor="start" x="474.5" y="-966.6" font-family="Verdana" font-size="8.00" fill="#000000"> [VARCHAR(64)]</text>
<polygon fill="none" stroke="#000000" points="444.5,-939 444.5,-958 661.5,-958 661.5,-939 444.5,-939"/>
<text text-anchor="start" x="449.5" y="-947.6" font-family="Verdana" font-size="8.00" fill="#000000">department</text>
<text text-anchor="start" x="499.5" y="-947.6" font-family="Verdana" font-size="8.00" fill="#000000"> [VARCHAR(16)]</text>
<polygon fill="none" stroke="#000000" points="444.5,-920 444.5,-939 661.5,-939 661.5,-920 444.5,-920"/>
<text text-anchor="start" x="449.5" y="-928.6" font-family="Verdana" font-size="8.00" fill="#000000">created_by</text>
<text text-anchor="start" x="497.5" y="-928.6" font-family="Verdana" font-size="8.00" fill="#000000"> [VARCHAR(64)]</text>
<polygon fill="none" stroke="#000000" points="444.5,-901 444.5,-920 661.5,-920 661.5,-901 444.5,-901"/>
<text text-anchor="start" x="449.5" y="-909.6" font-family="Verdana" font-size="8.00" fill="#000000">status</text>
<text text-anchor="start" x="475.5" y="-909.6" font-family="Verdana" font-size="8.00" fill="#000000"> [VARCHAR(16)]</text>
<polygon fill="none" stroke="#000000" points="444.5,-882 444.5,-901 661.5,-901 661.5,-882 444.5,-882"/>
<text text-anchor="start" x="449.5" y="-890.6" font-family="Verdana" font-size="8.00" fill="#000000">priority</text>
<text text-anchor="start" x="480.5" y="-890.6" font-family="Verdana" font-size="8.00" fill="#000000"> [VARCHAR(16)]</text>
<polygon fill="none" stroke="#000000" points="444.5,-863 444.5,-882 661.5,-882 661.5,-863 444.5,-863"/>
<text text-anchor="start" x="449.5" y="-871.6" font-family="Verdana" text-decoration="underline" font-size="8.00" fill="#000000">id</text>
<text text-anchor="start" x="457.5" y="-871.6" font-family="Verdana" font-size="8.00" fill="#000000"> [VARCHAR]</text>
<polygon fill="none" stroke="#000000" points="444.5,-844 444.5,-863 661.5,-863 661.5,-844 444.5,-844"/>
<text text-anchor="start" x="449.5" y="-852.6" font-family="Verdana" font-size="8.00" fill="#000000">content</text>
<text text-anchor="start" x="481.5" y="-852.6" font-family="Verdana" font-size="8.00" fill="#000000"> [VARCHAR(5120)]</text>
<polygon fill="none" stroke="#000000" points="444.5,-825 444.5,-844 661.5,-844 661.5,-825 444.5,-825"/>
<text text-anchor="start" x="449.5" y="-833.6" font-family="Verdana" font-size="8.00" fill="#000000">contact</text>
<text text-anchor="start" x="480.5" y="-833.6" font-family="Verdana" font-size="8.00" fill="#000000"> [VARCHAR]</text>
<polygon fill="none" stroke="#000000" points="444.5,-806 444.5,-825 661.5,-825 661.5,-806 444.5,-806"/>
<text text-anchor="start" x="449.5" y="-814.6" font-family="Verdana" font-size="8.00" fill="#000000">machine_model</text>
<text text-anchor="start" x="516.5" y="-814.6" font-family="Verdana" font-size="8.00" fill="#000000"> [VARCHAR(64)]</text>
<polygon fill="none" stroke="#000000" points="444.5,-787 444.5,-806 661.5,-806 661.5,-787 444.5,-787"/>
<text text-anchor="start" x="449.5" y="-795.6" font-family="Verdana" font-size="8.00" fill="#000000">serial_number</text>
<text text-anchor="start" x="510.5" y="-795.6" font-family="Verdana" font-size="8.00" fill="#000000"> [VARCHAR(64)]</text>
<polygon fill="none" stroke="#000000" points="444.5,-768 444.5,-787 661.5,-787 661.5,-768 444.5,-768"/>
<text text-anchor="start" x="449.5" y="-776.6" font-family="Verdana" font-size="8.00" fill="#000000">installation_date</text>
<text text-anchor="start" x="519.5" y="-776.6" font-family="Verdana" font-size="8.00" fill="#000000"> [DATETIME]</text>
<polygon fill="none" stroke="#000000" points="444.5,-749 444.5,-768 661.5,-768 661.5,-749 444.5,-749"/>
<text text-anchor="start" x="449.5" y="-757.6" font-family="Verdana" font-size="8.00" fill="#000000">installation_place</text>
<text text-anchor="start" x="522.5" y="-757.6" font-family="Verdana" font-size="8.00" fill="#000000"> [VARCHAR(64)]</text>
<polygon fill="none" stroke="#000000" points="444.5,-730 444.5,-749 661.5,-749 661.5,-730 444.5,-730"/>
<text text-anchor="start" x="449.5" y="-738.6" font-family="Verdana" font-size="8.00" fill="#000000">damaged_group</text>
<text text-anchor="start" x="519.5" y="-738.6" font-family="Verdana" font-size="8.00" fill="#000000"> [VARCHAR(64)]</text>
<polygon fill="none" stroke="#000000" points="444.5,-711 444.5,-730 661.5,-730 661.5,-711 444.5,-711"/>
<text text-anchor="start" x="449.5" y="-719.6" font-family="Verdana" font-size="8.00" fill="#000000">quantity</text>
<text text-anchor="start" x="484.5" y="-719.6" font-family="Verdana" font-size="8.00" fill="#000000"> [INTEGER]</text>
<polygon fill="none" stroke="#000000" points="444.5,-692 444.5,-711 661.5,-711 661.5,-692 444.5,-692"/>
<text text-anchor="start" x="449.5" y="-700.6" font-family="Verdana" font-size="8.00" fill="#000000">serial_number_of_damaged_part</text>
<text text-anchor="start" x="589.5" y="-700.6" font-family="Verdana" font-size="8.00" fill="#000000"> [VARCHAR(64)]</text>
<polygon fill="none" stroke="#000000" points="444.5,-673 444.5,-692 661.5,-692 661.5,-673 444.5,-673"/>
<text text-anchor="start" x="449.5" y="-681.6" font-family="Verdana" font-size="8.00" fill="#000000">the_part_have_been_requested</text>
<text text-anchor="start" x="583.5" y="-681.6" font-family="Verdana" font-size="8.00" fill="#000000"> [BOOLEAN]</text>
<polygon fill="none" stroke="#000000" points="444.5,-654 444.5,-673 661.5,-673 661.5,-654 444.5,-654"/>
<text text-anchor="start" x="449.5" y="-662.6" font-family="Verdana" font-size="8.00" fill="#000000">is_covered_by_warranty</text>
<text text-anchor="start" x="553.5" y="-662.6" font-family="Verdana" font-size="8.00" fill="#000000"> [BOOLEAN]</text>
<polygon fill="none" stroke="#000000" points="444.5,-635 444.5,-654 661.5,-654 661.5,-635 444.5,-635"/>
<text text-anchor="start" x="449.5" y="-643.6" font-family="Verdana" font-size="8.00" fill="#000000">customer_id</text>
<text text-anchor="start" x="501.5" y="-643.6" font-family="Verdana" font-size="8.00" fill="#000000"> [VARCHAR]</text>
<polygon fill="none" stroke="#000000" points="444.5,-616 444.5,-635 661.5,-635 661.5,-616 444.5,-616"/>
<text text-anchor="start" x="449.5" y="-624.6" font-family="Verdana" font-size="8.00" fill="#000000">owner_id</text>
<text text-anchor="start" x="488.5" y="-624.6" font-family="Verdana" font-size="8.00" fill="#000000"> [VARCHAR]</text>
</g>
<!-- customer&#45;&#45;claim -->
<g id="edge1" class="edge">
<title>customer&#45;&#45;claim</title>
<path fill="none" stroke="#7f7f7f" stroke-dasharray="5,2" d="M145.1409,-688.7863C222.1929,-717.1993 345.0729,-762.5112 435.7441,-795.9463"/>
<text text-anchor="start" x="410.7441" y="-789.5463" font-family="Verdana" font-size="8.00" fill="#000000">{0,1}</text>
<text text-anchor="start" x="145.1409" y="-682.3863" font-family="Verdana" font-size="8.00" fill="#000000">0..N</text>
</g>
<!-- order -->
<g id="node11" class="node">
<title>order</title>
<polygon fill="none" stroke="#000000" points="226.5,-406 226.5,-434 355.5,-434 355.5,-406 226.5,-406"/>
<text text-anchor="start" x="267" y="-417.2" font-family="Verdana" font-weight="bold" font-size="16.00" fill="#000000">order</text>
<polygon fill="none" stroke="#000000" points="226.5,-387 226.5,-406 355.5,-406 355.5,-387 226.5,-387"/>
<text text-anchor="start" x="231.5" y="-395.6" font-family="Verdana" font-size="8.00" fill="#000000">date_created</text>
<text text-anchor="start" x="287.5" y="-395.6" font-family="Verdana" font-size="8.00" fill="#000000"> [DATETIME]</text>
<polygon fill="none" stroke="#000000" points="226.5,-368 226.5,-387 355.5,-387 355.5,-368 226.5,-368"/>
<text text-anchor="start" x="231.5" y="-376.6" font-family="Verdana" font-size="8.00" fill="#000000">date_modified</text>
<text text-anchor="start" x="292.5" y="-376.6" font-family="Verdana" font-size="8.00" fill="#000000"> [DATETIME]</text>
<polygon fill="none" stroke="#000000" points="226.5,-349 226.5,-368 355.5,-368 355.5,-349 226.5,-349"/>
<text text-anchor="start" x="231.5" y="-357.6" font-family="Verdana" text-decoration="underline" font-size="8.00" fill="#000000">id</text>
<text text-anchor="start" x="239.5" y="-357.6" font-family="Verdana" font-size="8.00" fill="#000000"> [VARCHAR]</text>
<polygon fill="none" stroke="#000000" points="226.5,-330 226.5,-349 355.5,-349 355.5,-330 226.5,-330"/>
<text text-anchor="start" x="231.5" y="-338.6" font-family="Verdana" font-size="8.00" fill="#000000">description</text>
<text text-anchor="start" x="278.5" y="-338.6" font-family="Verdana" font-size="8.00" fill="#000000"> [VARCHAR(200)]</text>
<polygon fill="none" stroke="#000000" points="226.5,-311 226.5,-330 355.5,-330 355.5,-311 226.5,-311"/>
<text text-anchor="start" x="231.5" y="-319.6" font-family="Verdana" font-size="8.00" fill="#000000">name</text>
<text text-anchor="start" x="256.5" y="-319.6" font-family="Verdana" font-size="8.00" fill="#000000"> [VARCHAR(64)]</text>
<polygon fill="none" stroke="#000000" points="226.5,-292 226.5,-311 355.5,-311 355.5,-292 226.5,-292"/>
<text text-anchor="start" x="231.5" y="-300.6" font-family="Verdana" font-size="8.00" fill="#000000">customer_id</text>
<text text-anchor="start" x="283.5" y="-300.6" font-family="Verdana" font-size="8.00" fill="#000000"> [VARCHAR]</text>
<polygon fill="none" stroke="#000000" points="226.5,-273 226.5,-292 355.5,-292 355.5,-273 226.5,-273"/>
<text text-anchor="start" x="231.5" y="-281.6" font-family="Verdana" font-size="8.00" fill="#000000">amount</text>
<text text-anchor="start" x="264.5" y="-281.6" font-family="Verdana" font-size="8.00" fill="#000000"> [FLOAT]</text>
</g>
<!-- customer&#45;&#45;order -->
<g id="edge19" class="edge">
<title>customer&#45;&#45;order</title>
<path fill="none" stroke="#7f7f7f" stroke-dasharray="5,2" d="M117.6465,-596.2935C146.1761,-554.9856 183.9569,-500.6732 218,-453 221.3426,-448.319 224.7867,-443.5242 228.2735,-438.6916"/>
<text text-anchor="start" x="203.2735" y="-441.2916" font-family="Verdana" font-size="8.00" fill="#000000">{0,1}</text>
<text text-anchor="start" x="99.6465" y="-589.8935" font-family="Verdana" font-size="8.00" fill="#000000">0..N</text>
</g>
<!-- attachment -->
<g id="node7" class="node">
<title>attachment</title>
<polygon fill="none" stroke="#000000" points="750.5,-844 750.5,-872 879.5,-872 879.5,-844 750.5,-844"/>
<text text-anchor="start" x="763.5" y="-855.2" font-family="Verdana" font-weight="bold" font-size="16.00" fill="#000000">attachment</text>
<polygon fill="none" stroke="#000000" points="750.5,-825 750.5,-844 879.5,-844 879.5,-825 750.5,-825"/>
<text text-anchor="start" x="755.5" y="-833.6" font-family="Verdana" font-size="8.00" fill="#000000">date_created</text>
<text text-anchor="start" x="811.5" y="-833.6" font-family="Verdana" font-size="8.00" fill="#000000"> [DATETIME]</text>
<polygon fill="none" stroke="#000000" points="750.5,-806 750.5,-825 879.5,-825 879.5,-806 750.5,-806"/>
<text text-anchor="start" x="755.5" y="-814.6" font-family="Verdana" font-size="8.00" fill="#000000">date_modified</text>
<text text-anchor="start" x="816.5" y="-814.6" font-family="Verdana" font-size="8.00" fill="#000000"> [DATETIME]</text>
<polygon fill="none" stroke="#000000" points="750.5,-787 750.5,-806 879.5,-806 879.5,-787 750.5,-787"/>
<text text-anchor="start" x="755.5" y="-795.6" font-family="Verdana" text-decoration="underline" font-size="8.00" fill="#000000">id</text>
<text text-anchor="start" x="763.5" y="-795.6" font-family="Verdana" font-size="8.00" fill="#000000"> [VARCHAR]</text>
<polygon fill="none" stroke="#000000" points="750.5,-768 750.5,-787 879.5,-787 879.5,-768 750.5,-768"/>
<text text-anchor="start" x="755.5" y="-776.6" font-family="Verdana" font-size="8.00" fill="#000000">description</text>
<text text-anchor="start" x="802.5" y="-776.6" font-family="Verdana" font-size="8.00" fill="#000000"> [VARCHAR(200)]</text>
<polygon fill="none" stroke="#000000" points="750.5,-749 750.5,-768 879.5,-768 879.5,-749 750.5,-749"/>
<text text-anchor="start" x="755.5" y="-757.6" font-family="Verdana" font-size="8.00" fill="#000000">name</text>
<text text-anchor="start" x="780.5" y="-757.6" font-family="Verdana" font-size="8.00" fill="#000000"> [VARCHAR(64)]</text>
<polygon fill="none" stroke="#000000" points="750.5,-730 750.5,-749 879.5,-749 879.5,-730 750.5,-730"/>
<text text-anchor="start" x="755.5" y="-738.6" font-family="Verdana" font-size="8.00" fill="#000000">attached_id</text>
<text text-anchor="start" x="804.5" y="-738.6" font-family="Verdana" font-size="8.00" fill="#000000"> [VARCHAR]</text>
<polygon fill="none" stroke="#000000" points="750.5,-711 750.5,-730 879.5,-730 879.5,-711 750.5,-711"/>
<text text-anchor="start" x="755.5" y="-719.6" font-family="Verdana" font-size="8.00" fill="#000000">claimed_id</text>
<text text-anchor="start" x="801.5" y="-719.6" font-family="Verdana" font-size="8.00" fill="#000000"> [VARCHAR]</text>
</g>
<!-- claim&#45;&#45;attachment -->
<g id="edge12" class="edge">
<title>claim&#45;&#45;attachment</title>
<path fill="none" stroke="#7f7f7f" stroke-dasharray="5,2" d="M669.3245,-818.0429C694.0235,-813.6122 719.4025,-809.0595 741.8942,-805.0247"/>
<text text-anchor="start" x="716.8942" y="-798.6247" font-family="Verdana" font-size="8.00" fill="#000000">{0,1}</text>
<text text-anchor="start" x="669.3245" y="-811.6429" font-family="Verdana" font-size="8.00" fill="#000000">0..N</text>
</g>
<!-- claimings -->
<g id="node8" class="node">
<title>claimings</title>
<polygon fill="none" stroke="#000000" points="767.5,-1018 767.5,-1046 862.5,-1046 862.5,-1018 767.5,-1018"/>
<text text-anchor="start" x="772.5" y="-1029.2" font-family="Verdana" font-weight="bold" font-size="16.00" fill="#000000">claimings</text>
<polygon fill="none" stroke="#000000" points="767.5,-999 767.5,-1018 862.5,-1018 862.5,-999 767.5,-999"/>
<text text-anchor="start" x="772.5" y="-1007.6" font-family="Verdana" text-decoration="underline" font-size="8.00" fill="#000000">user_id</text>
<text text-anchor="start" x="803.5" y="-1007.6" font-family="Verdana" font-size="8.00" fill="#000000"> [VARCHAR]</text>
<polygon fill="none" stroke="#000000" points="767.5,-980 767.5,-999 862.5,-999 862.5,-980 767.5,-980"/>
<text text-anchor="start" x="772.5" y="-988.6" font-family="Verdana" text-decoration="underline" font-size="8.00" fill="#000000">claim_id</text>
<text text-anchor="start" x="807.5" y="-988.6" font-family="Verdana" font-size="8.00" fill="#000000"> [VARCHAR]</text>
</g>
<!-- claim&#45;&#45;claimings -->
<g id="edge13" class="edge">
<title>claim&#45;&#45;claimings</title>
<path fill="none" stroke="#7f7f7f" stroke-dasharray="5,2" d="M669.3245,-916.5858C700.437,-937.2482 732.6287,-958.6275 758.7687,-975.9876"/>
<text text-anchor="start" x="733.7687" y="-969.5876" font-family="Verdana" font-size="8.00" fill="#000000">{0,1}</text>
<text text-anchor="start" x="669.3245" y="-910.1858" font-family="Verdana" font-size="8.00" fill="#000000">0..N</text>
</g>
<!-- history -->
<g id="node10" class="node">
<title>history</title>
<polygon fill="none" stroke="#000000" points="750.5,-636 750.5,-664 879.5,-664 879.5,-636 750.5,-636"/>
<text text-anchor="start" x="783.5" y="-647.2" font-family="Verdana" font-weight="bold" font-size="16.00" fill="#000000">history</text>
<polygon fill="none" stroke="#000000" points="750.5,-617 750.5,-636 879.5,-636 879.5,-617 750.5,-617"/>
<text text-anchor="start" x="755.5" y="-625.6" font-family="Verdana" font-size="8.00" fill="#000000">date_created</text>
<text text-anchor="start" x="811.5" y="-625.6" font-family="Verdana" font-size="8.00" fill="#000000"> [DATETIME]</text>
<polygon fill="none" stroke="#000000" points="750.5,-598 750.5,-617 879.5,-617 879.5,-598 750.5,-598"/>
<text text-anchor="start" x="755.5" y="-606.6" font-family="Verdana" font-size="8.00" fill="#000000">date_modified</text>
<text text-anchor="start" x="816.5" y="-606.6" font-family="Verdana" font-size="8.00" fill="#000000"> [DATETIME]</text>
<polygon fill="none" stroke="#000000" points="750.5,-579 750.5,-598 879.5,-598 879.5,-579 750.5,-579"/>
<text text-anchor="start" x="755.5" y="-587.6" font-family="Verdana" text-decoration="underline" font-size="8.00" fill="#000000">id</text>
<text text-anchor="start" x="763.5" y="-587.6" font-family="Verdana" font-size="8.00" fill="#000000"> [VARCHAR]</text>
<polygon fill="none" stroke="#000000" points="750.5,-560 750.5,-579 879.5,-579 879.5,-560 750.5,-560"/>
<text text-anchor="start" x="755.5" y="-568.6" font-family="Verdana" font-size="8.00" fill="#000000">description</text>
<text text-anchor="start" x="802.5" y="-568.6" font-family="Verdana" font-size="8.00" fill="#000000"> [VARCHAR(200)]</text>
<polygon fill="none" stroke="#000000" points="750.5,-541 750.5,-560 879.5,-560 879.5,-541 750.5,-541"/>
<text text-anchor="start" x="755.5" y="-549.6" font-family="Verdana" font-size="8.00" fill="#000000">user_id</text>
<text text-anchor="start" x="786.5" y="-549.6" font-family="Verdana" font-size="8.00" fill="#000000"> [VARCHAR]</text>
<polygon fill="none" stroke="#000000" points="750.5,-522 750.5,-541 879.5,-541 879.5,-522 750.5,-522"/>
<text text-anchor="start" x="755.5" y="-530.6" font-family="Verdana" font-size="8.00" fill="#000000">task_id</text>
<text text-anchor="start" x="785.5" y="-530.6" font-family="Verdana" font-size="8.00" fill="#000000"> [VARCHAR]</text>
<polygon fill="none" stroke="#000000" points="750.5,-503 750.5,-522 879.5,-522 879.5,-503 750.5,-503"/>
<text text-anchor="start" x="755.5" y="-511.6" font-family="Verdana" font-size="8.00" fill="#000000">claim_id</text>
<text text-anchor="start" x="790.5" y="-511.6" font-family="Verdana" font-size="8.00" fill="#000000"> [VARCHAR]</text>
</g>
<!-- claim&#45;&#45;history -->
<g id="edge18" class="edge">
<title>claim&#45;&#45;history</title>
<path fill="none" stroke="#7f7f7f" stroke-dasharray="5,2" d="M669.3245,-725.2967C694.0235,-701.2577 719.4025,-676.5567 741.8942,-654.666"/>
<text text-anchor="start" x="716.8942" y="-648.266" font-family="Verdana" font-size="8.00" fill="#000000">{0,1}</text>
<text text-anchor="start" x="669.3245" y="-718.8967" font-family="Verdana" font-size="8.00" fill="#000000">0..N</text>
</g>
<!-- task -->
<g id="node3" class="node">
<title>task</title>
<polygon fill="none" stroke="#000000" points="488.5,-468 488.5,-496 617.5,-496 617.5,-468 488.5,-468"/>
<text text-anchor="start" x="533.5" y="-479.2" font-family="Verdana" font-weight="bold" font-size="16.00" fill="#000000">task</text>
<polygon fill="none" stroke="#000000" points="488.5,-449 488.5,-468 617.5,-468 617.5,-449 488.5,-449"/>
<text text-anchor="start" x="493.5" y="-457.6" font-family="Verdana" font-size="8.00" fill="#000000">date_created</text>
<text text-anchor="start" x="549.5" y="-457.6" font-family="Verdana" font-size="8.00" fill="#000000"> [DATETIME]</text>
<polygon fill="none" stroke="#000000" points="488.5,-430 488.5,-449 617.5,-449 617.5,-430 488.5,-430"/>
<text text-anchor="start" x="493.5" y="-438.6" font-family="Verdana" font-size="8.00" fill="#000000">date_modified</text>
<text text-anchor="start" x="554.5" y="-438.6" font-family="Verdana" font-size="8.00" fill="#000000"> [DATETIME]</text>
<polygon fill="none" stroke="#000000" points="488.5,-411 488.5,-430 617.5,-430 617.5,-411 488.5,-411"/>
<text text-anchor="start" x="493.5" y="-419.6" font-family="Verdana" font-size="8.00" fill="#000000">description</text>
<text text-anchor="start" x="540.5" y="-419.6" font-family="Verdana" font-size="8.00" fill="#000000"> [VARCHAR(200)]</text>
<polygon fill="none" stroke="#000000" points="488.5,-392 488.5,-411 617.5,-411 617.5,-392 488.5,-392"/>
<text text-anchor="start" x="493.5" y="-400.6" font-family="Verdana" font-size="8.00" fill="#000000">name</text>
<text text-anchor="start" x="518.5" y="-400.6" font-family="Verdana" font-size="8.00" fill="#000000"> [VARCHAR(64)]</text>
<polygon fill="none" stroke="#000000" points="488.5,-373 488.5,-392 617.5,-392 617.5,-373 488.5,-373"/>
<text text-anchor="start" x="493.5" y="-381.6" font-family="Verdana" font-size="8.00" fill="#000000">department</text>
<text text-anchor="start" x="543.5" y="-381.6" font-family="Verdana" font-size="8.00" fill="#000000"> [VARCHAR(16)]</text>
<polygon fill="none" stroke="#000000" points="488.5,-354 488.5,-373 617.5,-373 617.5,-354 488.5,-354"/>
<text text-anchor="start" x="493.5" y="-362.6" font-family="Verdana" font-size="8.00" fill="#000000">created_by</text>
<text text-anchor="start" x="541.5" y="-362.6" font-family="Verdana" font-size="8.00" fill="#000000"> [VARCHAR(64)]</text>
<polygon fill="none" stroke="#000000" points="488.5,-335 488.5,-354 617.5,-354 617.5,-335 488.5,-335"/>
<text text-anchor="start" x="493.5" y="-343.6" font-family="Verdana" font-size="8.00" fill="#000000">status</text>
<text text-anchor="start" x="519.5" y="-343.6" font-family="Verdana" font-size="8.00" fill="#000000"> [VARCHAR(16)]</text>
<polygon fill="none" stroke="#000000" points="488.5,-316 488.5,-335 617.5,-335 617.5,-316 488.5,-316"/>
<text text-anchor="start" x="493.5" y="-324.6" font-family="Verdana" font-size="8.00" fill="#000000">priority</text>
<text text-anchor="start" x="524.5" y="-324.6" font-family="Verdana" font-size="8.00" fill="#000000"> [VARCHAR(16)]</text>
<polygon fill="none" stroke="#000000" points="488.5,-297 488.5,-316 617.5,-316 617.5,-297 488.5,-297"/>
<text text-anchor="start" x="493.5" y="-305.6" font-family="Verdana" text-decoration="underline" font-size="8.00" fill="#000000">id</text>
<text text-anchor="start" x="501.5" y="-305.6" font-family="Verdana" font-size="8.00" fill="#000000"> [VARCHAR]</text>
<polygon fill="none" stroke="#000000" points="488.5,-278 488.5,-297 617.5,-297 617.5,-278 488.5,-278"/>
<text text-anchor="start" x="493.5" y="-286.6" font-family="Verdana" font-size="8.00" fill="#000000">content</text>
<text text-anchor="start" x="525.5" y="-286.6" font-family="Verdana" font-size="8.00" fill="#000000"> [VARCHAR(5120)]</text>
<polygon fill="none" stroke="#000000" points="488.5,-259 488.5,-278 617.5,-278 617.5,-259 488.5,-259"/>
<text text-anchor="start" x="493.5" y="-267.6" font-family="Verdana" font-size="8.00" fill="#000000">category</text>
<text text-anchor="start" x="531.5" y="-267.6" font-family="Verdana" font-size="8.00" fill="#000000"> [VARCHAR(16)]</text>
<polygon fill="none" stroke="#000000" points="488.5,-240 488.5,-259 617.5,-259 617.5,-240 488.5,-240"/>
<text text-anchor="start" x="493.5" y="-248.6" font-family="Verdana" font-size="8.00" fill="#000000">planned_time</text>
<text text-anchor="start" x="551.5" y="-248.6" font-family="Verdana" font-size="8.00" fill="#000000"> [FLOAT]</text>
<polygon fill="none" stroke="#000000" points="488.5,-221 488.5,-240 617.5,-240 617.5,-221 488.5,-221"/>
<text text-anchor="start" x="493.5" y="-229.6" font-family="Verdana" font-size="8.00" fill="#000000">order_id</text>
<text text-anchor="start" x="529.5" y="-229.6" font-family="Verdana" font-size="8.00" fill="#000000"> [VARCHAR]</text>
<polygon fill="none" stroke="#000000" points="488.5,-202 488.5,-221 617.5,-221 617.5,-202 488.5,-202"/>
<text text-anchor="start" x="493.5" y="-210.6" font-family="Verdana" font-size="8.00" fill="#000000">milestone_id</text>
<text text-anchor="start" x="547.5" y="-210.6" font-family="Verdana" font-size="8.00" fill="#000000"> [VARCHAR]</text>
<polygon fill="none" stroke="#000000" points="488.5,-183 488.5,-202 617.5,-202 617.5,-183 488.5,-183"/>
<text text-anchor="start" x="493.5" y="-191.6" font-family="Verdana" font-size="8.00" fill="#000000">assignee_id</text>
<text text-anchor="start" x="543.5" y="-191.6" font-family="Verdana" font-size="8.00" fill="#000000"> [VARCHAR]</text>
<polygon fill="none" stroke="#000000" points="488.5,-164 488.5,-183 617.5,-183 617.5,-164 488.5,-164"/>
<text text-anchor="start" x="493.5" y="-172.6" font-family="Verdana" font-size="8.00" fill="#000000">parent_id</text>
<text text-anchor="start" x="533.5" y="-172.6" font-family="Verdana" font-size="8.00" fill="#000000"> [VARCHAR]</text>
</g>
<!-- task&#45;&#45;task -->
<g id="edge4" class="edge">
<title>task&#45;&#45;task</title>
<path fill="none" stroke="#7f7f7f" stroke-dasharray="5,2" d="M532.1622,-500.0489C536.8887,-511.2295 543.668,-518 552.5,-518 561.332,-518 568.1113,-511.2295 572.8378,-500.0489"/>
<text text-anchor="start" x="547.8378" y="-502.6489" font-family="Verdana" font-size="8.00" fill="#000000">{0,1}</text>
<text text-anchor="start" x="514.1622" y="-502.6489" font-family="Verdana" font-size="8.00" fill="#000000">0..N</text>
</g>
<!-- followings -->
<g id="node4" class="node">
<title>followings</title>
<polygon fill="none" stroke="#000000" points="764.5,-216 764.5,-244 865.5,-244 865.5,-216 764.5,-216"/>
<text text-anchor="start" x="769.5" y="-227.2" font-family="Verdana" font-weight="bold" font-size="16.00" fill="#000000">followings</text>
<polygon fill="none" stroke="#000000" points="764.5,-197 764.5,-216 865.5,-216 865.5,-197 764.5,-197"/>
<text text-anchor="start" x="769.5" y="-205.6" font-family="Verdana" text-decoration="underline" font-size="8.00" fill="#000000">user_id</text>
<text text-anchor="start" x="800.5" y="-205.6" font-family="Verdana" font-size="8.00" fill="#000000"> [VARCHAR]</text>
<polygon fill="none" stroke="#000000" points="764.5,-178 764.5,-197 865.5,-197 865.5,-178 764.5,-178"/>
<text text-anchor="start" x="769.5" y="-186.6" font-family="Verdana" text-decoration="underline" font-size="8.00" fill="#000000">task_id</text>
<text text-anchor="start" x="799.5" y="-186.6" font-family="Verdana" font-size="8.00" fill="#000000"> [VARCHAR]</text>
</g>
<!-- task&#45;&#45;followings -->
<g id="edge8" class="edge">
<title>task&#45;&#45;followings</title>
<path fill="none" stroke="#7f7f7f" stroke-dasharray="5,2" d="M625.1337,-297.0099C666.3255,-278.3006 717.1952,-255.1957 755.8346,-237.6457"/>
<text text-anchor="start" x="730.8346" y="-231.2457" font-family="Verdana" font-size="8.00" fill="#000000">{0,1}</text>
<text text-anchor="start" x="625.1337" y="-290.6099" font-family="Verdana" font-size="8.00" fill="#000000">0..N</text>
</g>
<!-- work_time -->
<g id="node5" class="node">
<title>work_time</title>
<polygon fill="none" stroke="#000000" points="750.5,-432 750.5,-460 879.5,-460 879.5,-432 750.5,-432"/>
<text text-anchor="start" x="769.5" y="-443.2" font-family="Verdana" font-weight="bold" font-size="16.00" fill="#000000">work_time</text>
<polygon fill="none" stroke="#000000" points="750.5,-413 750.5,-432 879.5,-432 879.5,-413 750.5,-413"/>
<text text-anchor="start" x="755.5" y="-421.6" font-family="Verdana" font-size="8.00" fill="#000000">date_created</text>
<text text-anchor="start" x="811.5" y="-421.6" font-family="Verdana" font-size="8.00" fill="#000000"> [DATETIME]</text>
<polygon fill="none" stroke="#000000" points="750.5,-394 750.5,-413 879.5,-413 879.5,-394 750.5,-394"/>
<text text-anchor="start" x="755.5" y="-402.6" font-family="Verdana" font-size="8.00" fill="#000000">date_modified</text>
<text text-anchor="start" x="816.5" y="-402.6" font-family="Verdana" font-size="8.00" fill="#000000"> [DATETIME]</text>
<polygon fill="none" stroke="#000000" points="750.5,-375 750.5,-394 879.5,-394 879.5,-375 750.5,-375"/>
<text text-anchor="start" x="755.5" y="-383.6" font-family="Verdana" text-decoration="underline" font-size="8.00" fill="#000000">id</text>
<text text-anchor="start" x="763.5" y="-383.6" font-family="Verdana" font-size="8.00" fill="#000000"> [VARCHAR]</text>
<polygon fill="none" stroke="#000000" points="750.5,-356 750.5,-375 879.5,-375 879.5,-356 750.5,-356"/>
<text text-anchor="start" x="755.5" y="-364.6" font-family="Verdana" font-size="8.00" fill="#000000">description</text>
<text text-anchor="start" x="802.5" y="-364.6" font-family="Verdana" font-size="8.00" fill="#000000"> [VARCHAR(200)]</text>
<polygon fill="none" stroke="#000000" points="750.5,-337 750.5,-356 879.5,-356 879.5,-337 750.5,-337"/>
<text text-anchor="start" x="755.5" y="-345.6" font-family="Verdana" font-size="8.00" fill="#000000">task_id</text>
<text text-anchor="start" x="785.5" y="-345.6" font-family="Verdana" font-size="8.00" fill="#000000"> [VARCHAR]</text>
<polygon fill="none" stroke="#000000" points="750.5,-318 750.5,-337 879.5,-337 879.5,-318 750.5,-318"/>
<text text-anchor="start" x="755.5" y="-326.6" font-family="Verdana" font-size="8.00" fill="#000000">user_id</text>
<text text-anchor="start" x="786.5" y="-326.6" font-family="Verdana" font-size="8.00" fill="#000000"> [VARCHAR]</text>
<polygon fill="none" stroke="#000000" points="750.5,-299 750.5,-318 879.5,-318 879.5,-299 750.5,-299"/>
<text text-anchor="start" x="755.5" y="-307.6" font-family="Verdana" font-size="8.00" fill="#000000">duration</text>
<text text-anchor="start" x="791.5" y="-307.6" font-family="Verdana" font-size="8.00" fill="#000000"> [FLOAT]</text>
</g>
<!-- task&#45;&#45;work_time -->
<g id="edge9" class="edge">
<title>task&#45;&#45;work_time</title>
<path fill="none" stroke="#7f7f7f" stroke-dasharray="5,2" d="M625.1337,-343.8614C661.4794,-350.7976 705.3598,-359.1717 741.725,-366.1116"/>
<text text-anchor="start" x="716.725" y="-359.7116" font-family="Verdana" font-size="8.00" fill="#000000">{0,1}</text>
<text text-anchor="start" x="625.1337" y="-337.4614" font-family="Verdana" font-size="8.00" fill="#000000">0..N</text>
</g>
<!-- task&#45;&#45;attachment -->
<g id="edge11" class="edge">
<title>task&#45;&#45;attachment</title>
<path fill="none" stroke="#7f7f7f" stroke-dasharray="5,2" d="M625.0793,-468.3885C659.5124,-532.6955 701.8325,-609.8432 742,-678 747.6566,-687.5983 753.7102,-697.5595 759.8185,-707.4184"/>
<text text-anchor="start" x="734.8185" y="-701.0184" font-family="Verdana" font-size="8.00" fill="#000000">{0,1}</text>
<text text-anchor="start" x="625.0793" y="-461.9885" font-family="Verdana" font-size="8.00" fill="#000000">0..N</text>
</g>
<!-- task&#45;&#45;history -->
<g id="edge16" class="edge">
<title>task&#45;&#45;history</title>
<path fill="none" stroke="#7f7f7f" stroke-dasharray="5,2" d="M625.1337,-400.4159C661.4794,-435.6518 705.3598,-478.1923 741.725,-513.4472"/>
<text text-anchor="start" x="716.725" y="-507.0472" font-family="Verdana" font-size="8.00" fill="#000000">{0,1}</text>
<text text-anchor="start" x="625.1337" y="-394.0159" font-family="Verdana" font-size="8.00" fill="#000000">0..N</text>
</g>
<!-- project -->
<g id="node6" class="node">
<title>project</title>
<polygon fill="none" stroke="#000000" points="8.5,-127 8.5,-155 137.5,-155 137.5,-127 8.5,-127"/>
<text text-anchor="start" x="42" y="-138.2" font-family="Verdana" font-weight="bold" font-size="16.00" fill="#000000">project</text>
<polygon fill="none" stroke="#000000" points="8.5,-108 8.5,-127 137.5,-127 137.5,-108 8.5,-108"/>
<text text-anchor="start" x="13.5" y="-116.6" font-family="Verdana" font-size="8.00" fill="#000000">date_created</text>
<text text-anchor="start" x="69.5" y="-116.6" font-family="Verdana" font-size="8.00" fill="#000000"> [DATETIME]</text>
<polygon fill="none" stroke="#000000" points="8.5,-89 8.5,-108 137.5,-108 137.5,-89 8.5,-89"/>
<text text-anchor="start" x="13.5" y="-97.6" font-family="Verdana" font-size="8.00" fill="#000000">date_modified</text>
<text text-anchor="start" x="74.5" y="-97.6" font-family="Verdana" font-size="8.00" fill="#000000"> [DATETIME]</text>
<polygon fill="none" stroke="#000000" points="8.5,-70 8.5,-89 137.5,-89 137.5,-70 8.5,-70"/>
<text text-anchor="start" x="13.5" y="-78.6" font-family="Verdana" text-decoration="underline" font-size="8.00" fill="#000000">id</text>
<text text-anchor="start" x="21.5" y="-78.6" font-family="Verdana" font-size="8.00" fill="#000000"> [VARCHAR]</text>
<polygon fill="none" stroke="#000000" points="8.5,-51 8.5,-70 137.5,-70 137.5,-51 8.5,-51"/>
<text text-anchor="start" x="13.5" y="-59.6" font-family="Verdana" font-size="8.00" fill="#000000">description</text>
<text text-anchor="start" x="60.5" y="-59.6" font-family="Verdana" font-size="8.00" fill="#000000"> [VARCHAR(200)]</text>
<polygon fill="none" stroke="#000000" points="8.5,-32 8.5,-51 137.5,-51 137.5,-32 8.5,-32"/>
<text text-anchor="start" x="13.5" y="-40.6" font-family="Verdana" font-size="8.00" fill="#000000">name</text>
<text text-anchor="start" x="38.5" y="-40.6" font-family="Verdana" font-size="8.00" fill="#000000"> [VARCHAR(64)]</text>
</g>
<!-- milestone -->
<g id="node9" class="node">
<title>milestone</title>
<polygon fill="none" stroke="#000000" points="226.5,-156 226.5,-184 355.5,-184 355.5,-156 226.5,-156"/>
<text text-anchor="start" x="247" y="-167.2" font-family="Verdana" font-weight="bold" font-size="16.00" fill="#000000">milestone</text>
<polygon fill="none" stroke="#000000" points="226.5,-137 226.5,-156 355.5,-156 355.5,-137 226.5,-137"/>
<text text-anchor="start" x="231.5" y="-145.6" font-family="Verdana" font-size="8.00" fill="#000000">date_created</text>
<text text-anchor="start" x="287.5" y="-145.6" font-family="Verdana" font-size="8.00" fill="#000000"> [DATETIME]</text>
<polygon fill="none" stroke="#000000" points="226.5,-118 226.5,-137 355.5,-137 355.5,-118 226.5,-118"/>
<text text-anchor="start" x="231.5" y="-126.6" font-family="Verdana" font-size="8.00" fill="#000000">date_modified</text>
<text text-anchor="start" x="292.5" y="-126.6" font-family="Verdana" font-size="8.00" fill="#000000"> [DATETIME]</text>
<polygon fill="none" stroke="#000000" points="226.5,-99 226.5,-118 355.5,-118 355.5,-99 226.5,-99"/>
<text text-anchor="start" x="231.5" y="-107.6" font-family="Verdana" text-decoration="underline" font-size="8.00" fill="#000000">id</text>
<text text-anchor="start" x="239.5" y="-107.6" font-family="Verdana" font-size="8.00" fill="#000000"> [VARCHAR]</text>
<polygon fill="none" stroke="#000000" points="226.5,-80 226.5,-99 355.5,-99 355.5,-80 226.5,-80"/>
<text text-anchor="start" x="231.5" y="-88.6" font-family="Verdana" font-size="8.00" fill="#000000">description</text>
<text text-anchor="start" x="278.5" y="-88.6" font-family="Verdana" font-size="8.00" fill="#000000"> [VARCHAR(200)]</text>
<polygon fill="none" stroke="#000000" points="226.5,-61 226.5,-80 355.5,-80 355.5,-61 226.5,-61"/>
<text text-anchor="start" x="231.5" y="-69.6" font-family="Verdana" font-size="8.00" fill="#000000">start_date</text>
<text text-anchor="start" x="274.5" y="-69.6" font-family="Verdana" font-size="8.00" fill="#000000"> [DATE]</text>
<polygon fill="none" stroke="#000000" points="226.5,-42 226.5,-61 355.5,-61 355.5,-42 226.5,-42"/>
<text text-anchor="start" x="231.5" y="-50.6" font-family="Verdana" font-size="8.00" fill="#000000">due_date</text>
<text text-anchor="start" x="271.5" y="-50.6" font-family="Verdana" font-size="8.00" fill="#000000"> [DATE]</text>
<polygon fill="none" stroke="#000000" points="226.5,-23 226.5,-42 355.5,-42 355.5,-23 226.5,-23"/>
<text text-anchor="start" x="231.5" y="-31.6" font-family="Verdana" font-size="8.00" fill="#000000">project_id</text>
<text text-anchor="start" x="273.5" y="-31.6" font-family="Verdana" font-size="8.00" fill="#000000"> [VARCHAR]</text>
<polygon fill="none" stroke="#000000" points="226.5,-4 226.5,-23 355.5,-23 355.5,-4 226.5,-4"/>
<text text-anchor="start" x="231.5" y="-12.6" font-family="Verdana" font-size="8.00" fill="#000000">name</text>
<text text-anchor="start" x="256.5" y="-12.6" font-family="Verdana" font-size="8.00" fill="#000000"> [VARCHAR(64)]</text>
</g>
<!-- project&#45;&#45;milestone -->
<g id="edge15" class="edge">
<title>project&#45;&#45;milestone</title>
<path fill="none" stroke="#7f7f7f" stroke-dasharray="5,2" d="M145.0908,-94C168.5004,-94 194.4413,-94 217.8547,-94"/>
<text text-anchor="start" x="192.8547" y="-87.6" font-family="Verdana" font-size="8.00" fill="#000000">{0,1}</text>
<text text-anchor="start" x="145.0908" y="-87.6" font-family="Verdana" font-size="8.00" fill="#000000">0..N</text>
</g>
<!-- milestone&#45;&#45;task -->
<g id="edge5" class="edge">
<title>milestone&#45;&#45;task</title>
<path fill="none" stroke="#7f7f7f" stroke-dasharray="5,2" d="M363.1337,-159.4258C399.4794,-192.1646 443.3598,-231.6905 479.725,-264.447"/>
<text text-anchor="start" x="454.725" y="-258.047" font-family="Verdana" font-size="8.00" fill="#000000">{0,1}</text>
<text text-anchor="start" x="363.1337" y="-153.0258" font-family="Verdana" font-size="8.00" fill="#000000">0..N</text>
</g>
<!-- order&#45;&#45;task -->
<g id="edge3" class="edge">
<title>order&#45;&#45;task</title>
<path fill="none" stroke="#7f7f7f" stroke-dasharray="5,2" d="M363.1337,-347.3465C399.4794,-344.0172 443.3598,-339.9976 479.725,-336.6664"/>
<text text-anchor="start" x="454.725" y="-330.2664" font-family="Verdana" font-size="8.00" fill="#000000">{0,1}</text>
<text text-anchor="start" x="363.1337" y="-340.9465" font-family="Verdana" font-size="8.00" fill="#000000">0..N</text>
</g>
<!-- user -->
<g id="node12" class="node">
<title>user</title>
<polygon fill="none" stroke="#000000" points="226.5,-636 226.5,-664 355.5,-664 355.5,-636 226.5,-636"/>
<text text-anchor="start" x="271" y="-647.2" font-family="Verdana" font-weight="bold" font-size="16.00" fill="#000000">user</text>
<polygon fill="none" stroke="#000000" points="226.5,-617 226.5,-636 355.5,-636 355.5,-617 226.5,-617"/>
<text text-anchor="start" x="231.5" y="-625.6" font-family="Verdana" font-size="8.00" fill="#000000">date_created</text>
<text text-anchor="start" x="287.5" y="-625.6" font-family="Verdana" font-size="8.00" fill="#000000"> [DATETIME]</text>
<polygon fill="none" stroke="#000000" points="226.5,-598 226.5,-617 355.5,-617 355.5,-598 226.5,-598"/>
<text text-anchor="start" x="231.5" y="-606.6" font-family="Verdana" font-size="8.00" fill="#000000">date_modified</text>
<text text-anchor="start" x="292.5" y="-606.6" font-family="Verdana" font-size="8.00" fill="#000000"> [DATETIME]</text>
<polygon fill="none" stroke="#000000" points="226.5,-579 226.5,-598 355.5,-598 355.5,-579 226.5,-579"/>
<text text-anchor="start" x="231.5" y="-587.6" font-family="Verdana" text-decoration="underline" font-size="8.00" fill="#000000">id</text>
<text text-anchor="start" x="239.5" y="-587.6" font-family="Verdana" font-size="8.00" fill="#000000"> [VARCHAR]</text>
<polygon fill="none" stroke="#000000" points="226.5,-560 226.5,-579 355.5,-579 355.5,-560 226.5,-560"/>
<text text-anchor="start" x="231.5" y="-568.6" font-family="Verdana" font-size="8.00" fill="#000000">description</text>
<text text-anchor="start" x="278.5" y="-568.6" font-family="Verdana" font-size="8.00" fill="#000000"> [VARCHAR(200)]</text>
<polygon fill="none" stroke="#000000" points="226.5,-541 226.5,-560 355.5,-560 355.5,-541 226.5,-541"/>
<text text-anchor="start" x="231.5" y="-549.6" font-family="Verdana" font-size="8.00" fill="#000000">name</text>
<text text-anchor="start" x="256.5" y="-549.6" font-family="Verdana" font-size="8.00" fill="#000000"> [VARCHAR(64)]</text>
<polygon fill="none" stroke="#000000" points="226.5,-522 226.5,-541 355.5,-541 355.5,-522 226.5,-522"/>
<text text-anchor="start" x="231.5" y="-530.6" font-family="Verdana" font-size="8.00" fill="#000000">email</text>
<text text-anchor="start" x="255.5" y="-530.6" font-family="Verdana" font-size="8.00" fill="#000000"> [VARCHAR(64)]</text>
<polygon fill="none" stroke="#000000" points="226.5,-503 226.5,-522 355.5,-522 355.5,-503 226.5,-503"/>
<text text-anchor="start" x="231.5" y="-511.6" font-family="Verdana" font-size="8.00" fill="#000000">password</text>
<text text-anchor="start" x="272.5" y="-511.6" font-family="Verdana" font-size="8.00" fill="#000000"> [VARCHAR(128)]</text>
<polygon fill="none" stroke="#000000" points="226.5,-484 226.5,-503 355.5,-503 355.5,-484 226.5,-484"/>
<text text-anchor="start" x="231.5" y="-492.6" font-family="Verdana" font-size="8.00" fill="#000000">role</text>
<text text-anchor="start" x="248.5" y="-492.6" font-family="Verdana" font-size="8.00" fill="#000000"> [VARCHAR(32)]</text>
<polygon fill="none" stroke="#000000" points="226.5,-465 226.5,-484 355.5,-484 355.5,-465 226.5,-465"/>
<text text-anchor="start" x="231.5" y="-473.6" font-family="Verdana" font-size="8.00" fill="#000000">cost_per_hour</text>
<text text-anchor="start" x="292.5" y="-473.6" font-family="Verdana" font-size="8.00" fill="#000000"> [FLOAT]</text>
</g>
<!-- user&#45;&#45;claim -->
<g id="edge2" class="edge">
<title>user&#45;&#45;claim</title>
<path fill="none" stroke="#7f7f7f" stroke-dasharray="5,2" d="M363.1337,-640.9604C385.6983,-664.5585 411.1671,-691.1938 435.9387,-717.1"/>
<text text-anchor="start" x="410.9387" y="-710.7" font-family="Verdana" font-size="8.00" fill="#000000">{0,1}</text>
<text text-anchor="start" x="363.1337" y="-634.5604" font-family="Verdana" font-size="8.00" fill="#000000">0..N</text>
</g>
<!-- user&#45;&#45;task -->
<g id="edge6" class="edge">
<title>user&#45;&#45;task</title>
<path fill="none" stroke="#7f7f7f" stroke-dasharray="5,2" d="M363.1337,-499.8515C399.4794,-467.2513 443.3598,-427.8929 479.725,-395.2753"/>
<text text-anchor="start" x="454.725" y="-388.8753" font-family="Verdana" font-size="8.00" fill="#000000">{0,1}</text>
<text text-anchor="start" x="363.1337" y="-493.4515" font-family="Verdana" font-size="8.00" fill="#000000">0..N</text>
</g>
<!-- user&#45;&#45;followings -->
<g id="edge7" class="edge">
<title>user&#45;&#45;followings</title>
<path fill="none" stroke="#7f7f7f" stroke-dasharray="5,2" d="M356.5279,-461.361C358.8323,-456.5686 361.0042,-451.7686 363,-447 415.3119,-322.0081 329.3331,-234.5565 436,-151 528.9673,-78.175 674.9779,-135.1826 755.7819,-176.992"/>
<text text-anchor="start" x="730.7819" y="-170.592" font-family="Verdana" font-size="8.00" fill="#000000">{0,1}</text>
<text text-anchor="start" x="338.5279" y="-454.961" font-family="Verdana" font-size="8.00" fill="#000000">0..N</text>
</g>
<!-- user&#45;&#45;work_time -->
<g id="edge10" class="edge">
<title>user&#45;&#45;work_time</title>
<path fill="none" stroke="#7f7f7f" stroke-dasharray="5,2" d="M363.3234,-563.5078C457.7707,-560.5818 616.6247,-551.9968 669,-527 699.4622,-512.4615 727.171,-488.7802 750.0413,-464.6305"/>
<text text-anchor="start" x="725.0413" y="-467.2305" font-family="Verdana" font-size="8.00" fill="#000000">{0,1}</text>
<text text-anchor="start" x="363.3234" y="-557.1078" font-family="Verdana" font-size="8.00" fill="#000000">0..N</text>
</g>
<!-- user&#45;&#45;claimings -->
<g id="edge14" class="edge">
<title>user&#45;&#45;claimings</title>
<path fill="none" stroke="#7f7f7f" stroke-dasharray="5,2" d="M305.2522,-668.7012C326.7421,-803.1252 371.2769,-1026.1595 436,-1075 531.4084,-1146.9958 679.1079,-1087.5469 758.8617,-1045.5878"/>
<text text-anchor="start" x="733.8617" y="-1039.1878" font-family="Verdana" font-size="8.00" fill="#000000">{0,1}</text>
<text text-anchor="start" x="287.2522" y="-671.3012" font-family="Verdana" font-size="8.00" fill="#000000">0..N</text>
</g>
<!-- user&#45;&#45;history -->
<g id="edge17" class="edge">
<title>user&#45;&#45;history</title>
<path fill="none" stroke="#7f7f7f" stroke-dasharray="5,2" d="M363.0847,-567.6319C462.9748,-571.2539 641.7787,-577.7372 741.7538,-581.3623"/>
<text text-anchor="start" x="716.7538" y="-574.9623" font-family="Verdana" font-size="8.00" fill="#000000">{0,1}</text>
<text text-anchor="start" x="363.0847" y="-570.2319" font-family="Verdana" font-size="8.00" fill="#000000">0..N</text>
</g>
</g>
</svg>
